<svg width="714" height="514" viewBox="0 0 714 514" fill="none" xmlns="http://www.w3.org/2000/svg">
<g clip-path="url(#clip0_18_154)">
<path d="M515.08 95.164H462.785V17.8982L515.08 33.3514V95.164Z" fill="#2F2E41"/>
<path d="M524.364 487.466L513.572 487.702L507.556 442.81L523.482 442.461L524.364 487.466Z" fill="#A0616A"/>
<path d="M487.338 508.313C487.338 510.001 488.632 511.369 490.228 511.369H511.649C511.649 511.369 513.757 503.524 522.351 500.147L522.944 511.369H533.995L532.656 493.325C532.656 493.325 535.612 483.67 529.473 478.736C523.334 473.801 528.306 474.488 528.306 474.488L525.891 463.319L509.193 465.137L509.07 482.669L500.967 500.071L489.081 505.507C488.023 505.991 487.338 507.094 487.338 508.313L487.338 508.313L487.338 508.313Z" fill="#2F2E41"/>
<path d="M469.055 487.466L458.263 487.702L452.247 442.81L468.173 442.461L469.055 487.466Z" fill="#A0616A"/>
<path d="M432.029 508.313C432.029 510.001 433.323 511.369 434.919 511.369H456.34C456.34 511.369 458.448 503.524 467.042 500.147L467.635 511.369H478.686L477.347 493.325C477.347 493.325 480.303 483.67 474.164 478.736C468.025 473.801 472.997 474.488 472.997 474.488L470.582 463.319L453.884 465.137L453.761 482.669L445.658 500.071L433.772 505.507C432.714 505.991 432.029 507.094 432.029 508.313L432.029 508.313L432.029 508.313Z" fill="#2F2E41"/>
<path d="M518.417 179.641L449.433 217.759L433.856 276.481L441.645 457.798H475.804L483.369 283.178L498.512 457.798H533.206L541.981 261.706C544.398 247.455 542.49 232.863 536.472 219.557L518.417 179.641V179.641V179.641Z" fill="#2F2E41"/>
<path d="M502.84 63.2277L473.911 61.1672L466.123 75.5902L443.87 80.7412L438.307 144.614C449.312 171.089 456.221 196.389 449.433 217.759L533.995 213.638L519.876 178.291C519.876 178.291 519.53 165.219 527.319 147.705C535.107 130.191 522.868 84.8621 522.868 84.8621L505.066 80.7412L502.84 63.2277H502.84V63.2277Z" fill="#5D58AE"/>
<path d="M308.054 88.0743C310.871 88.1551 313.474 87.6401 315.522 86.7176L342.303 89.0569L343.133 77.2247L315.876 76.1256C313.894 75.0875 311.331 74.4243 308.514 74.3435C302.079 74.1589 296.759 77.0829 296.632 80.8746C296.505 84.6662 301.619 87.8896 308.054 88.0743H308.054Z" fill="#A0616A"/>
<path d="M466.48 124.195C466.48 124.195 465.534 86.5017 456.605 80.844C452.923 78.5107 396.302 77.9807 394.24 77.7828C381.519 76.5622 372.467 71.8861 361.757 71.3735C335.656 70.1245 322.46 75.9891 322.46 75.9891L322 88.0909L466.48 124.195V124.195Z" fill="#5D58AE"/>
<path d="M485.912 60.1904C498.669 60.1904 509.011 50.6147 509.011 38.8025C509.011 26.9903 498.669 17.4146 485.912 17.4146C473.154 17.4146 462.812 26.9903 462.812 38.8025C462.812 50.6147 473.154 60.1904 485.912 60.1904Z" fill="#A0616A"/>
<path d="M478.906 6.95473C473.937 9.85466 470.298 7.77848 466.749 9.24101C459.816 12.0985 448.109 32.1687 449.165 40.5713C450.66 52.4716 455.384 52.9616 455.243 61.4995C455.017 75.2094 453.84 75.1525 456.873 79.9396C460.245 85.2639 479.348 83.8183 482.894 76.5981C483.594 75.1737 475.823 75.7339 467.236 57.0463C462.927 47.6689 465.755 39.1239 467.236 35.4119C467.582 34.5428 467.741 28.373 468.48 29.0578C474.964 35.0617 478.599 30.6729 482.515 30.1692C490.55 29.1356 496.601 35.138 499.039 32.9831C500.854 31.3795 498.539 27.1398 499.419 26.8277C500.357 26.495 503.464 31.1462 505.497 36.1487C506.809 39.3747 507.465 40.9877 507.397 42.8317C507.187 48.5261 505.619 64.6715 502.841 69.4089C496.84 79.6392 504.396 83.4993 509.106 82.7535C512.912 82.151 529.736 84.5232 530.657 82.8016C531.477 81.2679 529.603 65.4917 527.634 50.825C525.268 33.1964 515.783 16.9968 500.91 5.77477C500.038 5.11668 499.387 4.66514 499.039 4.49262C498.216 4.08398 489.722 0.000571251 483.464 3.26156C481.16 4.46205 481.536 5.4198 478.906 6.95476L478.906 6.95473Z" fill="#2F2E41"/>
<path d="M190.355 504.163L177.538 504.162L171.441 458.389L190.357 458.39L190.355 504.163Z" fill="#FFB6B6"/>
<path d="M146.444 503.894C146.045 504.516 145.834 506.524 145.834 507.248C145.834 509.472 147.782 511.276 150.184 511.276H189.875C191.514 511.276 192.843 510.045 192.843 508.528V506.998C192.843 506.998 194.806 502.399 190.764 496.732C190.764 496.732 185.74 501.17 178.232 494.218L176.018 490.505L159.993 501.357L151.11 502.369C149.167 502.591 147.444 502.335 146.444 503.894H146.444H146.444Z" fill="#2F2E41"/>
<path d="M244.39 504.163L231.574 504.162L225.477 458.389L244.393 458.39L244.39 504.163Z" fill="#FFB6B6"/>
<path d="M200.48 503.894C200.081 504.516 199.87 506.524 199.87 507.248C199.87 509.472 201.818 511.276 204.22 511.276H243.911C245.55 511.276 246.878 510.045 246.878 508.528V506.998C246.878 506.998 248.842 502.399 244.8 496.732C244.8 496.732 239.775 501.17 232.268 494.218L230.054 490.505L214.028 501.357L205.146 502.369C203.202 502.591 201.48 502.335 200.48 503.894H200.48H200.48Z" fill="#2F2E41"/>
<path d="M246.932 215.178L152.91 214.177L143.183 271.214L166.959 468.341H198.13L205.325 284.723L218.293 471.844H250.209L264.764 258.706L246.932 215.178Z" fill="#2F2E41"/>
<path d="M645.537 496.301C647.77 496.431 649.004 493.862 647.314 492.366L647.146 491.747C647.168 491.697 647.191 491.648 647.213 491.598C649.471 486.613 657.123 486.648 659.362 491.64C661.349 496.071 663.879 500.51 664.502 505.195C664.781 507.263 664.655 509.37 664.16 511.399C668.815 501.983 671.266 491.7 671.266 481.359C671.266 478.761 671.112 476.163 670.798 473.571C670.54 471.451 670.184 469.344 669.723 467.257C667.231 455.972 661.835 445.224 654.052 436.247C650.311 434.353 647.191 431.393 645.306 427.845C644.629 426.565 644.098 425.189 643.847 423.786C644.273 423.838 645.453 417.834 645.132 417.466C645.725 416.632 646.787 416.217 647.435 415.404C650.658 411.358 655.099 412.064 657.417 417.563C662.369 419.877 662.417 423.715 659.378 427.406C657.445 429.754 657.179 432.932 655.483 435.446C655.658 435.653 655.839 435.853 656.014 436.06C659.214 439.86 661.982 443.945 664.315 448.236C663.655 443.467 664.629 437.721 666.289 434.017C668.178 429.797 671.719 426.243 674.838 422.595C678.583 418.213 686.265 420.125 686.924 425.68C686.931 425.734 686.937 425.788 686.943 425.842C686.48 426.084 686.026 426.341 685.583 426.612C683.055 428.16 683.928 431.789 686.924 432.217L686.992 432.227C686.824 433.772 686.538 435.304 686.12 436.809C690.12 451.134 681.483 456.352 669.151 456.586C668.878 456.716 668.613 456.845 668.341 456.968C669.59 460.225 670.589 463.566 671.328 466.953C671.992 469.945 672.452 472.97 672.711 476.008C673.032 479.84 673.004 483.692 672.655 487.518L672.676 487.383C673.562 483.169 676.033 479.233 679.621 476.505C684.966 472.44 692.517 470.943 698.283 467.676C701.059 466.103 704.616 468.135 704.131 471.115L704.108 471.258C703.249 471.581 702.411 471.956 701.602 472.376C701.139 472.618 700.685 472.875 700.241 473.146C697.713 474.694 698.587 478.323 701.583 478.751L701.651 478.761C701.699 478.768 701.741 478.774 701.79 478.781C700.317 482.018 698.265 485.024 695.696 487.615C693.195 500.121 682.451 501.307 670.958 497.665H670.951C669.695 502.733 667.859 507.683 665.5 512.401H646.025C645.955 512.201 645.892 511.994 645.83 511.794C647.63 511.897 649.445 511.8 651.218 511.496C649.773 509.855 648.329 508.2 646.884 506.559C646.849 506.526 646.821 506.494 646.793 506.462C646.06 505.622 645.32 504.788 644.587 503.948L644.587 503.947C644.541 501.367 644.875 498.797 645.536 496.302L645.537 496.301V496.301L645.537 496.301Z" fill="#F2F2F2"/>
<path d="M0 512.809C0 513.47 0.572815 514 1.28612 514H712.714C713.427 514 714 513.47 714 512.809C714 512.149 713.427 511.619 712.714 511.619H1.28612C0.572815 511.619 0 512.149 0 512.809Z" fill="#CCCCCC"/>
<path d="M215.051 65.5813H181.587L175.064 77.5891L143.183 91.1451L154.531 168.648L145.885 219.681H253.885L244.231 160.643L257.199 89.5968L221.535 76.5884L215.051 65.5813Z" fill="#E6E6E6"/>
<path d="M327.066 253.385C325.606 250.628 324.94 247.794 325.016 245.315L309.32 219.864L322.619 213.303L337.108 239.827C339.271 241.291 341.282 243.514 342.742 246.271C346.076 252.569 345.27 259.268 340.941 261.232C336.612 263.197 330.4 259.684 327.066 253.385V253.385H327.066Z" fill="#FFB6B6"/>
<path d="M223.61 86.1814C223.61 86.1814 234.198 76.0945 246.076 83.1139C257.954 90.1333 301.283 161.963 301.283 161.963L334.706 223.716L311.114 233.893L282.651 174.759L222.876 115.2L223.61 86.1814L223.61 86.1814H223.61Z" fill="#E6E6E6"/>
<path d="M196.902 59.7282C213.59 59.7282 227.119 47.2018 227.119 31.7496C227.119 16.2974 213.59 3.771 196.902 3.771C180.213 3.771 166.684 16.2974 166.684 31.7496C166.684 47.2018 180.213 59.7282 196.902 59.7282Z" fill="#FFB6B6"/>
<path d="M187.419 54.2672C187.558 57.0082 187.628 58.3788 187.174 58.5444C185.805 59.043 168.175 49.4029 166.099 42.9857C165.131 39.9926 165.949 39.9329 165.242 31.4179C164.566 23.2739 163.808 23.209 164.704 21.1942C165.7 18.9547 168.741 16.1956 174.822 10.6772C177.122 8.5907 178.272 7.54744 178.998 7.00804C181.198 5.37322 189.393 -0.717031 196.907 0.0698068C200.057 0.39963 199.519 1.56406 211.286 7.47252C212.3 7.98143 213.659 8.65322 215.536 9.42454C220.101 11.3005 222.933 11.7868 224.424 12.3099C233.46 15.4804 230.808 33.1416 230.032 33.2429C229.749 33.2798 229.672 30.9896 228.189 30.8002C226.855 30.6298 226.005 32.3689 224.792 32.4322C221.479 32.605 225.158 29.6687 217.05 26.4075C213.898 25.1397 222.668 30.856 214.319 30.7632C201.263 30.6181 209.613 31.3875 204.655 33.7991C201.039 35.5578 186.492 25.879 187.083 28.9718C187.5 31.1532 189.21 31.7812 188.963 34.225C188.724 36.5926 186.802 39.1444 185.107 39.2382C183.545 39.3246 182.689 37.2946 182.168 37.4888C181.601 37.7001 182.223 40.2475 183.446 42.8647C184.998 46.1873 185.924 46.2133 186.742 48.7686C187.213 50.2384 187.281 51.5813 187.419 54.2672H187.419V54.2672Z" fill="#2F2E41"/>
<path d="M425.582 245.17L230.882 199.303C218.436 196.371 210.886 184.61 214.053 173.086L238.275 84.9386C241.441 73.4147 254.143 66.4246 266.589 69.3565L461.29 115.223C473.736 118.155 481.285 129.916 478.119 141.44L453.897 229.588C450.73 241.112 438.028 248.102 425.582 245.17Z" fill="white"/>
<path d="M425.582 245.17L230.881 199.303C224.658 197.837 219.66 194.164 216.089 189.293C210.893 182.207 209.537 173.285 211.818 164.985L232.13 91.0665C234.411 82.766 240.207 75.5289 248.428 71.6033C254.079 68.9051 260.366 67.8906 266.589 69.3565L461.289 115.223C473.755 118.16 481.29 129.897 478.118 141.44L453.896 229.588C450.73 241.112 438.028 248.102 425.582 245.17H425.582ZM266.056 71.2961C254.747 68.6319 257.703 78.1153 254.825 88.5866L254.825 88.5867C240.787 139.674 269.823 192.491 322.703 212.024C351.249 222.568 374.993 231.187 374.993 231.187C414.536 240.503 454.748 218.373 464.809 181.76L476.024 140.946C478.901 130.475 472.066 119.827 460.756 117.163L266.056 71.2961V71.2961Z" fill="#3F3D56"/>
<path d="M357.155 140.759L357.155 140.759C355.799 130.432 345.657 123.079 334.504 124.335L334.504 124.335C323.456 125.579 315.565 134.805 316.735 145.015L316.411 145.052L321.324 182.449L358.491 178.263C359.665 178.322 360.86 178.293 362.069 178.157L362.069 178.157C373.222 176.901 381.164 167.511 379.807 157.183V157.183C378.45 146.856 368.309 139.503 357.155 140.759L357.155 140.759V140.759Z" fill="#3F3D58"/>
<path d="M285.915 494.041H285.915C284.341 490.286 279.777 488.423 275.721 489.88H275.721C271.703 491.324 269.693 495.484 271.185 499.212L271.067 499.254L276.768 512.855L290.284 507.998C290.731 507.916 291.176 507.8 291.616 507.642H291.616C295.672 506.184 297.684 501.958 296.11 498.203V498.203C294.536 494.447 289.971 492.584 285.915 494.041L285.915 494.041Z" fill="#E6E6E6"/>
<path d="M588.517 494.041C586.943 490.286 582.379 488.423 578.323 489.88C574.305 491.324 572.295 495.484 573.787 499.212L573.669 499.254L579.37 512.855L592.886 507.998C593.333 507.916 593.778 507.8 594.218 507.642C598.274 506.184 600.286 501.958 598.712 498.203V498.203C597.138 494.447 592.574 492.584 588.517 494.041L588.518 494.041H588.517Z" fill="#E6E6E6"/>
<path d="M341.196 248.546C355.521 248.546 367.133 237.794 367.133 224.531C367.133 211.267 355.521 200.515 341.196 200.515C326.871 200.515 315.259 211.267 315.259 224.531C315.259 237.794 326.871 248.546 341.196 248.546Z" fill="#3F3D58"/>
<path d="M223.289 127.135C220.506 128.805 217.546 129.754 214.878 129.979L189.451 147.433L180.834 135.987L207.556 119.514C208.869 117.352 211.014 115.239 213.797 113.569C220.155 109.755 227.434 109.7 230.055 113.446C232.676 117.193 229.647 123.321 223.289 127.135H223.289V127.135L223.289 127.135Z" fill="#FFB6B6"/>
<path d="M163.733 86.4043C163.733 86.4043 144.28 84.403 141.038 91.4075C137.796 98.412 131.312 168.457 131.312 168.457L142.119 185.468L212.991 135.804L198.639 122.515L168.265 135.804L163.733 86.4043H163.733V86.4043Z" fill="#E6E6E6"/>
<path d="M445.492 109.038C447.804 111.239 450.461 112.775 453.008 113.545L473.598 135.804L484.751 126.422L462.663 104.853C461.904 102.474 460.321 99.9714 458.009 97.77C452.728 92.7409 445.645 91.1865 442.189 94.2981C438.732 97.4097 440.211 104.009 445.492 109.038V109.038Z" fill="#A0616A"/>
<path d="M513.349 81.6106C513.349 81.6106 532.795 83.6708 534.271 91.168C535.747 98.6651 525.221 168.288 525.221 168.288L510.593 182.644L453.446 119.613L470.634 109.617L497.05 128.835L513.349 81.6106Z" fill="#5D58AE"/>
<path d="M251.151 162.447C260.106 162.447 267.366 155.725 267.366 147.433C267.366 139.141 260.106 132.419 251.151 132.419C242.195 132.419 234.935 139.141 234.935 147.433C234.935 155.725 242.195 162.447 251.151 162.447Z" fill="#E6E6E6"/>
</g>
<defs>
<clipPath id="clip0_18_154">
<rect width="714" height="514" fill="white"/>
</clipPath>
</defs>
</svg>
