<svg id="visual" viewBox="0 0 960 540" width="960" height="540" xmlns="http://www.w3.org/2000/svg" xmlns:xlink="http://www.w3.org/1999/xlink" version="1.1"><rect width="960" height="540" fill="#8F7B99"></rect><g><g transform="translate(309 20)"><path d="M59.8 -61.9C83.3 -51.5 112.3 -38.2 124.5 -15.1C136.6 7.9 132.1 40.8 113.1 57.6C94.2 74.4 60.9 75.2 35 75.8C9.1 76.3 -9.5 76.7 -33.2 75.1C-57 73.5 -85.9 69.9 -104.6 52.9C-123.2 36 -131.6 5.6 -125.3 -20.6C-118.9 -46.9 -97.8 -69.1 -74.4 -79.6C-51.1 -90 -25.6 -88.7 -3.7 -84.3C18.1 -79.9 36.3 -72.3 59.8 -61.9Z" stroke="#1B4140" fill="none" stroke-width="20"></path></g><g transform="translate(229 472)"><path d="M49.4 -56.3C66.3 -44.7 83.9 -31.3 93.9 -11.1C103.9 9 106.4 35.9 95.2 54.5C83.9 73.1 59 83.3 33.5 93.1C8 102.8 -18.1 112.1 -36 103.6C-54 95.1 -63.8 68.8 -78.9 44.6C-93.9 20.5 -114.1 -1.6 -113.2 -22.3C-112.3 -42.9 -90.3 -62.1 -67.9 -72.8C-45.5 -83.5 -22.8 -85.7 -3.3 -81.8C16.2 -77.9 32.5 -68 49.4 -56.3Z" stroke="#1B4140" fill="none" stroke-width="20"></path></g><g transform="translate(940 160)"><path d="M67.6 -83.2C84 -66.8 91.3 -42.1 93.6 -18.1C95.9 5.8 93.3 29.1 82.7 48.1C72.1 67.1 53.6 81.8 34.1 85.5C14.5 89.1 -6.2 81.5 -26.4 73.7C-46.7 65.9 -66.4 57.8 -73.6 43.4C-80.8 29 -75.4 8.3 -68.5 -8.8C-61.5 -25.9 -53 -39.5 -41.3 -56.7C-29.7 -74 -14.8 -95 5.4 -101.4C25.6 -107.8 51.2 -99.7 67.6 -83.2Z" stroke="#1B4140" fill="none" stroke-width="20"></path></g></g></svg>