<svg width="408" height="375" viewBox="0 0 408 375" fill="none" xmlns="http://www.w3.org/2000/svg">
<g clip-path="url(#clip0_150_534)">
<path d="M259.999 281.126V371.523H81.3896C61.0395 371.523 44.4824 351.247 44.4824 326.325C44.4824 301.403 61.0394 281.126 81.3896 281.126H259.999Z" fill="#F2F2F2"/>
<path d="M264.385 370.828C264.384 371.75 264.095 372.634 263.581 373.286C263.067 373.938 262.37 374.304 261.643 374.305H78.2071C68.2444 374.305 58.6897 369.286 51.645 360.353C44.6003 351.421 40.6426 339.305 40.6426 326.672C40.6426 314.039 44.6003 301.924 51.645 292.991C58.6897 284.058 68.2444 279.04 78.2071 279.04H261.643C262.37 279.04 263.067 279.406 263.581 280.058C264.096 280.71 264.385 281.595 264.385 282.517C264.385 283.439 264.096 284.323 263.581 284.975C263.067 285.627 262.37 285.993 261.643 285.993H78.2071C69.6988 285.993 61.5389 290.279 55.5226 297.908C49.5064 305.537 46.1264 315.884 46.1264 326.672C46.1264 337.461 49.5064 347.808 55.5226 355.436C61.5389 363.065 69.6988 367.351 78.2071 367.351H261.643C262.37 367.351 263.067 367.718 263.581 368.37C264.095 369.022 264.384 369.906 264.385 370.828Z" fill="#1F4B4A"/>
<path d="M259.998 301.987H68.0621C67.9166 301.987 67.7771 301.914 67.6743 301.783C67.5715 301.653 67.5137 301.476 67.5137 301.292C67.5137 301.107 67.5715 300.93 67.6743 300.8C67.7771 300.669 67.9166 300.596 68.0621 300.596H259.998C260.143 300.596 260.282 300.669 260.385 300.8C260.488 300.93 260.546 301.107 260.546 301.292C260.546 301.476 260.488 301.653 260.385 301.783C260.282 301.914 260.143 301.987 259.998 301.987Z" fill="#CCCCCC"/>
<path d="M259.998 318.676H68.0621C67.9166 318.676 67.7771 318.602 67.6743 318.472C67.5715 318.342 67.5137 318.165 67.5137 317.98C67.5137 317.796 67.5715 317.619 67.6743 317.489C67.7771 317.358 67.9166 317.285 68.0621 317.285H259.998C260.143 317.285 260.282 317.358 260.385 317.489C260.488 317.619 260.546 317.796 260.546 317.98C260.546 318.165 260.488 318.342 260.385 318.472C260.282 318.602 260.143 318.676 259.998 318.676Z" fill="#CCCCCC"/>
<path d="M259.998 335.364H68.0621C67.9166 335.364 67.7771 335.291 67.6743 335.161C67.5715 335.03 67.5137 334.853 67.5137 334.669C67.5137 334.485 67.5715 334.308 67.6743 334.177C67.7771 334.047 67.9166 333.974 68.0621 333.974H259.998C260.143 333.974 260.282 334.047 260.385 334.177C260.488 334.308 260.546 334.485 260.546 334.669C260.546 334.853 260.488 335.03 260.385 335.161C260.282 335.291 260.143 335.364 259.998 335.364Z" fill="#CCCCCC"/>
<path d="M259.998 352.053H68.0621C67.9166 352.053 67.7771 351.98 67.6743 351.849C67.5715 351.719 67.5137 351.542 67.5137 351.358C67.5137 351.173 67.5715 350.996 67.6743 350.866C67.7771 350.736 67.9166 350.662 68.0621 350.662H259.998C260.143 350.662 260.282 350.736 260.385 350.866C260.488 350.996 260.546 351.173 260.546 351.358C260.546 351.542 260.488 351.719 260.385 351.849C260.282 351.98 260.143 352.053 259.998 352.053Z" fill="#CCCCCC"/>
<path d="M398.036 298.142L353.307 368.533L214.228 226.435C198.381 210.245 195.522 181.283 207.853 161.877C220.185 142.471 243.111 139.854 258.957 156.044L398.036 298.142Z" fill="#F2F2F2"/>
<path d="M357.068 371.481C356.611 372.199 355.949 372.658 355.226 372.756C354.503 372.855 353.779 372.586 353.212 372.007L210.375 226.07C202.617 218.144 197.66 206.634 196.595 194.074C195.529 181.513 198.442 168.931 204.693 159.094C210.944 149.257 220.02 142.971 229.926 141.62C239.831 140.269 249.755 143.963 257.512 151.889L400.35 297.827C400.631 298.113 400.864 298.467 401.037 298.867C401.209 299.268 401.318 299.708 401.357 300.162C401.396 300.616 401.363 301.076 401.262 301.514C401.16 301.952 400.992 302.361 400.766 302.717C400.54 303.072 400.261 303.368 399.945 303.587C399.629 303.806 399.281 303.943 398.923 303.992C398.565 304.041 398.203 304 397.857 303.871C397.512 303.742 397.19 303.528 396.909 303.241L254.072 157.304C250.791 153.949 247.022 151.448 242.979 149.941C238.936 148.434 234.699 147.952 230.509 148.523C226.319 149.093 222.259 150.705 218.56 153.266C214.862 155.826 211.597 159.286 208.953 163.447C206.309 167.607 204.338 172.388 203.151 177.515C201.965 182.642 201.586 188.015 202.038 193.328C202.489 198.641 203.762 203.788 205.783 208.477C207.804 213.166 210.533 217.304 213.815 220.655L356.653 366.593C357.219 367.171 357.581 368.011 357.658 368.928C357.736 369.845 357.524 370.763 357.068 371.481V371.481Z" fill="#CCCCCC"/>
<path d="M387.715 314.386L238.259 161.686C238.203 161.629 238.156 161.558 238.122 161.478C238.087 161.398 238.066 161.31 238.058 161.219C238.05 161.128 238.057 161.036 238.077 160.949C238.097 160.861 238.131 160.779 238.176 160.708C238.221 160.637 238.277 160.578 238.34 160.534C238.403 160.491 238.473 160.463 238.544 160.453C238.616 160.443 238.688 160.452 238.758 160.477C238.827 160.503 238.891 160.546 238.947 160.603L388.404 313.303C388.46 313.36 388.506 313.431 388.541 313.511C388.576 313.591 388.597 313.68 388.605 313.77C388.613 313.861 388.607 313.953 388.586 314.041C388.566 314.129 388.532 314.21 388.487 314.282C388.442 314.353 388.386 314.412 388.323 314.456C388.259 314.499 388.19 314.527 388.118 314.537C388.047 314.546 387.974 314.538 387.905 314.512C387.836 314.486 387.771 314.444 387.715 314.386V314.386Z" fill="#CCCCCC"/>
<path d="M379.457 327.381L230.001 174.681C229.888 174.565 229.815 174.397 229.8 174.214C229.785 174.031 229.827 173.848 229.918 173.704C230.009 173.561 230.142 173.469 230.286 173.449C230.431 173.429 230.576 173.483 230.689 173.598L380.145 326.298C380.201 326.356 380.248 326.426 380.283 326.506C380.317 326.587 380.339 326.675 380.347 326.766C380.355 326.856 380.348 326.948 380.328 327.036C380.308 327.124 380.274 327.206 380.229 327.277C380.183 327.348 380.128 327.407 380.064 327.451C380.001 327.495 379.932 327.522 379.86 327.532C379.788 327.542 379.716 327.533 379.647 327.507C379.578 327.482 379.513 327.439 379.457 327.381V327.381Z" fill="#CCCCCC"/>
<path d="M371.2 340.377L221.743 187.676C221.63 187.561 221.558 187.393 221.542 187.209C221.527 187.026 221.569 186.842 221.66 186.699C221.752 186.555 221.884 186.463 222.029 186.444C222.173 186.424 222.318 186.478 222.432 186.593L371.888 339.294C371.944 339.351 371.991 339.422 372.025 339.502C372.06 339.582 372.081 339.67 372.089 339.761C372.097 339.851 372.09 339.943 372.07 340.031C372.05 340.118 372.016 340.2 371.971 340.271C371.926 340.342 371.87 340.402 371.807 340.445C371.743 340.489 371.674 340.517 371.602 340.526C371.531 340.536 371.458 340.528 371.389 340.502C371.32 340.477 371.256 340.434 371.2 340.376V340.377Z" fill="#CCCCCC"/>
<path d="M362.942 353.372L213.486 200.672C213.43 200.614 213.383 200.544 213.348 200.463C213.314 200.383 213.292 200.295 213.284 200.205C213.277 200.114 213.283 200.022 213.303 199.934C213.324 199.847 213.357 199.765 213.403 199.694C213.448 199.623 213.504 199.564 213.567 199.52C213.63 199.476 213.699 199.449 213.771 199.439C213.843 199.429 213.915 199.437 213.984 199.463C214.053 199.489 214.118 199.531 214.174 199.589L363.63 352.289C363.686 352.346 363.733 352.417 363.768 352.497C363.802 352.577 363.824 352.665 363.832 352.756C363.84 352.847 363.833 352.939 363.813 353.026C363.793 353.114 363.759 353.196 363.714 353.267C363.668 353.338 363.613 353.397 363.549 353.441C363.486 353.485 363.417 353.512 363.345 353.522C363.273 353.532 363.201 353.524 363.132 353.498C363.062 353.472 362.998 353.429 362.942 353.372V353.372Z" fill="#CCCCCC"/>
<path d="M407.452 375H0.548387C0.402946 375 0.263461 374.927 0.160618 374.796C0.0577759 374.666 0 374.489 0 374.305C0 374.12 0.0577759 373.943 0.160618 373.813C0.263461 373.683 0.402946 373.609 0.548387 373.609H407.452C407.597 373.609 407.737 373.683 407.839 373.813C407.942 373.943 408 374.12 408 374.305C408 374.489 407.942 374.666 407.839 374.796C407.737 374.927 407.597 375 407.452 375Z" fill="#CCCCCC"/>
<path d="M185.399 271.624L179.13 271.624L176.148 240.961L185.401 240.962L185.399 271.624Z" fill="#A0616A"/>
<path d="M174.652 269.352H186.742V279.005H167.039C167.039 277.738 167.236 276.482 167.619 275.311C168.001 274.14 168.562 273.076 169.269 272.18C169.976 271.283 170.815 270.572 171.738 270.087C172.662 269.602 173.652 269.352 174.652 269.352V269.352Z" fill="#2F2E41"/>
<path d="M121.35 271.624L115.081 271.624L112.1 240.961L121.353 240.962L121.35 271.624Z" fill="#A0616A"/>
<path d="M110.603 269.352H122.694V279.005H102.99C102.99 277.738 103.187 276.482 103.57 275.311C103.952 274.14 104.513 273.076 105.22 272.18C105.927 271.283 106.766 270.572 107.69 270.087C108.613 269.602 109.603 269.352 110.603 269.352V269.352Z" fill="#2F2E41"/>
<path d="M142.291 44.1786V40.7017C142.291 34.7541 144.154 29.0501 147.471 24.8445C150.788 20.6389 155.286 18.2762 159.976 18.2762H159.977C164.667 18.2762 169.165 20.6389 172.482 24.8445C175.799 29.0501 177.662 34.7541 177.662 40.7017V44.1786C177.662 48.4664 176.319 52.5786 173.928 55.6105C171.537 58.6425 168.294 60.3458 164.912 60.3458H155.041C153.367 60.3458 151.709 59.9276 150.162 59.1152C148.615 58.3027 147.209 57.1118 146.025 55.6105C144.841 54.1093 143.902 52.327 143.262 50.3655C142.621 48.404 142.291 46.3017 142.291 44.1786V44.1786Z" fill="#2F2E41"/>
<path d="M159.977 61.5421C167.415 61.5421 173.446 53.8956 173.446 44.4633C173.446 35.0309 167.415 27.3844 159.977 27.3844C152.538 27.3844 146.508 35.0309 146.508 44.4633C146.508 53.8956 152.538 61.5421 159.977 61.5421Z" fill="#A0616A"/>
<path d="M86.7133 103.161C87.2599 102.507 87.913 102.012 88.6266 101.712C89.3402 101.413 90.097 101.315 90.8436 101.426C91.5902 101.537 92.3085 101.855 92.9479 102.356C93.5874 102.857 94.1323 103.53 94.5444 104.328L106.09 101.558L109.129 110.045L92.7804 113.665C91.6783 114.454 90.3862 114.703 89.1489 114.365C87.9117 114.027 86.8153 113.125 86.0674 111.83C85.3195 110.536 84.9722 108.938 85.0913 107.34C85.2103 105.742 85.7874 104.255 86.7133 103.161V103.161Z" fill="#A0616A"/>
<path d="M149.476 72.2978L149.627 72.5879L130.693 88.4035L98.7453 101.34C98.3218 101.512 97.9586 101.865 97.7174 102.339C97.4762 102.813 97.3721 103.379 97.4226 103.939L98.1196 111.551C98.1505 111.888 98.2366 112.213 98.3723 112.505C98.5081 112.797 98.6905 113.05 98.9079 113.248C99.1253 113.446 99.3728 113.583 99.6346 113.653C99.8965 113.722 100.167 113.721 100.428 113.65L130.496 105.477C131.951 105.084 133.327 104.316 134.539 103.221L155.81 84.0307C156.581 83.3313 157.196 82.3907 157.596 81.3004C157.995 80.2102 158.165 79.0074 158.09 77.809C158.012 76.6089 157.689 75.4553 157.153 74.4616C156.616 73.4678 155.885 72.6683 155.031 72.1415C154.177 71.6146 153.23 71.3788 152.283 71.4571C151.335 71.5353 150.42 71.9251 149.627 72.5879L149.476 72.2978Z" fill="#CCCCCC"/>
<path d="M179.243 262.923C178.762 262.923 178.291 262.746 177.888 262.412C177.485 262.079 177.167 261.603 176.974 261.045L148.233 170.995C148.166 170.799 148.053 170.635 147.91 170.523C147.767 170.411 147.6 170.358 147.433 170.37C147.265 170.382 147.104 170.459 146.972 170.59C146.84 170.721 146.742 170.901 146.693 171.105L123.245 258.772C123.146 259.18 122.982 259.558 122.763 259.882C122.545 260.207 122.277 260.472 121.974 260.66C121.672 260.848 121.343 260.956 121.007 260.977C120.671 260.998 120.335 260.932 120.019 260.782L112.156 257.043C111.73 256.842 111.355 256.495 111.075 256.04C110.794 255.585 110.619 255.041 110.568 254.467C107.03 215.393 137.877 116.764 138.189 115.773L138.276 115.498L166.395 123.386L166.454 123.466C177.673 138.985 186.894 236.868 188.629 256.332C188.694 257.035 188.567 257.745 188.271 258.345C187.975 258.945 187.527 259.399 187 259.633L180.059 262.745C179.797 262.863 179.521 262.923 179.243 262.923Z" fill="#2F2E41"/>
<path d="M155.015 126.56C148.202 126.56 140.606 124.838 138.268 117.729L138.214 117.565L138.287 117.414C140.132 113.574 142.571 107.025 141.26 105.795C138.678 103.374 137.425 99.391 137.536 93.9565C137.778 82.1591 144.117 71.6848 153.311 67.8926H153.311C155.877 66.8512 158.489 65.9985 161.133 65.3389C163.06 64.8458 165.05 64.9 166.959 65.4978C168.868 66.0955 170.648 67.2219 172.173 68.7961C173.717 70.3805 174.965 72.379 175.828 74.6478C176.69 76.9166 177.145 79.3995 177.161 81.918C177.258 94.5255 175.727 112.085 167.887 124.141C167.519 124.7 167.008 125.077 166.443 125.205C162.671 126.071 158.848 126.524 155.015 126.56Z" fill="#CCCCCC"/>
<path d="M152.48 126.088C152.851 124.402 153.731 122.969 154.93 122.101C156.13 121.233 157.55 121.001 158.884 121.454C159.156 121.551 159.422 121.675 159.678 121.827L168.445 111.71L174.542 116.919L162.005 130.987C161.439 132.281 160.547 133.298 159.473 133.876C158.398 134.454 157.202 134.559 156.075 134.176C155.418 133.948 154.804 133.557 154.267 133.026C153.73 132.495 153.281 131.835 152.947 131.083C152.613 130.331 152.399 129.502 152.319 128.645C152.239 127.787 152.293 126.918 152.48 126.088V126.088Z" fill="#A0616A"/>
<path d="M167.057 126.217C166.488 126.217 165.936 125.968 165.496 125.511L162.039 121.928C161.751 121.63 161.52 121.252 161.363 120.824C161.206 120.396 161.127 119.929 161.133 119.457C161.139 118.985 161.229 118.521 161.396 118.099C161.563 117.678 161.803 117.31 162.099 117.022L176.599 102.921C176.771 102.753 176.884 102.505 176.913 102.233C176.942 101.96 176.885 101.684 176.755 101.464L167.805 86.4606C166.765 84.7233 166.243 82.5756 166.332 80.3975C166.421 78.2195 167.115 76.1516 168.291 74.56V74.56C169.53 72.8639 171.226 71.8202 173.043 71.6359C174.86 71.4516 176.665 72.1402 178.101 73.5652L178.157 73.6409L187.503 90.6094C188.514 91.6141 189.327 92.9015 189.881 94.3709C190.434 95.8404 190.712 97.4522 190.693 99.0804C190.674 100.709 190.358 102.309 189.77 103.757C189.183 105.205 188.339 106.461 187.305 107.427L168.526 125.603C168.1 126.002 167.585 126.217 167.057 126.217Z" fill="#CCCCCC"/>
<path d="M148.045 39.6587V31.1849L159.975 24.579L171.351 31.1849V39.6587C171.351 40.0276 171.236 40.3813 171.03 40.6421C170.824 40.9029 170.545 41.0495 170.255 41.0495H149.142C148.851 41.0495 148.572 40.9029 148.366 40.6421C148.16 40.3813 148.045 40.0276 148.045 39.6587Z" fill="#2F2E41"/>
<path d="M159.428 19.4004C157.673 12.2809 161.357 4.12162 166.804 1.30354C172.25 -1.51454 178.766 0.455381 183.362 5.11127C187.957 9.76717 190.809 16.7408 192.319 23.9495C193.83 31.1582 194.117 38.6751 194.396 46.1256C201.087 47.6842 205.639 57.7481 203.321 65.8589C201.003 73.9696 192.423 77.9991 186.498 73.7598C180.572 69.5205 178.856 58.1248 183.133 51.4152C185.156 48.2404 186.287 44.3002 186.345 40.2188C186.403 36.1374 185.386 32.1481 183.454 28.8826C181.522 25.6172 178.786 23.2623 175.68 22.191C172.573 21.1197 169.274 21.3931 166.304 22.968C163.006 24.7168 158.868 20.1731 159.428 19.4004Z" fill="#2F2E41"/>
<path d="M84.2399 70.2894C76.2284 70.2227 68.3169 68.0256 61.0168 63.84C60.5822 63.5944 60.2134 63.1938 59.9552 62.6871C59.6969 62.1804 59.5605 61.5895 59.5625 60.9862V35.6625C59.5632 34.8328 59.8235 34.0375 60.2861 33.4508C60.7487 32.8642 61.376 32.5342 62.0303 32.5333H106.45C107.104 32.5343 107.731 32.8642 108.194 33.4509C108.656 34.0375 108.917 34.8329 108.917 35.6625V60.9862C108.919 61.5895 108.783 62.1805 108.525 62.6872C108.267 63.1939 107.898 63.5944 107.463 63.84C100.163 68.0256 92.2515 70.2227 84.2399 70.2894V70.2894Z" fill="#1F4B4A"/>
<path d="M84.2343 49.7741C83.905 49.7744 83.579 49.6913 83.2754 49.5296L48.0514 30.6855C47.5972 30.4425 47.2108 30.0326 46.942 29.5085C46.6732 28.9845 46.5343 28.3703 46.5434 27.7453C46.5524 27.1203 46.7089 26.513 46.9927 26.0018C47.2764 25.4906 47.6744 25.0988 48.1354 24.8771L83.3598 7.93268C83.9272 7.65851 84.5544 7.6602 85.1208 7.93743L119.873 24.8818C120.332 25.1053 120.727 25.4972 121.009 26.0072C121.29 26.5171 121.446 27.1221 121.455 27.7447C121.464 28.3673 121.326 28.9791 121.06 29.502C120.793 30.0248 120.409 30.4349 119.958 30.6797L85.2049 49.5235C84.8981 49.6892 84.5679 49.7744 84.2343 49.7741V49.7741Z" fill="#1F4B4A"/>
<path d="M63.6751 65.563C65.4923 65.563 66.9654 63.695 66.9654 61.3908C66.9654 59.0866 65.4923 57.2186 63.6751 57.2186C61.8579 57.2186 60.3848 59.0866 60.3848 61.3908C60.3848 63.695 61.8579 65.563 63.6751 65.563Z" fill="#3F3D56"/>
<path opacity="0.2" d="M120.077 28.0049L85.3239 46.8487C85.053 46.9956 84.7615 47.0718 84.4668 47.0727C84.1722 47.0736 83.8804 46.9992 83.6089 46.854L48.3849 28.0104C47.9426 27.7794 47.5735 27.3681 47.3361 26.8415C47.1808 27.183 47.0845 27.5625 47.0537 27.9548C47.023 28.3471 47.0583 28.7432 47.1575 29.1168C47.2567 29.4904 47.4175 29.833 47.6291 30.1218C47.8407 30.4106 48.0984 30.639 48.3849 30.7919L83.6089 49.6354C83.8804 49.7807 84.1722 49.8551 84.4668 49.8542C84.7615 49.8533 85.053 49.7771 85.3239 49.6302L120.077 30.7864C120.362 30.6322 120.618 30.403 120.828 30.1141C121.038 29.8252 121.198 29.483 121.296 29.1102C121.394 28.7374 121.429 28.3424 121.398 27.9513C121.367 27.5602 121.271 27.1819 121.116 26.8414C120.88 27.3639 120.515 27.7729 120.077 28.0049V28.0049Z" fill="black"/>
<path d="M63.9527 61.3745C64.0981 61.3745 64.2376 61.3012 64.3405 61.1708C64.4433 61.0404 64.5011 60.8636 64.5011 60.6791V37.4113L82.5875 29.0564C82.733 29.0591 82.8733 28.9885 82.9777 28.86C83.0821 28.7316 83.1419 28.5558 83.1441 28.3714C83.1463 28.1869 83.0906 28.009 82.9893 27.8766C82.8879 27.7443 82.7493 27.6684 82.6039 27.6656L64.5174 36.0205C64.3719 36.0163 64.2272 36.0496 64.092 36.1183C63.9569 36.1871 63.8342 36.2899 63.7314 36.4205C63.6274 36.5496 63.5449 36.7037 63.4887 36.8739C63.4326 37.0441 63.4039 37.2268 63.4043 37.4113V60.6791C63.4043 60.8635 63.4621 61.0404 63.5649 61.1708C63.6678 61.3012 63.8072 61.3745 63.9527 61.3745V61.3745Z" fill="#3F3D56"/>
</g>
<defs>
<clipPath id="clip0_150_534">
<rect width="408" height="375" fill="white"/>
</clipPath>
</defs>
</svg>
