<svg width="538" height="342" viewBox="0 0 538 342" fill="none" xmlns="http://www.w3.org/2000/svg">
<g clip-path="url(#clip0_150_482)">
<path d="M149.774 298.202L119.403 301.429L104.878 291.748L96.4688 301.429L100.505 321.857L105.127 337.992L133.151 324.079L155.716 322.082L149.774 298.202Z" fill="#A0616A"/>
<path d="M303.61 263.996L230.324 262.705L141.191 299.493L153.076 324.664L233.625 302.72L358.41 337.572L341.244 254.96L303.61 263.996Z" fill="#2F2E41"/>
<path d="M102.595 300.555L117.161 299.447L98.6337 261.185C98.6337 261.185 90.0506 258.223 88.7301 267.449C87.4097 276.675 98.6726 339.146 101.974 339.146C105.275 339.146 116.351 332.829 116.351 332.829L99.9542 302.491L102.595 300.555H102.595Z" fill="#2F2E41"/>
<path d="M467.943 290.079C466.477 290.233 464.878 290.464 463.176 290.803C455.963 292.239 455.813 297.027 455.876 298.125L455.827 298.095C455.102 299.233 454.647 300.384 454.373 301.47L454.042 286.795C454.256 286.359 454.45 285.865 454.613 285.359C455.153 286.985 456.038 288.521 456.801 288.419C457.793 288.287 458.225 285.433 458.04 283.405C459.302 284.993 461.426 286.692 462.227 286.168C462.867 285.749 462.487 284.026 461.788 282.46C463.244 283.317 464.857 283.881 465.358 283.336C466.041 282.593 464.404 280.058 462.895 278.642C464.915 278.826 467.484 278.512 467.653 277.613C467.791 276.873 466.262 275.938 464.626 275.337C466.27 274.913 467.807 274.175 467.756 273.445C467.695 272.577 465.413 271.996 463.444 271.907C464.929 270.772 466.294 269.202 465.877 268.492C465.493 267.839 463.708 268.092 462.062 268.667C463.036 267.305 463.721 265.77 463.2 265.245C462.55 264.591 460.243 265.72 458.669 266.968C458.976 265.024 458.821 262.57 457.929 262.348C457.182 262.162 456.125 263.59 455.399 265.145C455.079 263.513 454.43 261.963 453.681 261.963C452.614 261.963 451.75 265.107 451.75 267.156C451.75 267.271 451.753 267.38 451.758 267.485C451.651 267.363 451.528 267.236 451.388 267.104C449.885 265.677 446.976 264.093 446.232 264.841C445.711 265.366 446.396 266.9 447.37 268.262C445.724 267.687 443.939 267.434 443.555 268.087C443.04 268.964 445.243 271.154 447.034 272.215C446.926 272.203 446.813 272.192 446.693 272.184C444.602 272.045 441.335 272.674 441.262 273.714C441.211 274.445 442.748 275.183 444.392 275.607C442.756 276.208 441.227 277.142 441.365 277.883C441.534 278.781 444.103 279.096 446.123 278.912C444.614 280.327 442.977 282.863 443.66 283.606C444.161 284.15 445.773 283.587 447.23 282.729C446.531 284.296 446.151 286.019 446.791 286.438C447.637 286.991 449.957 285.066 451.18 283.409C451.056 285.436 451.552 288.22 452.536 288.33C452.948 288.376 453.384 287.947 453.778 287.286L452.663 303.06C452.402 304.898 454.069 306.096 454.218 306.853L454.459 317.535C454.187 316.775 453.822 315.996 453.329 315.223L453.28 315.253C453.343 314.155 453.193 309.367 445.979 307.931C444.278 307.592 442.679 307.361 441.212 307.207C439.482 307.025 438.807 309.341 440.37 310.089C442.634 311.172 444.764 312.537 445.874 314.153C448.713 318.285 452.634 315.897 453.192 315.526C453.815 316.539 454.223 317.56 454.481 318.532L454.609 324.205C454.577 324.339 454.556 324.414 454.554 324.42L454.614 324.437L454.923 338.166L457.79 338.143L456.764 324.11C456.937 323.353 457.467 320.774 456.764 318.096L455.739 307.07C455.736 307.061 455.797 307.359 455.739 307.07L454.401 302.737C454.596 301.397 455.047 299.89 455.964 298.398C456.522 298.769 460.443 301.157 463.282 297.025C464.392 295.409 466.522 294.044 468.786 292.961C470.349 292.213 469.674 289.897 467.944 290.079H467.943ZM454.848 322.561L454.794 320.16C454.903 321.068 454.897 321.887 454.848 322.561Z" fill="#F2F2F2"/>
<path d="M0 337.906C0 338.568 0.543496 339.099 1.2203 339.099H536.78C537.457 339.099 538 338.568 538 337.906C538 337.245 537.457 336.714 536.78 336.714H1.2203C0.543496 336.714 0 337.245 0 337.906Z" fill="#3F3D56"/>
<path d="M355.357 177.931L362.62 154.051L383.748 153.406L392.331 183.095L355.357 177.931Z" fill="#A0616A"/>
<path opacity="0.1" d="M355.357 177.931L362.62 154.051L383.748 153.406L392.331 183.095L355.357 177.931Z" fill="black"/>
<path d="M387.791 174.607L353.458 173.316L342.814 194.712L326.389 289.489L412.55 308.529C412.55 308.529 417.832 202.682 405.947 187.838C394.063 172.994 387.791 174.607 387.791 174.607V174.607Z" fill="#E6E6E6"/>
<path d="M287.24 100.386C285.809 92.9149 280.705 87.5807 275.841 88.4718C270.977 89.3629 268.196 96.1411 269.628 103.615C270.159 106.608 271.415 109.433 273.291 111.855L279.764 143.436L292.533 140.902L286.876 109.366C287.729 106.444 287.854 103.365 287.24 100.386V100.386Z" fill="#A0616A"/>
<path d="M382.649 183.208L312.533 169.7L292.828 111.767L270.748 116.873L292.899 202.455L372.266 212.664L382.649 183.208Z" fill="#E6E6E6"/>
<path d="M275.864 7.58461C275.795 7.64994 275.732 7.71868 275.664 7.78455C265.046 -2.51505 247.946 -2.60566 237.215 7.58072C226.445 17.8073 226.081 34.5953 236.398 45.2587L236.391 45.2651L236.648 45.5237L274.639 83.7619L314.021 46.3727L313.911 46.2625C313.978 46.2009 314.046 46.1438 314.112 46.0813C324.987 35.7566 325.241 18.7691 314.679 8.13843C304.117 -2.49213 286.739 -2.74008 275.864 7.58461V7.58461Z" fill="#1F4B4A"/>
<path d="M285.26 197.232C285.133 197.352 285.017 197.479 284.891 197.6C265.336 178.631 233.842 178.464 214.077 197.225C194.242 216.06 193.572 246.979 212.573 266.619L212.56 266.631L213.034 267.107L283.005 337.533L355.536 268.671L355.335 268.468C355.456 268.354 355.583 268.249 355.704 268.134C375.733 249.118 376.2 217.831 356.748 198.252C337.295 178.673 305.289 178.216 285.26 197.232L285.26 197.232Z" fill="#1F4B4A"/>
<path d="M408.588 296.912C408.588 296.912 421.793 327.246 407.268 334.345C392.742 341.445 352.957 347.253 343.139 334.345C333.321 321.437 330.02 262.06 330.02 262.06L298.328 305.302L280.502 294.33C280.502 294.33 301.63 221.399 319.456 217.527C337.282 213.654 384.82 260.123 384.82 260.123L408.588 296.912H408.588Z" fill="#2F2E41"/>
<path d="M288.424 290.458L274.559 304.011L255.412 313.692L257.393 330.473L293.706 326.6L298.328 317.565L297.007 309.82L299.648 297.557L288.424 290.458Z" fill="#A0616A"/>
<path d="M260.035 324.019L258.901 309.78L219.76 327.891C219.76 327.891 216.73 336.281 226.168 337.572C235.606 338.863 298.329 338.863 298.329 335.636C298.329 332.409 300.044 315.888 300.044 315.888L262.016 326.6L260.035 324.019H260.035Z" fill="#2F2E41"/>
<path d="M288.888 275.557C281.15 276.307 275.274 280.818 275.763 285.631C276.252 290.445 282.921 293.738 290.661 292.987C293.757 292.728 296.745 291.748 299.374 290.129L332.119 286.546L330.636 273.892L298.009 276.684C295.104 275.602 291.976 275.215 288.888 275.557V275.557Z" fill="#A0616A"/>
<path d="M381.518 189.774L361.711 256.896L300.969 271.095L304.27 293.039L393.402 278.84L410.645 202.424L381.518 189.774Z" fill="#E6E6E6"/>
<path d="M370.5 161.2C385.996 161.2 398.558 148.92 398.558 133.772C398.558 118.624 385.996 106.344 370.5 106.344C355.003 106.344 342.441 118.624 342.441 133.772C342.441 148.92 355.003 161.2 370.5 161.2Z" fill="#A0616A"/>
<path d="M372.739 96.8968C371.927 97.3601 370.84 96.6592 370.579 95.7761C370.319 94.8931 370.622 93.9555 370.923 93.0848C371.428 91.6238 371.932 90.1627 372.437 88.7016C373.51 85.593 374.65 82.3757 376.975 80.0096C380.485 76.4384 386.063 75.5299 391.084 76.1881C397.532 77.0333 403.894 80.4464 406.892 86.0905C409.89 91.7345 408.614 99.61 403.196 103.131C410.917 111.782 413.609 121.423 413.184 132.896C412.759 144.369 399.969 154.928 391.628 163.011C389.765 161.907 388.072 156.734 389.096 154.855C390.12 152.976 388.653 150.799 389.921 149.068C391.19 147.337 392.251 150.093 390.969 148.372C390.16 147.286 393.318 144.788 392.115 144.138C386.297 140.994 384.362 133.904 380.707 128.475C376.3 121.927 368.756 117.493 360.772 116.757C356.374 116.352 351.729 117.086 348.125 119.581C344.52 122.077 342.186 126.537 343.022 130.777C340.857 128.629 339.78 125.48 340.186 122.49C340.593 119.501 342.474 116.736 345.138 115.215C343.518 109.979 344.906 103.956 348.665 99.904C352.425 95.8522 367.675 96.5423 373.163 97.6086L372.739 96.8968V96.8968Z" fill="#2F2E41"/>
<path d="M373.592 116.916C380.861 117.683 386.11 123.838 390.542 129.523C393.096 132.799 395.772 136.418 395.708 140.537C395.643 144.701 392.795 148.273 391.434 152.22C389.209 158.671 391.377 166.346 396.674 170.766C391.44 171.737 385.782 167.901 384.879 162.769C383.827 156.795 388.46 151.029 387.911 144.99C387.428 139.67 383.139 135.576 379.493 131.599C375.847 127.621 372.423 122.343 374.101 117.26L373.592 116.916L373.592 116.916Z" fill="#2F2E41"/>
</g>
<defs>
<clipPath id="clip0_150_482">
<rect width="538" height="342" fill="white"/>
</clipPath>
</defs>
</svg>
