<svg width="500" height="431" viewBox="0 0 500 431" fill="none" xmlns="http://www.w3.org/2000/svg">
<g clip-path="url(#clip0_150_521)">
<path d="M284.842 381.296C281.384 376.12 276.704 372.332 270.82 370.915C265.689 369.679 260.413 369.889 255.198 369.932L189.25 370.476C183.602 370.523 178.186 375.754 178.449 382.024C178.709 388.241 183.195 393.621 189.25 393.572C208.568 393.412 227.886 393.253 247.204 393.094C251.758 393.056 256.315 392.968 260.87 392.984C261.893 392.988 262.911 393.046 263.933 393.058C264.181 393.061 264.36 393.059 264.486 393.053C264.517 393.063 264.544 393.073 264.585 393.085C265.118 393.241 265.665 393.349 266.201 393.498C266.013 393.504 266.549 393.861 266.818 393.982C266.855 394.06 266.934 394.198 267.065 394.412C267.249 394.78 267.792 395.897 267.815 395.862C268.631 398.07 269.305 400.335 269.831 402.641C271.086 407.727 271.362 408.791 271.543 413.562C271.771 419.59 276.347 425.397 282.344 425.11C288 424.839 293.39 420.027 293.145 413.562C292.732 402.669 290.944 390.431 284.842 381.296Z" fill="#E6E6E6"/>
<path d="M193.126 407.354C191.887 399.329 190.672 391.298 189.409 383.278C188.128 375.141 185.511 367.689 179.589 362.349C178.006 360.922 176.365 359.59 174.718 358.262C174.138 357.795 173.56 357.328 172.987 356.851C172.953 356.822 172.931 356.804 172.901 356.78C172.838 356.722 172.763 356.653 172.661 356.561C170.193 354.327 167.808 351.994 165.536 349.515C163.518 347.312 161.589 345.016 159.747 342.626C159.287 342.029 158.833 341.426 158.385 340.819C158.308 340.714 157.892 340.14 157.619 339.766C157.364 339.391 156.899 338.714 156.821 338.596C156.297 337.804 155.783 337.005 155.278 336.199C151.838 330.688 148.859 324.864 146.376 318.794C146.129 318.192 145.889 317.586 145.654 316.977C145.592 316.791 145.51 316.552 145.402 316.235C144.902 314.763 144.402 313.294 143.945 311.806C142.973 308.644 142.137 305.435 141.438 302.18C141.092 300.573 140.781 298.958 140.504 297.334C140.361 296.499 140.228 295.662 140.103 294.824C140.083 294.685 139.962 293.78 139.89 293.269C139.837 292.756 139.739 291.846 139.726 291.706C139.647 290.861 139.577 290.015 139.515 289.168C139.377 287.262 139.284 285.354 139.235 283.442C139.152 280.044 139.209 276.647 139.406 273.25C139.518 271.341 139.678 269.437 139.874 267.537C139.886 267.42 139.895 267.328 139.904 267.244C139.916 267.159 139.929 267.063 139.946 266.943C140.091 265.893 140.244 264.844 140.415 263.799C141.063 259.829 141.906 255.899 142.939 252.025C143.429 250.192 143.961 248.374 144.534 246.572C144.79 245.771 145.054 244.974 145.326 244.18C145.308 244.231 146.124 242.003 146.135 241.929C149.372 233.752 154.666 226.298 154.674 217.01C154.679 210.721 149.702 204.697 143.873 204.988C140.966 205.105 138.216 206.423 136.201 208.666C134.186 210.909 133.064 213.9 133.072 217.01C133.072 217.151 133.071 217.271 133.071 217.388C133.016 217.584 132.971 217.748 132.93 217.892C132.299 219.359 131.525 220.752 130.833 222.182C128.935 226.097 127.316 230.139 125.778 234.241C123.259 240.921 121.331 247.839 120.02 254.903C117.169 270.382 116.947 286.282 119.366 301.845C123.554 329.135 137.365 355.259 156.564 372.819C158.23 374.343 159.937 375.816 161.66 377.259C162.373 377.856 163.092 378.442 163.815 379.024C164.156 379.299 165.571 380.492 164.948 379.914C166.287 381.135 166.85 381.749 167.194 382.649C167.244 382.856 167.311 383.138 167.403 383.523C167.646 384.537 167.876 385.549 168.067 386.578C169.738 395.564 170.9 404.701 172.296 413.746C173.255 419.961 180.411 424.005 185.582 422.143C191.601 419.975 194.154 414.013 193.126 407.354Z" fill="#E6E6E6"/>
<path d="M285.934 430.663C281.398 430.675 277.042 428.764 273.823 425.347C270.603 421.931 268.783 417.289 268.76 412.439V399.266C255.861 400.81 211.689 400.452 199.027 398.277V411.912C198.993 416.758 197.169 421.393 193.952 424.806C190.735 428.22 186.386 430.136 181.853 430.136C177.321 430.136 172.972 428.22 169.755 424.806C166.538 421.393 164.714 416.758 164.68 411.912V385.142C147.53 374.956 133.234 360.062 123.266 341.997C113.298 323.932 108.019 303.35 107.975 282.376C107.975 246.412 123.219 212.863 149.8 190.331C167.083 175.631 188.081 166.791 210.098 164.945C213.087 164.694 216.094 164.568 219.035 164.568C229.399 164.568 276.158 166.279 287.89 169.888L314.641 141.508C315.035 141.085 315.537 140.797 316.084 140.681C316.631 140.564 317.198 140.624 317.713 140.854C318.232 141.074 318.676 141.458 318.987 141.953C319.298 142.448 319.462 143.033 319.457 143.63V148.142L324.666 142.627C325.059 142.203 325.561 141.915 326.107 141.798C326.654 141.681 327.221 141.742 327.735 141.971C328.255 142.192 328.699 142.575 329.011 143.071C329.323 143.566 329.487 144.151 329.482 144.749V195.172C342.905 208.11 353.136 224.389 359.268 242.565C365.4 260.741 367.243 280.254 364.635 299.374C362.026 318.494 355.047 336.631 344.314 352.177C333.582 367.724 319.428 380.2 303.107 388.5V412.439C303.085 417.289 301.265 421.931 298.045 425.347C294.826 428.764 290.47 430.675 285.934 430.663V430.663ZM270.11 397.629V412.439C270.145 416.902 271.827 421.169 274.79 424.312C277.754 427.455 281.759 429.219 285.934 429.219C290.108 429.219 294.114 427.455 297.077 424.312C300.041 421.169 301.723 416.902 301.757 412.439V387.588L302.143 387.392C320.455 378.102 336.002 363.566 347.055 345.401C361.14 322.22 366.998 294.414 363.568 267.015C360.138 239.617 347.647 214.436 328.356 196.031L328.132 195.816V144.748C328.137 144.438 328.053 144.134 327.891 143.876C327.729 143.619 327.497 143.42 327.226 143.308C326.957 143.185 326.66 143.152 326.373 143.213C326.086 143.274 325.823 143.426 325.619 143.65L318.107 151.604V143.63C318.112 143.32 318.028 143.015 317.866 142.758C317.704 142.5 317.472 142.302 317.201 142.19C316.932 142.067 316.634 142.034 316.347 142.095C316.059 142.157 315.796 142.31 315.591 142.534L288.267 171.521L287.879 171.391C276.973 167.741 229.478 166.011 219.035 166.011C216.129 166.011 213.157 166.136 210.205 166.384C188.455 168.207 167.712 176.94 150.639 191.462C124.383 213.718 109.325 246.855 109.325 282.376C109.369 303.164 114.62 323.561 124.53 341.447C134.441 359.333 148.65 374.056 165.681 384.086L166.03 384.292V411.912C166.065 416.374 167.747 420.641 170.711 423.784C173.674 426.926 177.679 428.689 181.853 428.689C186.027 428.689 190.032 426.926 192.996 423.784C195.96 420.641 197.642 416.374 197.677 411.912V396.55L198.477 396.71C209.855 398.999 257.768 399.36 269.348 397.736L270.11 397.629Z" fill="#3F3D56"/>
<path d="M237.707 59.1875C225.427 59.1926 213.631 64.3062 204.815 73.4459C195.999 82.5856 190.856 95.0343 190.473 108.157C190.46 108.669 190.453 109.189 190.453 109.709C190.453 119.701 193.225 129.469 198.417 137.777C203.609 146.085 210.989 152.56 219.624 156.384C228.258 160.208 237.76 161.209 246.926 159.259C256.093 157.31 264.512 152.498 271.121 145.433C277.73 138.367 282.23 129.365 284.053 119.565C285.877 109.765 284.941 99.6066 281.364 90.3751C277.788 81.1435 271.731 73.2532 263.96 67.7019C256.189 62.1505 247.053 59.1875 237.707 59.1875V59.1875ZM237.707 158.786C225.537 158.773 213.868 153.598 205.262 144.397C196.656 135.196 191.816 122.721 191.803 109.709C191.803 109.037 191.817 108.373 191.844 107.717C192.209 98.1031 195.21 88.8165 200.473 81.0115C205.735 73.2066 213.028 67.2277 221.443 63.8183C229.858 60.4089 239.026 59.7194 247.804 61.8356C256.583 63.9517 264.587 68.7802 270.82 75.7205C277.053 82.6609 281.24 91.407 282.861 100.871C284.482 110.335 283.465 120.1 279.936 128.951C276.408 137.803 270.524 145.35 263.016 150.654C255.508 155.959 246.707 158.787 237.707 158.786V158.786Z" fill="#3F3D56"/>
<path d="M277.536 109.709C277.536 121.002 273.34 131.833 265.87 139.819C258.401 147.805 248.271 152.291 237.707 152.291C227.144 152.291 217.014 147.805 209.544 139.819C202.075 131.833 197.879 121.002 197.879 109.709C197.879 108.359 197.94 107.031 198.054 105.718C199.014 94.8181 203.863 84.7327 211.595 77.5553C219.327 70.3779 229.348 66.66 239.576 67.1736C249.804 67.6873 259.455 72.3929 266.523 80.3135C273.592 88.2341 277.536 98.7611 277.536 109.709V109.709Z" fill="#E6E6E6"/>
<path d="M249.569 112.538C248.603 111.181 247.333 110.106 245.876 109.413C244.079 108.603 242.223 107.951 240.327 107.464V95.873C243.242 96.3429 245.975 97.6754 248.218 99.7198L250.419 94.7038C249.153 93.4982 247.7 92.5384 246.126 91.8674C244.38 91.1118 242.548 90.6093 240.678 90.3734V84.4985H235.581V90.4312C233.613 90.6675 231.715 91.349 230.012 92.4304C228.474 93.4037 227.179 94.7607 226.238 96.3855C225.341 97.971 224.875 99.7935 224.895 101.647C224.808 103.655 225.352 105.637 226.441 107.276C227.444 108.695 228.768 109.818 230.289 110.539C232.115 111.372 234.002 112.041 235.932 112.538V123.645C232.493 123.368 229.216 121.97 226.542 119.64L224.342 124.663C225.837 125.984 227.536 127.015 229.364 127.709C231.367 128.475 233.459 128.941 235.582 129.094V134.919H240.678V128.986C243.509 128.655 246.164 127.354 248.245 125.276C249.162 124.336 249.886 123.203 250.372 121.948C250.858 120.694 251.095 119.345 251.067 117.987C251.152 116.042 250.624 114.124 249.569 112.538V112.538ZM235.933 106.237C234.691 105.835 233.537 105.172 232.537 104.288C232.141 103.912 231.827 103.446 231.62 102.924C231.412 102.402 231.315 101.838 231.335 101.272C231.298 99.9861 231.74 98.7375 232.564 97.8001C233.477 96.8165 234.655 96.1629 235.933 95.9308V106.237ZM243.527 121.596C242.666 122.54 241.544 123.165 240.327 123.378V113.822C241.491 114.156 242.579 114.738 243.527 115.533C243.886 115.861 244.172 116.272 244.362 116.734C244.553 117.196 244.643 117.698 244.627 118.203C244.674 119.442 244.281 120.654 243.527 121.596V121.596Z" fill="#1F4B4A"/>
<path d="M112.632 246.297C103.213 244.809 94.2051 241.167 86.2219 235.621C82.2669 232.875 78.6055 229.673 75.3035 226.073C72.0444 222.519 68.9266 218.48 67.3123 213.747C65.7592 209.368 65.8392 204.518 67.5359 200.2C69.2095 195.909 72.4063 192.502 76.4256 190.727C80.4689 189.003 85.3541 188.819 89.2891 190.707C91.1643 191.586 92.7869 192.982 93.9905 194.753C94.5499 195.569 94.9642 196.489 95.2125 197.465C95.443 198.35 95.464 199.282 95.2735 200.178C95.0428 201.073 94.6359 201.904 94.0801 202.616C93.5242 203.328 92.8324 203.906 92.0509 204.309C90.3309 205.252 88.4673 205.86 86.5477 206.103C84.617 206.385 81.8434 206.641 80.2913 204.984C79.9718 204.656 79.7205 204.26 79.5537 203.821C79.437 203.485 79.3971 203.124 79.4373 202.769C79.4147 202.926 79.531 202.428 79.5244 202.448C79.4998 202.521 79.3935 202.701 79.5446 202.425C79.5918 202.334 79.6444 202.247 79.702 202.163C79.6507 202.234 79.538 202.352 79.7392 202.149C79.9055 201.955 80.1192 201.814 80.3564 201.742C80.4498 201.713 80.5446 201.69 80.6383 201.662C80.8765 201.593 80.4009 201.666 80.6446 201.658C80.7386 201.655 80.8337 201.657 80.9274 201.653C81.1664 201.641 80.6917 201.583 80.9207 201.644C81.0096 201.668 81.0977 201.692 81.1853 201.721C81.3757 201.785 81.0505 201.572 81.1795 201.732C81.3307 201.919 81.0207 201.549 81.1926 201.731C81.2781 201.821 81.3588 201.916 81.4341 202.015C81.7321 202.33 82.1341 202.506 82.553 202.506C82.9718 202.506 83.3738 202.33 83.6719 202.015C83.9598 201.693 84.1205 201.265 84.1205 200.819C84.1205 200.373 83.9598 199.945 83.6719 199.623C82.1116 197.555 79.0295 198.066 77.451 199.814C75.438 202.043 76.2352 205.575 78.1933 207.52C80.41 209.722 83.5495 209.875 86.4009 209.506C88.8107 209.259 91.159 208.55 93.3332 207.411C95.4935 206.276 97.1831 204.325 98.0748 201.935C98.4774 200.659 98.622 199.307 98.4991 197.967C98.3761 196.627 97.9884 195.33 97.3617 194.162C94.8442 189.102 89.6312 186.508 84.4786 186.059C81.8258 185.836 79.158 186.179 76.6298 187.066C74.1016 187.954 71.7631 189.368 69.7496 191.228C65.8687 194.964 63.4789 200.151 63.0745 205.717C62.6247 211.488 64.719 217.092 67.7723 221.75C70.9689 226.482 74.7834 230.699 79.0995 234.274C87.5373 241.476 97.4349 246.467 108 248.846C109.257 249.124 110.52 249.362 111.79 249.559C112.195 249.664 112.621 249.6 112.982 249.381C113.344 249.161 113.614 248.802 113.737 248.378C113.845 247.945 113.79 247.484 113.583 247.095C113.377 246.705 113.035 246.419 112.632 246.297L112.632 246.297Z" fill="#3F3D56"/>
<path d="M263.431 172.769C249.631 172.561 235.875 172.936 222.162 173.893C217.475 174.22 213.42 175.991 213.42 178.968C213.42 181.457 217.443 184.373 222.162 184.043C235.868 183.086 249.624 182.712 263.431 182.92C274.687 183.09 274.68 172.939 263.431 172.769Z" fill="#CCCCCC"/>
<path d="M243.034 182.417C241.543 182.417 206.51 182.358 206.51 177.184C206.51 172.01 241.543 171.951 243.034 171.951C244.526 171.951 279.559 172.01 279.559 177.184C279.559 182.358 244.526 182.417 243.034 182.417ZM207.88 177.184C208.838 178.752 221.716 180.974 243.034 180.974C264.353 180.974 277.23 178.752 278.189 177.184C277.23 175.616 264.353 173.394 243.034 173.394C221.716 173.394 208.838 175.616 207.88 177.184V177.184Z" fill="#3F3D56"/>
<path d="M354.185 318.428C361.941 318.197 371.592 317.91 379.028 312.102C381.242 310.302 383.062 308.006 384.358 305.375C385.655 302.744 386.398 299.842 386.535 296.871C386.687 292.285 385.137 288.282 382.171 285.602C378.287 282.093 372.616 281.271 366.505 283.191L372.837 233.718L368.188 233.037L360.744 291.199L364.626 289.294C369.126 287.088 375.304 285.965 379.142 289.433C380.085 290.339 380.819 291.466 381.288 292.726C381.757 293.985 381.948 295.344 381.847 296.695C381.733 298.906 381.175 301.064 380.211 303.024C379.247 304.983 377.9 306.698 376.26 308.051C370.474 312.57 362.78 313.153 354.055 313.414L354.185 318.428Z" fill="#3F3D56"/>
<path d="M341.333 237.984H316.064V243H341.333V237.984Z" fill="#3F3D56"/>
<path d="M499.196 431H0.803411C0.590638 430.999 0.386795 430.908 0.236559 430.747C0.0863237 430.586 0.00195312 430.368 0.00195312 430.141C0.00195312 429.913 0.0863237 429.695 0.236559 429.534C0.386795 429.373 0.590638 429.282 0.803411 429.281H499.196C499.409 429.281 499.613 429.372 499.764 429.533C499.915 429.694 500 429.913 500 430.141C500 430.369 499.915 430.587 499.764 430.748C499.613 430.909 499.409 431 499.196 431V431Z" fill="#3F3D56"/>
</g>
<defs>
<clipPath id="clip0_150_521">
<rect width="500" height="431" fill="white"/>
</clipPath>
</defs>
</svg>
