<svg width="426" height="383" viewBox="0 0 426 383" fill="none" xmlns="http://www.w3.org/2000/svg">
<g clip-path="url(#clip0_150_448)">
<path d="M207.692 281.887C217.833 285.192 224.421 293.338 222.406 300.08C220.392 306.823 210.539 309.608 200.395 306.3C196.326 305.036 192.605 302.773 189.544 299.7L146.746 285.128L153.719 264.29L195.17 280.867C199.362 280.157 203.656 280.507 207.692 281.887V281.887Z" fill="#FFB6B6"/>
<path d="M116.008 128.991H116.007C105.803 127.728 96.4063 134.935 94.5052 145.486C87.7245 183.12 73.3228 264.503 75.2194 266.484C77.6885 269.064 169.868 297.44 169.868 297.44L180.567 273.363L119.663 242.407L133.02 152.395C134.716 140.968 126.998 130.351 116.008 128.991V128.991Z" fill="#E6E6E6"/>
<path d="M227.06 321.033C217.165 325.071 207.15 323.01 204.692 316.43C202.233 309.851 208.261 301.245 218.16 297.207C222.093 295.537 226.352 294.876 230.58 295.278L272.712 278.722L279.727 299.545L237.447 313.656C234.598 316.946 231.037 319.476 227.06 321.033V321.033Z" fill="#A0616A"/>
<path d="M287.819 142.313H287.819C297.92 140.337 307.758 146.867 310.334 157.261C319.52 194.334 339.123 274.521 337.359 276.631C335.061 279.379 244.915 314.163 244.915 314.163L232.691 290.892L291.467 255.729L272.35 166.858C269.924 155.576 276.941 144.442 287.819 142.313V142.313Z" fill="#E6E6E6"/>
<path d="M108.778 134.397L113.798 101.618L79.9144 87.1949L74.8945 137.02L108.778 134.397Z" fill="#FFB6B6"/>
<path d="M306.676 139.557L301.656 106.777L335.54 92.3544L340.56 142.179L306.676 139.557Z" fill="#A0616A"/>
<path d="M100.216 112.155C119.299 112.155 134.769 95.9921 134.769 76.0539C134.769 56.1157 119.299 39.9526 100.216 39.9526C81.1323 39.9526 65.6621 56.1157 65.6621 76.0539C65.6621 95.9921 81.1323 112.155 100.216 112.155Z" fill="#FFB6B6"/>
<path d="M97.4583 27.5183C98.4581 28.1281 99.7974 27.2055 100.118 26.0432C100.439 24.8809 100.065 23.6469 99.6948 22.5009L97.8304 16.7316C96.5082 12.6399 95.1049 8.40522 92.2412 5.29091C87.919 0.590364 81.0501 -0.605437 74.8666 0.260879C66.9258 1.37339 59.091 5.86584 55.3988 13.2947C51.7066 20.7235 53.2785 31.0894 59.9501 35.7243C50.4416 47.1108 47.1271 59.8006 47.6505 74.9018C48.1738 90.003 63.9249 103.901 74.1967 114.539C76.4905 113.086 78.5759 106.278 77.3145 103.805C76.0531 101.331 77.8604 98.4658 76.2982 96.1875C74.736 93.9093 73.429 97.5369 75.0083 95.2716C76.0049 93.8422 72.1152 90.5537 73.5966 89.6981C80.7619 85.56 83.145 76.2287 87.6453 69.083C93.0735 60.464 102.364 54.6271 112.195 53.6587C117.611 53.1253 123.332 54.0915 127.771 57.3765C132.21 60.6615 135.084 66.5319 134.054 72.1127C136.72 69.2845 138.048 65.1398 137.547 61.2049C137.046 57.2699 134.729 53.6312 131.449 51.6287C133.443 44.737 131.735 36.8095 127.105 31.4764C122.475 26.1434 103.695 27.0517 96.9355 28.4552" fill="#2F2E41"/>
<path d="M96.4078 53.8679C87.4556 54.8776 80.9919 62.9795 75.5338 70.4616C72.3879 74.7741 69.0926 79.5365 69.1716 84.9582C69.2515 90.4396 72.7592 95.1411 74.4357 100.336C77.1758 108.827 74.5052 118.929 67.9824 124.747C74.4277 126.025 81.3951 120.976 82.5078 114.221C83.8031 106.357 78.0978 98.768 78.7735 90.8202C79.3688 83.8182 84.6501 78.4293 89.14 73.1938C93.63 67.9584 97.8468 61.0111 95.7812 54.321" fill="#2F2E41"/>
<path d="M112.693 128.901L73.573 117.722L33.2446 134.92L15.9609 277.663L114.724 281.102V258.078C114.724 258.078 132.008 235.528 128.716 202.852L125.424 170.176L112.693 128.901V128.901Z" fill="#E6E6E6"/>
<path d="M130.773 186.944L53.4085 182.644L32.4212 244.987C32.4212 244.987 6.49582 282.392 2.38067 309.909C-1.73448 337.426 0.734604 376.121 0.734604 376.121H124.591L114.724 258.078C114.724 258.078 137.759 205.861 135.089 196.833C132.419 187.804 130.773 186.944 130.773 186.944V186.944Z" fill="#3F3D56"/>
<path d="M71.5156 118.152H52.5859V191.243H71.5156V118.152Z" fill="#3F3D56"/>
<path d="M129.951 134.49H111.021V194.683H129.951V134.49Z" fill="#3F3D56"/>
<path d="M301.114 135.78L340.234 124.601L380.562 141.799L397.846 284.542L299.082 287.982V264.957C299.082 264.957 288.979 241.418 298.671 210.161C308.136 179.635 288.383 177.055 288.383 177.055L301.114 135.78V135.78Z" fill="#E6E6E6"/>
<path d="M283.033 193.823L360.398 189.523L381.385 251.866C381.385 251.866 394.142 294.431 398.257 321.947C402.373 349.464 413.072 383 413.072 383H289.216L285.502 269.494L283.033 193.823V193.823Z" fill="#3F3D56"/>
<path d="M342.291 198.122H361.221V125.031H342.291V198.122Z" fill="#3F3D56"/>
<path d="M283.857 201.562H302.787V141.369H283.857V201.562Z" fill="#3F3D56"/>
<path d="M314.328 117.172C338.229 117.172 357.605 96.9286 357.605 71.9567C357.605 46.9848 338.229 26.7411 314.328 26.7411C290.427 26.7411 271.051 46.9848 271.051 71.9567C271.051 96.9286 290.427 117.172 314.328 117.172Z" fill="#A0616A"/>
<path d="M356.896 96.4852C356.896 96.4852 335.958 70.2343 327.583 72.4218C319.208 74.6094 324.442 77.8908 324.442 77.8908L303.505 53.8274C303.505 53.8274 286.754 47.2647 271.051 68.0467C271.051 68.0467 261.629 50.5461 271.051 40.702C280.473 30.8579 283.614 31.9517 285.707 26.4828C287.801 21.0138 302.458 16.6387 302.458 16.6387C302.458 16.6387 301.617 8.76685 306.225 12.7028C310.833 16.6387 322.34 16.6387 322.34 16.6387C322.34 16.6387 322.406 12.2635 327.089 16.6387C331.771 21.0138 337.005 18.8262 337.005 18.8262C337.005 18.8262 337.005 26.3966 340.669 26.4397C344.333 26.4828 350.615 21.0138 351.662 25.389C352.709 29.7641 360.037 31.9517 361.084 45.0771C362.131 58.2026 356.896 96.4851 356.896 96.4851V96.4852Z" fill="#2F2E41"/>
<path d="M196.391 163.972L229.898 230.152L225.305 232.69L191.798 166.51C191.312 165.55 191.663 164.357 192.583 163.849L193.844 163.152C194.763 162.644 195.905 163.011 196.391 163.972V163.972Z" fill="#3F3D56"/>
<path d="M252.212 255.163C243.688 252.866 234.769 256.932 230.492 264.971C225.135 275.037 219.016 283.295 221.065 263.614C223.321 241.947 211.155 224.447 220.716 219.163C230.277 213.879 240.15 229.938 255.689 244.478C270.091 257.954 261.786 257.742 252.212 255.163V255.163Z" fill="#3F3D56"/>
<path d="M202.87 177.36C212.533 172.75 222.642 174.223 225.449 180.648C228.256 187.074 222.698 196.018 213.031 200.628C209.193 202.525 204.977 203.434 200.734 203.28L159.554 222.272L151.436 201.892L192.894 185.333C195.562 181.881 198.983 179.147 202.87 177.36V177.36Z" fill="#FFB6B6"/>
<path d="M36.924 127.433L36.924 127.433C28.5178 133.609 26.1238 145.527 31.4482 154.71C50.4394 187.465 91.7013 258.112 94.3795 258.265C97.8661 258.464 184.638 215.319 184.638 215.319L177.225 189.928L112.096 209.344L64.5432 132.999C58.5064 123.307 45.9777 120.782 36.924 127.433V127.433Z" fill="#E6E6E6"/>
<path d="M206.988 278.996L318.298 217.479L331.962 244.467C343.749 267.747 335.228 296.646 312.946 308.961L282.381 325.853C260.099 338.167 232.439 329.265 220.652 305.984L206.988 278.996V278.996Z" fill="#1F4B4A"/>
<path d="M301.293 320.348C291.63 324.959 281.521 323.488 278.713 317.063C275.905 310.637 281.462 301.693 291.129 297.081C294.966 295.183 299.182 294.274 303.425 294.428L344.602 275.429L352.724 295.808L311.268 312.374C308.6 315.826 305.18 318.56 301.293 320.348V320.348Z" fill="#A0616A"/>
<path d="M385.042 138.45H385.042C395.247 137.187 404.643 144.393 406.544 154.945C413.325 192.579 427.727 273.961 425.83 275.943C423.361 278.523 331.182 306.899 331.182 306.899L320.482 282.822L381.387 251.866L368.029 161.853C366.334 150.426 374.051 139.81 385.042 138.45V138.45Z" fill="#E6E6E6"/>
</g>
<defs>
<clipPath id="clip0_150_448">
<rect width="426" height="383" fill="white"/>
</clipPath>
</defs>
</svg>
