<svg width="529" height="440" viewBox="0 0 529 440" fill="none" xmlns="http://www.w3.org/2000/svg">
<g clip-path="url(#clip0_150_749)">
<path d="M39.7223 403.784C42.7706 404.822 46.0434 405.083 49.2255 404.539C52.4075 403.996 55.3916 402.668 57.8903 400.682C64.2536 395.505 66.2491 386.978 67.872 379.081L72.6735 355.721L62.6211 362.431C55.3916 367.255 47.9997 372.235 42.9944 379.224C37.9892 386.212 35.8056 395.753 39.826 403.315" fill="#E6E6E6"/>
<path d="M41.2752 433.691C40.01 424.756 38.7082 415.706 39.5979 406.675C40.3862 398.655 42.9107 390.823 48.0501 384.398C50.7781 380.995 54.0976 378.079 57.8593 375.782C58.8399 375.182 59.7428 376.688 58.7663 377.286C52.2574 381.273 47.2228 387.161 44.3886 394.1C41.2585 401.816 40.7559 410.229 41.295 418.426C41.6209 423.383 42.3135 428.308 43.009 433.227C43.0639 433.449 43.0296 433.684 42.9131 433.883C42.7965 434.081 42.6064 434.23 42.3812 434.298C42.1514 434.358 41.9065 434.328 41.6995 434.214C41.4926 434.1 41.3404 433.912 41.2759 433.69L41.2752 433.691Z" fill="#F2F2F2"/>
<path d="M50.3828 419.354C51.6899 421.28 53.4869 422.848 55.6005 423.906C57.7142 424.963 60.0733 425.476 62.4504 425.393C68.561 425.112 73.653 420.98 78.2365 417.056L91.7964 405.451L82.8224 405.035C76.3686 404.735 69.7483 404.454 63.6013 406.385C57.4542 408.317 51.7852 412.957 50.6614 419.125" fill="#E6E6E6"/>
<path d="M37.6983 438.827C43.7896 428.38 50.8544 416.769 63.4792 413.058C66.9892 412.03 70.6696 411.662 74.3223 411.973C75.4737 412.07 75.1862 413.789 74.0372 413.694C67.9142 413.201 61.803 414.768 56.7325 418.131C51.8531 421.35 48.0538 425.826 44.8386 430.572C42.8689 433.48 41.1046 436.51 39.3403 439.537C38.7766 440.504 37.128 439.805 37.6983 438.827Z" fill="#F2F2F2"/>
<path d="M525.096 309.86H189.272C188.238 309.859 187.246 309.46 186.514 308.751C185.782 308.042 185.37 307.08 185.369 306.077V3.78339C185.37 2.78038 185.782 1.81881 186.514 1.10957C187.246 0.400335 188.238 0.00130738 189.272 -3.8147e-06H525.096C526.131 0.00130738 527.123 0.400335 527.854 1.10957C528.586 1.81881 528.998 2.78038 528.999 3.78339V306.076C528.998 307.079 528.586 308.041 527.855 308.75C527.123 309.46 526.131 309.859 525.096 309.86V309.86Z" fill="white"/>
<path d="M525.096 309.86H189.272C188.238 309.859 187.246 309.46 186.514 308.751C185.782 308.042 185.37 307.08 185.369 306.077V3.78339C185.37 2.78038 185.782 1.81881 186.514 1.10957C187.246 0.400335 188.238 0.00130738 189.272 -3.8147e-06H525.096C526.131 0.00130738 527.123 0.400335 527.854 1.10957C528.586 1.81881 528.998 2.78038 528.999 3.78339V306.076C528.998 307.079 528.586 308.041 527.855 308.75C527.123 309.46 526.131 309.859 525.096 309.86V309.86ZM189.272 1.51037C188.652 1.51168 188.058 1.75106 187.619 2.17611C187.181 2.60117 186.934 3.1773 186.932 3.77843V306.076C186.934 306.677 187.181 307.253 187.619 307.679C188.058 308.104 188.652 308.343 189.272 308.344H525.096C525.716 308.343 526.311 308.104 526.749 307.679C527.188 307.254 527.435 306.677 527.436 306.076V3.78339C527.434 3.18227 527.188 2.60614 526.749 2.18108C526.31 1.75602 525.716 1.51664 525.096 1.51534L189.272 1.51037Z" fill="#CACACA"/>
<path d="M347.956 78.552C347.254 78.5531 346.581 78.8243 346.085 79.3058C345.589 79.7874 345.311 80.4401 345.311 81.1205C345.311 81.801 345.589 82.4536 346.085 82.9352C346.581 83.4168 347.254 83.6879 347.956 83.6891H493.363C494.065 83.6879 494.738 83.4168 495.234 82.9352C495.73 82.4536 496.008 81.801 496.008 81.1205C496.008 80.4401 495.73 79.7874 495.234 79.3058C494.738 78.8243 494.065 78.5531 493.363 78.552H347.956Z" fill="#E4E4E4"/>
<path d="M347.956 93.9647C347.254 93.9664 346.582 94.2377 346.086 94.7192C345.591 95.2008 345.313 95.8532 345.312 96.5333C345.313 97.2135 345.591 97.8658 346.086 98.3474C346.582 98.8289 347.254 99.1002 347.956 99.1019H422.189C422.891 99.1002 423.563 98.8289 424.059 98.3474C424.554 97.8658 424.833 97.2135 424.833 96.5333C424.833 95.8532 424.554 95.2008 424.059 94.7192C423.563 94.2377 422.891 93.9664 422.189 93.9647H347.956Z" fill="#E4E4E4"/>
<path d="M220.866 176.849C220.164 176.851 219.492 177.122 218.997 177.604C218.501 178.085 218.223 178.738 218.223 179.418C218.223 180.098 218.501 180.75 218.997 181.232C219.492 181.714 220.164 181.985 220.866 181.987H493.505C494.206 181.985 494.879 181.714 495.374 181.232C495.87 180.75 496.148 180.098 496.148 179.418C496.148 178.738 495.87 178.085 495.374 177.604C494.879 177.122 494.206 176.851 493.505 176.849H220.866Z" fill="#E4E4E4"/>
<path d="M220.866 192.262C220.164 192.264 219.492 192.535 218.997 193.017C218.501 193.498 218.223 194.151 218.223 194.831C218.223 195.511 218.501 196.163 218.997 196.645C219.492 197.126 220.164 197.398 220.866 197.399H422.331C423.033 197.398 423.705 197.126 424.201 196.645C424.696 196.163 424.974 195.511 424.974 194.831C424.974 194.151 424.696 193.498 424.201 193.017C423.705 192.535 423.033 192.264 422.331 192.262H220.866Z" fill="#E4E4E4"/>
<path d="M220.866 207.326C220.164 207.328 219.492 207.599 218.997 208.081C218.501 208.562 218.223 209.215 218.223 209.895C218.223 210.575 218.501 211.227 218.997 211.709C219.492 212.19 220.164 212.462 220.866 212.463H493.505C494.206 212.462 494.879 212.19 495.374 211.709C495.87 211.227 496.148 210.575 496.148 209.895C496.148 209.215 495.87 208.562 495.374 208.081C494.879 207.599 494.206 207.328 493.505 207.326H220.866Z" fill="#E4E4E4"/>
<path d="M220.866 222.739C220.164 222.741 219.492 223.012 218.997 223.494C218.501 223.975 218.223 224.627 218.223 225.308C218.223 225.988 218.501 226.64 218.997 227.122C219.492 227.603 220.164 227.874 220.866 227.876H422.331C423.033 227.874 423.705 227.603 424.201 227.122C424.696 226.64 424.974 225.988 424.974 225.308C424.974 224.627 424.696 223.975 424.201 223.494C423.705 223.012 423.033 222.741 422.331 222.739H220.866Z" fill="#E4E4E4"/>
<path d="M220.866 238.204C220.164 238.206 219.492 238.477 218.997 238.959C218.501 239.44 218.223 240.093 218.223 240.773C218.223 241.453 218.501 242.105 218.997 242.587C219.492 243.069 220.164 243.34 220.866 243.341H493.505C494.206 243.34 494.879 243.069 495.374 242.587C495.87 242.105 496.148 241.453 496.148 240.773C496.148 240.093 495.87 239.44 495.374 238.959C494.879 238.477 494.206 238.206 493.505 238.204H220.866Z" fill="#E4E4E4"/>
<path d="M220.866 253.617C220.164 253.619 219.492 253.89 218.997 254.372C218.501 254.853 218.223 255.506 218.223 256.186C218.223 256.866 218.501 257.518 218.997 258C219.492 258.481 220.164 258.753 220.866 258.754H422.331C423.033 258.753 423.705 258.481 424.201 258C424.696 257.518 424.974 256.866 424.974 256.186C424.974 255.506 424.696 254.853 424.201 254.372C423.705 253.89 423.033 253.619 422.331 253.617H220.866Z" fill="#E4E4E4"/>
<path d="M264.049 125.73C256.519 125.73 249.158 123.566 242.897 119.511C236.636 115.456 231.756 109.692 228.875 102.949C225.993 96.206 225.239 88.786 226.708 81.6275C228.177 74.469 231.803 67.8934 237.128 62.7324C242.452 57.5714 249.236 54.0567 256.621 52.6327C264.006 51.2088 271.661 51.9396 278.618 54.7327C285.575 57.5258 291.521 62.2557 295.705 68.3244C299.888 74.3931 302.121 81.528 302.121 88.8267C302.109 98.6106 298.095 107.991 290.957 114.909C283.82 121.827 274.143 125.719 264.049 125.73V125.73Z" fill="#1F4B4A"/>
<path d="M148.48 265.263C148.414 263.916 148.044 262.6 147.397 261.406C146.749 260.213 145.84 259.171 144.732 258.355C143.624 257.54 142.345 256.969 140.986 256.684C139.626 256.399 138.218 256.407 136.862 256.706L124.277 239.516L111.635 244.38L129.758 268.414C130.428 270.59 131.898 272.452 133.889 273.647C135.881 274.842 138.255 275.288 140.563 274.899C142.871 274.511 144.951 273.315 146.41 271.539C147.87 269.763 148.606 267.53 148.48 265.263H148.48Z" fill="#A0616A"/>
<path d="M123.953 263.989L85.875 216.107L100.143 172.643C101.188 161.716 108.243 158.665 108.543 158.54L109.001 158.35L121.416 190.442L112.3 214.004L134.675 250.48L123.953 263.989Z" fill="#3F3D56"/>
<path d="M256.192 116.385C254.812 116.553 253.486 117.012 252.309 117.73C251.131 118.448 250.131 119.408 249.377 120.541C248.624 121.675 248.136 122.955 247.948 124.291C247.759 125.627 247.876 126.987 248.289 128.274L231.58 141.765L237.561 153.606L260.881 134.234C263.067 133.418 264.869 131.854 265.944 129.837C267.019 127.82 267.294 125.491 266.716 123.291C266.138 121.091 264.748 119.172 262.808 117.9C260.868 116.627 258.515 116.088 256.192 116.385V116.385Z" fill="#A0616A"/>
<path d="M256.779 140.186L210.472 180.686L164.663 170.259C153.342 170.093 149.658 163.512 149.507 163.231L149.275 162.803L181.325 148.324L206.266 155.312L242.054 130.869L256.779 140.186Z" fill="#3F3D56"/>
<path d="M176.569 428.104L189.011 428.104L194.929 381.588L176.566 381.588L176.569 428.104Z" fill="#A0616A"/>
<path d="M213.004 439.301L173.901 439.303L173.901 424.659L202.033 424.657C204.942 424.657 207.733 425.778 209.79 427.772C211.848 429.766 213.004 432.47 213.004 435.29L213.004 439.301L213.004 439.301Z" fill="#2F2E41"/>
<path d="M126.839 428.104L139.281 428.104L145.2 381.588L126.838 381.588L126.839 428.104Z" fill="#A0616A"/>
<path d="M163.277 439.301L124.175 439.303L124.174 424.659L152.306 424.657C153.747 424.657 155.174 424.932 156.505 425.467C157.836 426.001 159.045 426.784 160.064 427.772C161.082 428.759 161.891 429.931 162.442 431.221C162.993 432.511 163.277 433.894 163.277 435.291L163.277 439.301V439.301Z" fill="#2F2E41"/>
<path d="M122.416 258.315L123.431 327.173L124.446 417.671L146.772 415.704L157.936 290.777L172.144 415.704H195.193L197.515 289.794L189.396 262.25L122.416 258.315Z" fill="#2F2E41"/>
<path d="M166.113 267.562C141.821 267.564 119.46 256.907 119.158 256.76L118.907 256.639L116.868 209.217C116.277 207.542 104.637 174.475 102.665 163.965C100.668 153.317 129.617 143.971 133.133 142.878L133.931 134.312L166.373 130.924L170.484 141.885L182.123 146.115C183.443 146.595 184.535 147.527 185.192 148.735C185.85 149.944 186.027 151.344 185.691 152.67L179.222 178.168L195.021 262.528L191.62 262.67C183.467 266.239 174.668 267.562 166.113 267.562Z" fill="#3F3D56"/>
<path d="M162.627 122.724C173.946 116.726 178.106 102.969 171.918 91.9975C165.73 81.0255 151.538 76.9932 140.218 82.9911C128.899 88.9889 124.739 102.746 130.927 113.718C137.115 124.689 151.307 128.722 162.627 122.724Z" fill="#A0616A"/>
<path d="M132.504 124.776C136.956 129.372 145.223 126.905 145.803 120.626C145.848 120.138 145.845 119.647 145.793 119.161C145.494 116.379 143.836 113.854 144.233 110.917C144.323 110.186 144.604 109.49 145.049 108.894C148.596 104.289 156.923 110.953 160.271 106.785C162.324 104.229 159.911 100.205 161.486 97.3486C163.565 93.5784 169.724 95.4382 173.586 93.3735C177.883 91.0762 177.626 84.6861 174.797 80.7993C171.348 76.0591 165.3 73.5298 159.327 73.1653C153.354 72.8007 147.423 74.3657 141.847 76.472C135.511 78.8652 129.229 82.1726 125.33 87.5723C120.589 94.1389 120.133 102.967 122.504 110.646C123.946 115.317 128.869 121.023 132.504 124.776Z" fill="#2F2E41"/>
<path d="M296.807 439.884H0.776983C0.570914 439.884 0.373273 439.805 0.227561 439.664C0.081848 439.523 0 439.331 0 439.131C0 438.932 0.081848 438.74 0.227561 438.599C0.373273 438.458 0.570914 438.378 0.776983 438.378H296.807C297.014 438.378 297.211 438.458 297.357 438.599C297.503 438.74 297.584 438.932 297.584 439.131C297.584 439.331 297.503 439.523 297.357 439.664C297.211 439.805 297.014 439.884 296.807 439.884Z" fill="#CACACA"/>
<path d="M261.851 102.765C261.164 102.766 260.503 102.514 260.001 102.061L247.447 90.7581C246.919 90.2822 246.608 89.6226 246.582 88.9245C246.556 88.2263 246.816 87.5466 247.307 87.0347C247.797 86.5229 248.478 86.2206 249.198 86.1945C249.918 86.1684 250.619 86.4205 251.148 86.8954L261.782 96.4691L282.82 76.0773C283.072 75.831 283.372 75.6354 283.702 75.5017C284.032 75.368 284.387 75.2988 284.745 75.2982C285.103 75.2976 285.457 75.3654 285.788 75.4979C286.119 75.6305 286.42 75.825 286.673 76.0704C286.926 76.3158 287.127 76.6073 287.263 76.928C287.4 77.2487 287.47 77.5925 287.469 77.9395C287.469 78.2865 287.397 78.63 287.259 78.9502C287.121 79.2704 286.919 79.561 286.665 79.8054L263.774 101.993C263.522 102.238 263.222 102.433 262.892 102.565C262.562 102.698 262.208 102.765 261.851 102.765V102.765Z" fill="white"/>
</g>
<defs>
<clipPath id="clip0_150_749">
<rect width="529" height="440" fill="white"/>
</clipPath>
</defs>
</svg>
