<svg width="489" height="357" viewBox="0 0 489 357" fill="none" xmlns="http://www.w3.org/2000/svg">
<g clip-path="url(#clip0_17_111)">
<path d="M386.793 243.074H374.007L373.96 243.014C371.687 240.113 370.664 236.038 371.226 232.114C371.404 230.847 371.744 229.618 372.236 228.459L376.126 219.319L374.581 186.573C374.552 185.966 374.728 185.388 375.075 184.947C375.422 184.505 375.893 184.262 376.399 184.262H378.79C379.773 184.262 380.573 185.186 380.612 186.365L381.652 218.732L387.038 228.838C387.498 229.702 387.868 230.62 388.138 231.569C389.194 235.249 388.807 239.248 387.077 242.538L387.077 242.539L386.793 243.074Z" fill="#3F3D56"/>
<path d="M385.693 240.809C385.572 241.038 385.361 241.177 385.135 241.177H375.402C375.215 241.177 375.033 241.084 374.909 240.914C373.266 238.67 372.542 235.727 372.829 232.859C372.86 232.545 373.054 232.286 373.308 232.206C375.34 231.563 377.792 231.189 380.433 231.189C382.498 231.189 384.448 231.419 386.172 231.825C386.409 231.881 386.604 232.088 386.672 232.365C387.36 235.174 387.035 238.257 385.693 240.809L385.693 240.809Z" fill="#765E82"/>
<path d="M488.335 249.996H0.664587C0.297569 249.996 0 249.638 0 249.197C0 248.756 0.297569 248.398 0.664587 248.398H488.335C488.702 248.398 489 248.756 489 249.197C489 249.638 488.702 249.996 488.335 249.996Z" fill="#3F3D56"/>
<path d="M143.186 101.676C136.04 99.1058 131.351 92.5918 132.713 87.1273C134.075 81.6629 140.972 79.3182 148.12 81.8906C150.988 82.8711 153.618 84.6624 155.791 87.1147L185.956 98.4649L181.221 115.36L151.987 102.377C149.049 102.991 146.031 102.751 143.186 101.676H143.186Z" fill="#A0616A"/>
<path d="M276.997 106.116L277.359 135.96C277.359 135.96 246.137 135.461 235.214 136.499C224.29 137.536 156.201 107.59 156.201 107.59L167.509 88.3217L242.623 110.107L276.997 106.116Z" fill="#D1D1D1"/>
<path d="M145.408 65.5327H140.756V141.394H145.408V65.5327Z" fill="#765E82"/>
<path d="M162.206 249.197H135.296L135.198 249.072C130.413 242.966 128.262 234.39 129.443 226.131C129.819 223.465 130.534 220.877 131.568 218.439L139.755 199.203L136.504 130.286C136.444 129.008 136.813 127.793 137.544 126.864C138.275 125.935 139.265 125.423 140.331 125.423H145.362C147.431 125.423 149.116 127.367 149.196 129.848L151.386 197.967L162.722 219.236C163.69 221.054 164.468 222.987 165.036 224.984C167.258 232.729 166.444 241.144 162.803 248.069L162.802 248.07L162.206 249.197H162.206Z" fill="#3F3D56"/>
<path d="M159.891 244.429C159.635 244.912 159.192 245.204 158.716 245.204H138.233C137.838 245.204 137.455 245.009 137.194 244.652C133.737 239.927 132.213 233.734 132.817 227.699C132.883 227.038 133.29 226.494 133.826 226.324C138.102 224.971 143.263 224.184 148.82 224.184C153.166 224.184 157.27 224.667 160.9 225.524C161.396 225.641 161.807 226.076 161.95 226.66C163.399 232.57 162.715 239.059 159.891 244.429V244.429Z" fill="#765E82"/>
<path d="M257.059 63.9356L261.047 96.6758L229.146 100.668L231.14 58.3458L257.059 63.9356Z" fill="#A0616A"/>
<path d="M226.736 73.6877C238.618 73.6877 248.25 62.1139 248.25 47.837C248.25 33.56 238.618 21.9862 226.736 21.9862C214.853 21.9862 205.221 33.56 205.221 47.837C205.221 62.1139 214.853 73.6877 226.736 73.6877Z" fill="#A0616A"/>
<path d="M159.708 165.126C153.623 158.561 145.791 157.086 142.214 161.829C138.638 166.572 140.673 175.737 146.761 182.302C149.162 184.966 152.074 186.886 155.253 187.902L181.336 215.316L192.097 200.059L165.241 174.654C164.069 170.976 162.171 167.708 159.708 165.126V165.126Z" fill="#A0616A"/>
<path d="M231.14 92.6832L263.705 87.0934L282.978 104.661L284.972 201.285L303.58 355.403L179.967 357C179.967 357 189.272 257.183 193.924 251.593C198.576 246.003 201.899 220.45 201.899 220.45L211.203 110.251L231.14 92.6832Z" fill="#D1D1D1"/>
<path d="M218.846 109.852C218.846 109.852 201.566 108.255 197.579 122.628C193.591 137.002 188.939 184.116 188.939 184.116L178.306 185.713L169.002 173.735L159.033 202.482C159.033 202.482 194.256 248.798 207.548 228.036C220.839 207.274 218.846 109.852 218.846 109.852Z" fill="#D1D1D1"/>
<path d="M269.354 184.116C269.354 184.116 252.075 172.936 254.068 156.167C256.062 139.398 268.689 135.405 260.05 116.24C251.41 97.0751 256.062 74.716 256.062 74.716L253.908 70.7232C253.908 70.7232 236.433 78.7086 230.962 70.7232C225.491 62.7378 228.15 55.551 220.174 53.9539C212.199 52.3568 201.566 36.386 206.883 26.005C212.199 15.624 211.535 9.23564 220.174 7.63856C228.814 6.04147 249.416 -5.13809 252.739 2.84731C256.062 10.8327 267.36 19.6167 265.366 27.6021C263.373 35.5875 263.373 61.1816 263.373 61.1816C263.373 61.1816 291.646 74.716 287.478 87.0933C283.31 99.4707 276 99.4707 282.646 123.427C289.292 147.383 269.354 184.116 269.354 184.116H269.354Z" fill="#2F2E41"/>
<path d="M400.514 245.278C399.164 245.305 397.815 245.12 396.479 244.723C395.236 244.306 394.605 243.714 394.605 242.962L394.606 242.949L396.925 207.915L395.757 201.272C395.588 200.312 395.844 199.263 396.328 198.928C396.429 198.858 396.536 198.823 396.643 198.825L404.325 198.984C404.837 198.995 405.248 199.827 405.243 200.844C405.242 201.035 405.226 201.225 405.196 201.406L404.102 207.914L406.422 242.949C406.422 244.79 402.708 245.278 400.514 245.278H400.514Z" fill="#E6E6E6"/>
<path d="M357.568 245.278C356.218 245.305 354.869 245.12 353.534 244.723C352.291 244.306 351.66 243.714 351.66 242.962L351.661 242.949L353.98 207.915L352.812 201.272C352.643 200.312 352.899 199.263 353.382 198.928C353.484 198.858 353.59 198.823 353.698 198.825L361.38 198.984C361.892 198.995 362.303 199.827 362.298 200.844C362.297 201.035 362.281 201.225 362.25 201.406L361.157 207.914L363.476 242.949C363.477 244.79 359.763 245.278 357.568 245.278Z" fill="#E6E6E6"/>
<path d="M421.422 242.268H409.577V218.408H421.422C422.769 218.403 423.858 217.088 423.854 215.469C423.85 213.858 422.763 212.552 421.422 212.548H338.855C337.508 212.552 336.42 213.868 336.424 215.486C336.428 217.098 337.514 218.403 338.855 218.408H348.958V242.268H338.855C337.508 242.273 336.42 243.589 336.424 245.207C336.428 246.819 337.514 248.124 338.855 248.129H421.422C422.769 248.124 423.858 246.808 423.854 245.19C423.85 243.578 422.764 242.273 421.422 242.268H421.422ZM353.836 242.268L359.406 224.442L404.7 218.408V242.268H353.836V242.268Z" fill="#F2F2F2"/>
</g>
<defs>
<clipPath id="clip0_17_111">
<rect width="489" height="357" fill="white"/>
</clipPath>
</defs>
</svg>
