<svg width="455" height="362" viewBox="0 0 455 362" fill="none" xmlns="http://www.w3.org/2000/svg">
<g clip-path="url(#clip0_17_13)">
<g opacity="0.2">
<path d="M157.505 332.75C157.733 333.863 158.037 334.952 158.413 336.006C164.258 333.28 170.168 330.667 176.142 328.167C176.092 327.872 176.041 327.563 175.978 327.258C175.376 324.117 174.092 321.218 172.252 318.85C169.864 315.854 166.786 314.406 163.792 315.29C160.798 316.173 158.623 319.199 157.631 323.179C156.889 326.302 156.846 329.601 157.505 332.75Z" fill="#3F3D56"/>
<path d="M165.903 326.794C171.035 325.433 173.952 317.722 172.418 309.57C170.885 301.418 165.482 295.912 160.35 297.273C155.219 298.634 152.302 306.346 153.835 314.498C155.369 322.65 160.772 328.155 165.903 326.794Z" fill="#3F3D56"/>
<path d="M162.302 308.811C167.434 307.45 170.351 299.738 168.817 291.586C167.284 283.434 161.881 277.929 156.749 279.29C151.618 280.651 148.701 288.362 150.234 296.514C151.768 304.666 157.171 310.172 162.302 308.811Z" fill="#3F3D56"/>
<path d="M158.694 290.839C163.825 289.478 166.742 281.766 165.209 273.614C163.676 265.462 158.273 259.957 153.141 261.318C148.009 262.679 145.092 270.39 146.626 278.542C148.159 286.694 153.562 292.199 158.694 290.839Z" fill="#3F3D56"/>
<path d="M155.086 272.861C160.217 271.5 163.134 263.789 161.601 255.637C160.067 247.485 154.664 241.98 149.533 243.34C144.401 244.701 141.484 252.413 143.018 260.565C144.551 268.717 149.954 274.222 155.086 272.861Z" fill="#3F3D56"/>
<path d="M162.21 124.798C163.085 122.467 163.824 120.068 164.422 117.618L139.191 119.974L165.49 112.42C166.747 104.567 166.588 96.487 165.024 88.7125C163.652 81.8298 161.193 75.3186 157.778 69.524L126.996 102.204L153.644 63.5223C142.766 49.7313 126.311 43.1704 109.957 48.0437C85.5206 55.2986 70.5459 85.2772 76.5089 115.001C78.8791 127.007 84.5615 137.728 92.6525 145.459C91.2932 149.088 90.26 152.877 89.5701 156.763L125.07 167.319L88.7291 163.579C88.2944 169.604 88.6749 175.672 89.8561 181.554C92.2305 193.559 97.9138 204.279 106.004 212.012C101.752 223.347 100.771 236.032 103.212 248.097C109.175 277.821 133.817 296.031 158.253 288.781C182.69 281.531 197.664 251.553 191.701 221.829C189.327 209.823 183.644 199.104 175.553 191.371C179.805 180.035 180.786 167.351 178.346 155.286C175.982 143.27 170.302 132.539 162.21 124.798Z" fill="#765E82"/>
<path opacity="0.1" d="M89.8645 181.534C92.2389 193.539 97.9222 204.259 106.012 211.992C101.761 223.327 100.779 236.012 103.22 248.077C109.183 277.801 133.825 296.011 158.262 288.761C182.698 281.511 197.673 251.533 191.71 221.809C189.335 209.803 183.652 199.084 175.562 191.351C179.658 180.436 88.6534 175.508 89.8645 181.534Z" fill="black"/>
</g>
<g opacity="0.2">
<path d="M270.914 327.263C270.761 328.563 270.701 329.876 270.734 331.188C278.065 331.327 285.424 331.62 292.811 332.066C292.861 331.722 292.912 331.372 292.954 331.018C293.43 327.357 293.074 323.611 291.923 320.168C290.401 315.764 287.563 312.613 284.009 312.004C280.456 311.395 276.991 313.472 274.489 317.177C272.562 320.101 271.328 323.583 270.914 327.263Z" fill="#3F3D56"/>
<path d="M295.505 310.099C296.65 300.638 292.644 292.127 286.557 291.088C280.469 290.049 274.606 296.876 273.461 306.337C272.315 315.797 276.322 324.309 282.409 325.348C288.496 326.387 294.359 319.56 295.505 310.099Z" fill="#3F3D56"/>
<path d="M298.038 289.161C299.184 279.7 295.177 271.188 289.09 270.15C283.003 269.111 277.14 275.938 275.994 285.398C274.849 294.859 278.855 303.371 284.942 304.41C291.03 305.449 296.893 298.621 298.038 289.161Z" fill="#3F3D56"/>
<path d="M300.571 268.227C301.717 258.767 297.71 250.255 291.623 249.216C285.536 248.177 279.673 255.004 278.527 264.465C277.382 273.925 281.388 282.437 287.475 283.476C293.563 284.515 299.426 277.688 300.571 268.227Z" fill="#3F3D56"/>
<path d="M303.109 247.29C304.254 237.829 300.248 229.317 294.161 228.278C288.073 227.239 282.21 234.067 281.065 243.527C279.919 252.988 283.926 261.499 290.013 262.538C296.1 263.577 301.963 256.75 303.109 247.29Z" fill="#3F3D56"/>
<path d="M350.67 109.159C352.452 107.136 354.113 104.967 355.64 102.668L327.369 92.1228L358.651 97.74C362.594 90.4908 365.25 82.3628 366.456 73.8531C367.663 65.3435 367.395 56.631 365.669 48.2484L320.523 66.9426L363.365 39.7302C360.636 31.6618 356.538 24.347 351.324 18.2415C346.111 12.1361 339.894 7.37076 333.062 4.24243C326.23 1.1141 318.928 -0.31021 311.612 0.0582297C304.296 0.42667 297.122 2.57997 290.538 6.38398C283.953 10.188 278.099 15.5612 273.34 22.1689C268.58 28.7766 265.018 36.4772 262.874 44.7909C260.731 53.1047 260.052 61.8535 260.88 70.4923C261.709 79.1312 264.026 87.4749 267.689 95.0038C264.919 98.1462 262.442 101.633 260.3 105.404L295.081 135.004L256.936 112.195C252.924 121.592 250.947 132.028 251.187 142.56C251.426 153.091 253.873 163.386 258.307 172.512C251.063 180.712 245.909 191.167 243.434 202.681C240.959 214.195 241.262 226.304 244.309 237.624C247.357 248.943 253.025 259.016 260.667 266.69C268.308 274.364 277.614 279.331 287.521 281.021C297.427 282.712 307.534 281.058 316.687 276.25C325.839 271.441 333.667 263.672 339.276 253.829C344.884 243.987 348.048 232.47 348.403 220.594C348.759 208.718 346.293 196.963 341.288 186.672C349.945 176.872 355.576 163.901 357.278 149.844C358.979 135.786 356.652 121.457 350.67 109.159Z" fill="#765E82"/>
<path opacity="0.1" d="M251.701 131.828C249.981 145.886 252.309 160.221 258.307 172.512C251.063 180.712 245.909 191.167 243.434 202.681C240.959 214.196 241.262 226.305 244.309 237.624C247.357 248.943 253.025 259.016 260.667 266.69C268.308 274.364 277.614 279.331 287.521 281.021C297.427 282.712 307.534 281.058 316.687 276.25C325.839 271.441 333.667 263.672 339.276 253.83C344.884 243.988 348.048 232.47 348.403 220.594C348.759 208.718 346.293 196.963 341.288 186.672C349.656 177.21 252.554 124.793 251.701 131.828Z" fill="black"/>
</g>
<path opacity="0.1" d="M227.5 362C353.145 362 455 355.07 455 346.521C455 337.973 353.145 331.043 227.5 331.043C101.855 331.043 0 337.973 0 346.521C0 355.07 101.855 362 227.5 362Z" fill="#765E82"/>
<path d="M376.237 340.285C382.113 340.285 386.876 339.196 386.876 337.853C386.876 336.51 382.113 335.422 376.237 335.422C370.361 335.422 365.598 336.51 365.598 337.853C365.598 339.196 370.361 340.285 376.237 340.285Z" fill="#765E82"/>
<path d="M376.06 338.752C376.745 338.752 377.301 337.889 377.301 336.825C377.301 335.76 376.745 334.897 376.06 334.897C375.375 334.897 374.82 335.76 374.82 336.825C374.82 337.889 375.375 338.752 376.06 338.752Z" fill="#3F3D56"/>
<path d="M376.06 336.395C376.745 336.395 377.301 335.533 377.301 334.468C377.301 333.404 376.745 332.541 376.06 332.541C375.375 332.541 374.82 333.404 374.82 334.468C374.82 335.533 375.375 336.395 376.06 336.395Z" fill="#3F3D56"/>
<path d="M376.06 334.044C376.745 334.044 377.301 333.181 377.301 332.116C377.301 331.052 376.745 330.189 376.06 330.189C375.375 330.189 374.82 331.052 374.82 332.116C374.82 333.181 375.375 334.044 376.06 334.044Z" fill="#3F3D56"/>
<path d="M376.06 331.692C376.745 331.692 377.301 330.829 377.301 329.764C377.301 328.7 376.745 327.837 376.06 327.837C375.375 327.837 374.82 328.7 374.82 329.764C374.82 330.829 375.375 331.692 376.06 331.692Z" fill="#3F3D56"/>
<path d="M376.06 329.335C376.745 329.335 377.301 328.472 377.301 327.408C377.301 326.343 376.745 325.48 376.06 325.48C375.375 325.48 374.82 326.343 374.82 327.408C374.82 328.472 375.375 329.335 376.06 329.335Z" fill="#3F3D56"/>
<path d="M376.06 326.983C376.745 326.983 377.301 326.12 377.301 325.056C377.301 323.992 376.745 323.129 376.06 323.129C375.375 323.129 374.82 323.992 374.82 325.056C374.82 326.12 375.375 326.983 376.06 326.983Z" fill="#3F3D56"/>
<path d="M376.06 324.632C376.745 324.632 377.301 323.769 377.301 322.704C377.301 321.64 376.745 320.777 376.06 320.777C375.375 320.777 374.82 321.64 374.82 322.704C374.82 323.769 375.375 324.632 376.06 324.632Z" fill="#3F3D56"/>
<path d="M380.695 306.601C380.865 306.345 381.019 306.075 381.157 305.793L377.902 305.158L381.422 305.188C381.759 304.316 381.943 303.371 381.963 302.411C381.982 301.451 381.837 300.497 381.536 299.606L376.813 302.517L381.17 298.712C380.763 297.87 380.215 297.137 379.559 296.558C378.902 295.98 378.153 295.568 377.356 295.35C376.56 295.131 375.734 295.11 374.931 295.287C374.127 295.465 373.363 295.838 372.687 296.383C372.01 296.927 371.436 297.632 370.999 298.452C370.562 299.272 370.273 300.191 370.149 301.15C370.025 302.109 370.07 303.089 370.279 304.027C370.489 304.965 370.859 305.841 371.367 306.601C371.104 307 370.877 307.43 370.69 307.885L374.896 310.491L370.392 308.694C370.076 309.806 370 310.995 370.171 312.151C370.341 313.308 370.752 314.395 371.367 315.314C370.679 316.354 370.251 317.602 370.132 318.916C370.012 320.231 370.207 321.559 370.694 322.748C371.18 323.938 371.939 324.94 372.883 325.642C373.826 326.344 374.917 326.716 376.031 326.716C377.145 326.716 378.236 326.344 379.179 325.642C380.123 324.94 380.882 323.938 381.368 322.748C381.855 321.559 382.05 320.231 381.93 318.916C381.811 317.602 381.383 316.354 380.695 315.314C381.517 314.073 381.964 312.54 381.964 310.96C381.964 309.381 381.517 307.848 380.695 306.606V306.601Z" fill="#765E82"/>
<path opacity="0.1" d="M370.097 310.955C370.093 312.534 370.538 314.068 371.359 315.309C370.67 316.349 370.242 317.597 370.123 318.912C370.004 320.226 370.199 321.554 370.685 322.743C371.172 323.933 371.93 324.935 372.874 325.637C373.818 326.339 374.909 326.711 376.022 326.711C377.136 326.711 378.227 326.339 379.171 325.637C380.115 324.935 380.873 323.933 381.36 322.743C381.846 321.554 382.041 320.226 381.922 318.912C381.803 317.597 381.374 316.349 380.686 315.309C381.489 314.111 370.097 310.167 370.097 310.955Z" fill="black"/>
<path d="M131.916 359.843C139.766 359.843 146.13 358.39 146.13 356.598C146.13 354.805 139.766 353.352 131.916 353.352C124.066 353.352 117.703 354.805 117.703 356.598C117.703 358.39 124.066 359.843 131.916 359.843Z" fill="#765E82"/>
<path d="M131.677 357.791C132.592 357.791 133.333 356.64 133.333 355.219C133.333 353.799 132.592 352.648 131.677 352.648C130.762 352.648 130.02 353.799 130.02 355.219C130.02 356.64 130.762 357.791 131.677 357.791Z" fill="#3F3D56"/>
<path d="M131.677 354.645C132.592 354.645 133.333 353.494 133.333 352.074C133.333 350.653 132.592 349.502 131.677 349.502C130.762 349.502 130.02 350.653 130.02 352.074C130.02 353.494 130.762 354.645 131.677 354.645Z" fill="#3F3D56"/>
<path d="M131.677 351.5C132.592 351.5 133.333 350.348 133.333 348.928C133.333 347.508 132.592 346.357 131.677 346.357C130.762 346.357 130.02 347.508 130.02 348.928C130.02 350.348 130.762 351.5 131.677 351.5Z" fill="#3F3D56"/>
<path d="M131.677 348.359C132.592 348.359 133.333 347.207 133.333 345.787C133.333 344.367 132.592 343.216 131.677 343.216C130.762 343.216 130.02 344.367 130.02 345.787C130.02 347.207 130.762 348.359 131.677 348.359Z" fill="#3F3D56"/>
<path d="M131.677 345.213C132.592 345.213 133.333 344.062 133.333 342.642C133.333 341.222 132.592 340.07 131.677 340.07C130.762 340.07 130.02 341.222 130.02 342.642C130.02 344.062 130.762 345.213 131.677 345.213Z" fill="#3F3D56"/>
<path d="M131.677 342.067C132.592 342.067 133.333 340.916 133.333 339.496C133.333 338.076 132.592 336.925 131.677 336.925C130.762 336.925 130.02 338.076 130.02 339.496C130.02 340.916 130.762 342.067 131.677 342.067Z" fill="#3F3D56"/>
<path d="M131.677 338.927C132.592 338.927 133.333 337.776 133.333 336.355C133.333 334.935 132.592 333.784 131.677 333.784C130.762 333.784 130.02 334.935 130.02 336.355C130.02 337.776 130.762 338.927 131.677 338.927Z" fill="#3F3D56"/>
<path d="M137.875 314.84C138.099 314.497 138.304 314.137 138.489 313.762L134.145 312.913L138.847 312.958C139.299 311.792 139.546 310.529 139.572 309.246C139.598 307.964 139.403 306.688 138.998 305.498L132.69 309.383L138.506 304.33C137.958 303.216 137.224 302.249 136.349 301.486C135.473 300.724 134.475 300.183 133.417 299.897C132.358 299.612 131.261 299.587 130.194 299.826C129.127 300.064 128.113 300.56 127.214 301.284C126.315 302.007 125.551 302.941 124.969 304.03C124.387 305.118 123.999 306.336 123.83 307.61C123.661 308.883 123.714 310.184 123.986 311.432C124.258 312.68 124.743 313.849 125.411 314.865C125.06 315.398 124.757 315.974 124.507 316.583L130.154 320.078L124.133 317.681C123.709 319.163 123.602 320.747 123.823 322.289C124.043 323.832 124.583 325.286 125.394 326.519C124.475 327.907 123.903 329.575 123.745 331.331C123.586 333.087 123.847 334.86 124.497 336.449C125.147 338.037 126.16 339.377 127.421 340.313C128.682 341.25 130.139 341.747 131.626 341.747C133.114 341.747 134.571 341.25 135.832 340.313C137.092 339.377 138.106 338.037 138.756 336.449C139.406 334.86 139.666 333.087 139.508 331.331C139.349 329.575 138.777 327.907 137.858 326.519C138.956 324.859 139.553 322.81 139.553 320.7C139.553 318.589 138.956 316.54 137.858 314.88L137.875 314.84Z" fill="#765E82"/>
<path opacity="0.1" d="M123.716 320.657C123.711 322.767 124.303 324.817 125.398 326.479C124.479 327.867 123.908 329.535 123.749 331.291C123.59 333.047 123.851 334.82 124.501 336.409C125.151 337.997 126.164 339.337 127.425 340.273C128.686 341.21 130.143 341.707 131.63 341.707C133.118 341.707 134.575 341.21 135.836 340.273C137.097 339.337 138.11 337.997 138.76 336.409C139.41 334.82 139.671 333.047 139.512 331.291C139.353 329.535 138.782 327.867 137.862 326.479C138.935 324.876 123.716 319.604 123.716 320.657Z" fill="black"/>
<path d="M206.752 213.67C205.679 207.009 204.481 200.333 204.283 193.558C204.166 189.563 204.401 185.499 203.968 181.514C203.753 179.557 203.379 177.635 203.009 175.712L201.521 168.018C201.689 166.543 201.641 165.044 201.378 163.589C201.228 162.822 201.03 162.069 200.785 161.337C202.174 159.015 203.32 156.5 204.195 153.848C204.59 152.649 204.931 151.376 204.775 150.108C204.473 147.676 202.488 146.073 200.642 144.875C199.523 144.151 198.346 143.452 197.067 143.337C196.173 143.294 195.283 143.497 194.466 143.93C193.649 144.363 192.927 145.015 192.357 145.834C192.047 143.865 192.151 141.836 192.66 139.927C191.563 139.343 190.457 138.793 189.342 138.259C189.181 136.534 189.125 134.796 189.174 133.061C189.199 130.979 189.229 128.877 189.33 126.79C192.32 125.494 194.905 123.143 196.738 120.052C198.571 116.961 199.563 113.279 199.582 109.499C199.582 109.284 199.582 109.074 199.582 108.865C200.397 107.125 200.913 105.21 201.099 103.232C201.285 101.254 201.138 99.251 200.667 97.3406C199.435 92.3475 196.214 88.2332 192.332 85.6917C188.451 83.1502 183.951 82.0767 179.498 81.8869C178.003 81.7831 176.504 81.8954 175.032 82.2215C173.457 82.6817 171.931 83.3517 170.482 84.2187C168.258 85.437 166.016 86.7702 164.351 88.8723C161.462 92.5322 160.814 97.9098 161.13 102.853C161.55 109.344 163.375 115.625 165.486 121.667C166.189 123.664 166.937 125.691 168.094 127.394C168.989 128.707 170.545 128.787 171.782 127.868C171.683 129.463 171.652 131.063 171.689 132.662C169.406 132.567 167.181 133.011 165.348 134.539C164.507 135.253 163.708 136.377 163.893 137.585C164.454 137.603 164.993 137.855 165.413 138.298C165.833 138.742 166.108 139.347 166.189 140.007C166.281 141.07 165.831 142.084 165.394 143.003C165.205 143.412 165.015 143.826 164.822 144.236C163.014 146.533 161.159 149.409 160.995 152.26C160.7 152.293 160.407 152.345 160.116 152.415C158.476 152.774 156.845 153.438 155.234 153.937L143.577 157.582L140.697 158.531L136.071 159.979C133.128 160.898 130.129 161.841 127.518 163.689C124.906 165.536 122.69 168.437 122.165 171.933C121.904 173.67 122.064 175.478 121.744 177.2C121.744 177.28 121.719 177.355 121.702 177.43C121.435 178.52 121.076 179.576 120.63 180.581C118.018 187.117 116.16 194.242 116.509 201.437C116.723 205.856 117.77 210.165 118.788 214.419C119.856 218.77 120.91 223.12 121.95 227.471C122.636 230.585 123.506 233.639 124.553 236.608C126.347 241.365 129.009 245.589 132.345 248.976C133.282 249.973 134.329 250.813 135.457 251.473C137.178 252.356 139.056 252.718 140.924 252.526C141.429 252.486 141.925 252.421 142.417 252.327C146.029 251.647 149.397 249.58 152.488 247.254C153.781 246.282 155.042 245.258 156.273 244.183C156.429 245.86 156.711 247.518 157.114 249.136C157.387 250.249 157.724 251.393 157.614 252.546C157.463 254.154 156.479 255.472 155.97 256.98C154.889 260.166 155.999 263.716 156.18 267.131C156.353 270.332 155.697 273.507 155.171 276.658C154.293 281.912 153.774 287.242 153.619 292.596C153.615 294.623 153.502 296.647 153.283 298.658C152.892 301.494 151.975 304.23 151.815 307.096C151.571 311.56 153.195 315.929 153.047 320.398C152.875 325.645 150.28 330.743 151.185 335.876C151.298 336.52 151.605 337.264 152.101 337.429L151.857 337.694C151.113 338.512 150.39 340.025 151.235 340.689C151.429 340.827 151.646 340.915 151.87 340.949C153.178 341.274 154.494 341.568 155.81 341.843C155.781 343.286 155.934 344.727 156.264 346.117C156.504 346.322 156.748 346.506 156.992 346.681C156.807 347.27 156.819 347.84 157.257 348.179C157.451 348.316 157.667 348.405 157.892 348.439C168.724 351.093 179.787 352.182 190.839 351.684C192.816 351.594 194.881 351.425 196.567 350.226C198.253 349.028 199.393 346.477 198.59 344.374C197.879 342.517 196.02 341.713 194.351 341.094L192.391 340.375C192.642 339.846 192.789 339.257 192.819 338.652C192.85 338.046 192.764 337.44 192.568 336.88C191.857 335.022 189.998 334.218 188.329 333.599L183.817 331.937C183.223 331.769 182.665 331.458 182.177 331.023C181.854 330.641 181.555 330.23 181.285 329.795C180.634 328.911 179.779 328.273 178.825 327.962C178.774 326.827 178.796 325.688 178.888 324.557L180.15 306.477C180.432 302.382 180.709 298.208 179.906 294.209C179.582 292.586 179.065 290.923 179.38 289.295C179.872 286.639 182.227 285.161 183.834 283.189C186.256 280.193 187.008 275.934 187.564 271.88C189.862 255.148 190.584 238.165 189.717 221.244C194.765 219.555 199.96 218.563 205.2 218.289C206.092 218.244 206.529 217.744 206.806 216.756C207.084 215.767 206.916 214.693 206.752 213.67ZM181.584 214.554C181.613 214.379 181.647 214.204 181.672 214.029L182.021 214.559L181.584 214.554Z" fill="url(#paint0_linear_17_13)"/>
<path d="M173.383 122.905C173.274 124.643 172.757 126.31 172.568 128.043C172.353 129.95 172.542 131.893 172.437 133.815C172.332 135.737 171.865 137.76 170.633 139.013C177.795 139.749 184.848 141.561 191.626 144.405C189.578 141.41 189.523 137.225 189.573 133.381C189.641 127.694 189.725 121.897 191.289 116.529C186.623 115.291 181.792 115.216 177.101 116.309C176.083 116.549 173.001 116.399 172.542 117.528C172.21 118.356 173.459 121.647 173.383 122.905Z" fill="#A1616A"/>
<path opacity="0.1" d="M173.383 122.905C173.274 124.643 172.757 126.31 172.568 128.043C172.353 129.95 172.542 131.893 172.437 133.815C172.332 135.737 171.865 137.76 170.633 139.013C177.795 139.749 184.848 141.561 191.626 144.405C189.578 141.41 189.523 137.225 189.573 133.381C189.641 127.694 189.725 121.897 191.289 116.529C186.623 115.291 181.792 115.216 177.101 116.309C176.083 116.549 173.001 116.399 172.542 117.528C172.21 118.356 173.459 121.647 173.383 122.905Z" fill="black"/>
<path d="M181.861 329.819C182.114 330.262 182.395 330.681 182.702 331.073C183.176 331.509 183.722 331.82 184.304 331.986L188.711 333.649C190.347 334.268 192.164 335.067 192.858 336.925C193.64 339.022 192.526 341.573 190.877 342.767C189.229 343.96 187.21 344.135 185.28 344.225C174.473 344.719 163.656 343.631 153.073 340.984C152.854 340.946 152.644 340.858 152.454 340.724C151.613 340.05 152.332 338.542 153.06 337.729C155.898 334.533 158.985 331.183 162.85 330.444C164.881 330.049 166.92 330.209 168.939 329.635C170.389 329.22 171.76 328.506 173.207 328.082C175.902 327.298 179.935 327.018 181.861 329.819Z" fill="#46455B"/>
<path opacity="0.1" d="M181.861 329.819C182.114 330.262 182.395 330.681 182.702 331.073C183.176 331.509 183.722 331.82 184.304 331.986L188.711 333.649C190.347 334.268 192.164 335.067 192.858 336.925C193.64 339.022 192.526 341.573 190.877 342.767C189.229 343.96 187.21 344.135 185.28 344.225C174.473 344.719 163.656 343.631 153.073 340.984C152.854 340.946 152.644 340.858 152.454 340.724C151.613 340.05 152.332 338.542 153.06 337.729C155.898 334.533 158.985 331.183 162.85 330.444C164.881 330.049 166.92 330.209 168.939 329.635C170.389 329.22 171.76 328.506 173.207 328.082C175.902 327.298 179.935 327.018 181.861 329.819Z" fill="black"/>
<path d="M159.734 216.885C157.559 223.699 157.425 231.194 159.355 238.111C157.888 237.921 157.253 240.278 157.29 242.036C157.343 244.483 157.655 246.912 158.22 249.266C158.489 250.384 158.817 251.523 158.712 252.671C158.56 254.279 157.602 255.597 157.101 257.1C156.05 260.281 157.131 263.826 157.312 267.236C157.48 270.437 156.836 273.607 156.319 276.753C155.462 282.002 154.956 287.322 154.805 292.666C154.802 294.691 154.691 296.714 154.473 298.722C154.095 301.559 153.211 304.29 153.043 307.151C152.804 311.605 154.389 315.974 154.246 320.437C154.078 325.675 151.538 330.768 152.425 335.916C152.551 336.64 152.892 337.494 153.518 337.504C159.86 337.599 165.785 335.507 172.059 336.6C172.698 319.364 173.321 302.048 176.18 285.126C178.703 270.062 182.98 255.168 182.58 239.809C182.349 231.026 180.591 222.413 179.523 213.715C172.819 211.947 165.804 213.071 159.734 216.885Z" fill="#BBBDC8"/>
<path opacity="0.1" d="M159.734 216.885C157.559 223.699 157.425 231.194 159.355 238.111C157.888 237.921 157.253 240.278 157.29 242.036C157.343 244.483 157.655 246.912 158.22 249.266C158.489 250.384 158.817 251.523 158.712 252.671C158.56 254.279 157.602 255.597 157.101 257.1C156.05 260.281 157.131 263.826 157.312 267.236C157.48 270.437 156.836 273.607 156.319 276.753C155.462 282.002 154.956 287.322 154.805 292.666C154.802 294.691 154.691 296.714 154.473 298.722C154.095 301.559 153.211 304.29 153.043 307.151C152.804 311.605 154.389 315.974 154.246 320.437C154.078 325.675 151.538 330.768 152.425 335.916C152.551 336.64 152.892 337.494 153.518 337.504C159.86 337.599 165.785 335.507 172.059 336.6C172.698 319.364 173.321 302.048 176.18 285.126C178.703 270.062 182.98 255.168 182.58 239.809C182.349 231.026 180.591 222.413 179.523 213.715C172.819 211.947 165.804 213.071 159.734 216.885Z" fill="black"/>
<path d="M187.748 337.309C188.001 337.752 188.282 338.171 188.589 338.562C189.063 338.998 189.609 339.31 190.192 339.476L194.599 341.139C196.234 341.758 198.051 342.557 198.745 344.414C199.527 346.511 198.413 349.063 196.764 350.256C195.116 351.45 193.097 351.624 191.167 351.714C180.36 352.209 169.543 351.12 158.96 348.474C158.741 348.436 158.531 348.348 158.342 348.214C157.501 347.54 158.22 346.032 158.947 345.218C161.786 342.023 164.872 338.672 168.737 337.933C170.768 337.539 172.807 337.699 174.826 337.124C176.277 336.71 177.648 335.996 179.094 335.572C181.79 334.788 185.822 334.508 187.748 337.309Z" fill="#46455B"/>
<path d="M161.92 217.38C160.297 219.876 159.818 223.172 160.036 226.298C160.255 229.423 161.142 232.424 162.013 235.385C160.856 236.648 161.096 238.825 161.247 240.683C161.798 247.583 159.78 254.469 160.074 261.389C160.196 264.3 160.73 267.171 160.856 270.082C160.995 273.263 160.654 276.443 160.335 279.604C158.293 299.838 157.17 320.188 156.971 340.565C156.971 342.442 156.945 344.349 157.391 346.147C160.448 348.818 164.288 349.178 167.988 348.179C171.689 347.181 175.066 344.954 178.383 342.757C180.201 341.64 181.925 340.319 183.531 338.812C184.022 338.399 184.385 337.806 184.565 337.124C184.918 335.127 182.58 334.223 181.239 332.93C179.288 331.048 179.317 327.563 179.519 324.587L180.738 306.532C181.016 302.442 181.285 298.273 180.503 294.279C180.183 292.661 179.691 290.998 179.986 289.37C180.465 286.724 182.769 285.246 184.338 283.274C186.71 280.278 187.441 276.029 187.988 271.984C190.565 252.797 191.113 233.303 189.62 213.955C186.529 215.228 182.866 214.534 179.607 214.833C176.348 215.133 173.11 216.426 169.809 216.531C167.059 216.606 163.611 214.803 161.92 217.38Z" fill="#BBBDC8"/>
<path d="M184.187 128.323C192.78 128.323 199.746 120.051 199.746 109.848C199.746 99.6451 192.78 91.3738 184.187 91.3738C175.594 91.3738 168.627 99.6451 168.627 109.848C168.627 120.051 175.594 128.323 184.187 128.323Z" fill="#A1616A"/>
<path d="M192.98 140.236C187.994 137.517 182.795 135.387 177.458 133.875C173.699 132.812 169.406 132.172 166.264 134.844C165.423 135.558 164.662 136.681 164.843 137.89C165.397 137.911 165.927 138.166 166.338 138.609C166.748 139.052 167.013 139.653 167.084 140.306C167.177 141.365 166.739 142.378 166.311 143.302L162.681 151.291C161.986 152.73 161.389 154.233 160.894 155.785C160.163 158.321 160.003 161.038 159.847 163.714L159.427 170.964C159.166 175.533 158.901 180.121 159.25 184.68C159.511 188.12 160.116 191.575 159.704 194.996C159.372 197.747 158.392 200.328 157.841 203.035C156.807 208.127 157.278 213.71 155.272 218.383C156.087 217.937 157.006 217.838 157.875 218.104C163.964 219.437 168.754 225.144 174.666 227.326C176.159 224.74 178.182 222.832 179.851 220.426C181.093 218.621 181.915 216.463 182.236 214.164C183.497 216.161 184.569 217.719 185.322 220.036C185.456 220.575 185.686 221.074 185.995 221.499C186.79 222.418 188.098 222.063 189.161 221.679C194.377 219.811 199.77 218.725 205.213 218.448C206.087 218.403 206.512 217.904 206.785 216.915C207.059 215.927 206.907 214.858 206.743 213.84C205.696 207.184 204.527 200.518 204.334 193.752C204.216 189.758 204.447 185.708 204.023 181.724C203.812 179.772 203.446 177.849 203.085 175.932L200.082 160.089C199.914 159.205 199.115 158.626 198.775 157.812C197.395 154.497 194.759 152.1 193.396 148.774C192.367 146.089 192.218 143.045 192.98 140.236Z" fill="#46455B"/>
<path d="M171.151 117.243C171.133 116.984 171.184 116.726 171.298 116.504C171.464 116.297 171.673 116.144 171.903 116.06C172.53 115.706 173.043 115.12 173.364 114.389C173.685 113.658 173.797 112.823 173.682 112.01L175.154 111.646L175.2 105.559C177.387 104.121 180.368 105.21 182.425 103.517C183.581 102.558 184.174 100.931 184.881 99.4826C185.587 98.0346 186.638 96.5766 188.043 96.4567C187.56 97.9155 187.353 99.4825 187.436 101.047C187.52 102.611 187.892 104.135 188.527 105.509C189.999 104.624 191.229 103.26 192.071 101.575L192.803 106.568C192.818 106.876 192.929 107.166 193.114 107.382C193.497 107.716 194.014 107.297 194.351 106.882L196.256 104.66C197.057 107.049 197.607 109.546 197.891 112.095C201.02 108.49 201.991 102.698 200.789 97.725C199.586 92.7519 196.436 88.6326 192.643 86.0911C188.85 83.5496 184.452 82.481 180.099 82.2913C178.638 82.1898 177.172 82.3021 175.734 82.6258C174.192 83.0866 172.699 83.7568 171.285 84.6231C169.111 85.8364 166.916 87.1696 165.293 89.2667C162.467 92.9216 161.832 98.2942 162.143 103.247C162.564 109.738 164.338 116.005 166.403 122.036C167.089 124.034 167.82 126.056 168.951 127.758C170.655 130.32 174.839 128.193 174.305 123.13C173.935 119.515 171.151 120.908 171.151 117.243Z" fill="#3F3D56"/>
<path d="M177.038 216.151C171.79 228.883 163.731 239.686 153.72 247.408C150.697 249.73 147.412 251.797 143.876 252.476C143.392 252.571 142.909 252.636 142.417 252.676C140.593 252.855 138.761 252.486 137.089 251.602C135.982 250.941 134.957 250.101 134.044 249.106C130.772 245.705 128.171 241.489 126.429 236.758C125.404 233.789 124.554 230.739 123.884 227.631C122.853 223.283 121.824 218.934 120.798 214.584C119.793 210.329 118.779 206.025 118.569 201.602C118.229 194.416 120.045 187.301 122.598 180.775C123.033 179.77 123.384 178.717 123.645 177.63C123.645 177.555 123.674 177.48 123.687 177.4C123.99 175.677 123.834 173.875 124.107 172.137C124.62 168.642 126.79 165.746 129.339 163.904C131.887 162.061 134.805 161.117 137.703 160.199L142.215 158.756L145.015 157.862L156.407 154.222C157.984 153.723 159.578 153.059 161.18 152.724C162.967 152.325 162.955 152.534 163.094 154.611C163.35 158.376 163.266 162.076 163.935 165.806C164.57 169.366 165.688 172.796 166.529 176.291C168.653 185.114 169.006 194.401 170.68 203.364C171.062 205.406 171.592 207.583 172.976 208.857C174.561 210.354 177.231 210.724 177.652 213.071C177.807 214.114 177.416 215.183 177.038 216.151Z" fill="#765E82"/>
<path opacity="0.1" d="M143.876 252.456C143.392 252.551 142.909 252.616 142.417 252.656C140.594 252.842 138.762 252.479 137.089 251.602C135.982 250.941 134.957 250.101 134.044 249.106C130.772 245.705 128.171 241.489 126.429 236.758C125.404 233.789 124.554 230.739 123.884 227.631C122.853 223.283 121.824 218.934 120.798 214.584C119.793 210.329 118.779 206.025 118.569 201.601C118.229 194.416 120.045 187.301 122.598 180.775C123.033 179.77 123.384 178.716 123.645 177.63C123.645 177.555 123.674 177.48 123.687 177.4C130.55 178.833 138.783 194.421 143.031 214.848C146.159 230.122 146.294 244.188 143.876 252.456Z" fill="black"/>
<path opacity="0.1" d="M156.281 198.711L155.133 198.945C153.952 195.26 152.774 191.57 151.391 187.985C150.672 186.113 149.894 184.266 149.288 182.333C147.017 174.913 147.404 166.111 143.195 159.999C142.894 159.545 142.551 159.133 142.173 158.771L144.974 157.877C147.426 162.481 149.156 167.575 150.079 172.911C150.533 175.518 150.789 178.184 151.529 180.69C152.159 182.592 152.879 184.449 153.687 186.253C155.285 190.142 156.487 194.392 156.281 198.711Z" fill="black"/>
<path d="M167.459 142.453C170.482 139.377 174.607 137.69 178.522 138.459C180.827 138.903 182.967 140.136 185.032 141.455C189.056 143.991 193.022 146.912 195.923 151.081C197.663 153.711 199.108 156.598 200.221 159.669C200.767 161.012 201.19 162.419 201.483 163.869C202.509 169.511 199.99 175.118 197.563 180.121L192.896 189.738C190.751 194.157 188.59 198.606 185.797 202.485C184.511 204.273 183.098 205.926 181.689 207.578L175.503 214.828C175.392 214.984 175.246 215.1 175.083 215.163C174.948 215.171 174.813 215.145 174.687 215.086C174.561 215.026 174.448 214.935 174.355 214.818L172.311 212.886C174.194 211.342 175.943 209.581 177.534 207.628C180.209 204.343 182.408 200.563 184.595 196.798L191.399 185.084C193.388 181.654 195.465 177.879 195.242 173.725C195.137 171.728 194.506 169.85 193.846 168.018C192.677 164.759 191.407 161.552 190.036 158.396C188.497 154.856 186.815 151.361 184.599 148.37C182.383 145.379 179.582 142.878 176.357 141.794C175.395 141.421 174.375 141.305 173.371 141.455C171.159 141.889 169.586 144.146 168.186 146.243L163.922 152.734C162.951 154.207 162.059 155.915 162 153.119C161.899 149.129 165.297 145.02 167.459 142.453Z" fill="#765E82"/>
<path d="M168.779 186.243C169.62 190.087 170.86 194.451 173.977 195.909C176.184 196.943 178.77 196.104 180.68 194.411C182.589 192.719 183.943 190.332 185.188 187.92C186.241 185.753 187.402 183.662 188.665 181.659C191.159 177.944 194.552 174.998 196.235 170.674C196.731 169.386 197.076 168.008 197.639 166.77C198.241 165.628 198.922 164.547 199.674 163.539C201.61 160.691 203.159 157.5 204.262 154.082C204.649 152.889 204.981 151.611 204.83 150.347C204.531 147.916 202.593 146.318 200.789 145.125C199.691 144.401 198.543 143.697 197.294 143.587C195.469 143.417 193.674 144.585 192.551 146.298C191.47 148.069 190.866 150.188 190.818 152.375C190.692 155.036 191.129 157.802 190.398 160.319C190.011 161.493 189.476 162.59 188.812 163.574C186.45 167.326 183.527 170.53 180.188 173.026C180.096 171.137 179.751 169.278 179.166 167.519C178.846 166.55 172.58 167.519 171.765 167.678C170.15 167.958 167.021 168.178 166.004 170.005C164.986 171.833 166.247 174.903 166.66 176.746L168.779 186.243Z" fill="#A1616A"/>
<path d="M168.628 144.286C167.697 145.199 166.83 146.201 166.037 147.282C164.17 149.953 163.258 153.428 163.022 156.888C162.787 160.349 163.186 163.824 163.686 167.244C164.141 170.313 164.677 173.361 165.297 176.386C165.469 174.105 167.025 172.217 168.829 171.393C170.633 170.569 172.614 170.659 174.536 170.994C177.009 171.429 179.422 172.257 181.71 173.455L182.597 158.691C182.784 156.699 182.774 154.688 182.568 152.699C182.288 150.853 181.681 149.099 180.786 147.554C179.891 146.009 178.73 144.707 177.378 143.736C174.006 141.3 171.655 141.145 168.628 144.286Z" fill="#46455B"/>
<path d="M327.491 216.131C327.092 212.125 326.11 208.231 324.589 204.622C323.66 202.425 322.529 200.323 321.944 197.972C321.469 196.059 321.376 194.047 320.998 192.105C320.619 190.162 319.951 188.305 319.413 186.408C315.607 172.926 318.466 158.177 317.239 144.046C316.78 138.833 315.434 133.116 311.629 130.4C309.366 128.787 306.65 128.537 303.988 128.403L302.773 128.338L300.821 128.223C297.996 128.058 295.161 127.933 292.411 128.637C289.047 129.511 285.06 132.322 284.001 136.402C283.42 136.047 282.836 135.733 282.298 135.438C280.132 134.297 277.861 133.459 275.532 132.941C277.53 132.344 279.459 131.458 281.276 130.305C285.481 127.399 286.457 118.911 287.314 113.234C288.172 107.556 287.39 101.69 285.965 96.1722C285.494 94.2144 284.852 92.3201 284.051 90.52C282.944 88.1489 281.438 86.0744 279.625 84.4259C277.813 82.7774 275.733 81.5904 273.517 80.9391C271.301 80.2878 268.995 80.1861 266.744 80.6404C264.493 81.0947 262.346 82.0953 260.435 83.5796C256.512 86.6303 252.866 91.0692 249.872 95.3583C249.451 95.9475 247.693 98.0346 248.278 98.9134C248.606 99.4127 249.687 99.0132 250.822 98.4141C249.948 100.757 249.499 103.292 249.502 105.854C249.504 109.072 250.212 112.234 251.556 115.029C252.901 117.823 254.834 120.154 257.168 121.792L257.588 126.385V126.42C257.634 127.953 257.655 129.486 257.672 131.014C257.672 132.088 257.672 133.186 257.647 134.285C255.902 136.629 253.765 138.516 251.373 139.827C253.349 140.216 255.233 139.667 257.067 138.728C256.769 139.955 256.268 141.099 255.595 142.094C256.099 141.884 256.604 141.694 257.109 141.495C256.845 141.998 256.61 142.521 256.406 143.062C256.095 143.917 255.868 144.812 255.729 145.729C254.659 147.586 253.731 149.555 252.958 151.611C252.605 152.544 252.29 153.493 252.004 154.457V154.522C251.723 155.48 251.475 156.452 251.259 157.438C251.158 157.91 251.066 158.385 250.982 158.861C250.982 158.896 250.982 158.93 250.982 158.965C250.814 159.929 250.675 160.898 250.561 161.876C250.561 161.941 250.561 162.006 250.561 162.076C250.515 162.531 250.473 162.99 250.443 163.449C250.443 163.449 250.443 163.494 250.443 163.519C250.41 164.018 250.385 164.493 250.372 164.982C250.372 165.047 250.372 165.107 250.372 165.172C250.372 165.586 250.372 166.006 250.372 166.42V166.705C250.372 167.643 250.422 168.587 250.498 169.531C250.498 169.646 250.498 169.766 250.528 169.88C250.561 170.265 250.599 170.649 250.645 171.039C250.645 171.129 250.645 171.219 250.675 171.303C250.729 171.768 250.793 172.227 250.864 172.686C250.864 172.786 250.902 172.891 250.919 172.991C250.978 173.361 251.041 173.725 251.112 174.095L251.188 174.474C251.28 174.933 251.377 175.388 251.486 175.847C251.549 176.107 251.613 176.346 251.68 176.621C251.881 177.568 252.021 178.531 252.1 179.502L249.8 179.592C244.877 179.758 239.959 180.023 235.044 180.386C234.43 177.575 232.336 175.952 229.699 175.568C229.281 175.508 228.859 175.478 228.438 175.478C228.893 175.023 229.297 174.501 229.64 173.925C230.098 173.177 230.424 172.328 230.599 171.428C229.922 171.886 229.329 172.503 228.858 173.241C228.703 173.49 228.564 173.74 228.438 173.97V172.472C228.438 172.44 228.434 172.409 228.424 172.379C228.414 172.35 228.399 172.323 228.38 172.301C228.361 172.278 228.339 172.261 228.314 172.249C228.289 172.237 228.263 172.231 228.236 172.232H227.815C227.789 172.231 227.762 172.237 227.738 172.249C227.713 172.261 227.69 172.278 227.671 172.301C227.653 172.323 227.638 172.35 227.628 172.379C227.618 172.409 227.613 172.44 227.614 172.472V175.523H227.529H227.386C227.109 175.553 226.84 175.592 226.575 175.652C223.711 176.287 221.613 178.469 221.613 182.143C221.614 183.301 221.826 184.444 222.236 185.494C222.645 186.544 223.242 187.476 223.985 188.225C224.108 189.37 224.326 190.497 224.636 191.59C224.926 192.674 225.305 193.852 226.154 194.392C226.673 194.671 227.242 194.795 227.811 194.751C232.487 194.751 236.911 192.19 241.566 191.755C244.443 191.481 247.332 192.01 250.216 191.905C250.637 191.905 251.057 191.855 251.478 191.815C247.534 215.008 242.761 238.496 245.254 261.923C245.418 263.481 245.675 265.169 246.655 266.227C247.954 267.635 249.956 267.406 251.701 267.226C256.49 266.707 261.318 267.165 265.977 268.579C266.633 268.794 267.321 268.823 267.987 268.664C268.13 268.625 268.27 268.577 268.408 268.519L268.526 268.464C268.614 268.424 268.698 268.384 268.778 268.339L268.9 268.264L269.106 268.115C269.14 268.085 269.178 268.06 269.207 268.03C269.28 267.97 269.349 267.903 269.413 267.83L269.472 267.77C269.551 267.679 269.625 267.582 269.695 267.481L269.745 267.391C269.794 267.316 269.839 267.237 269.88 267.156C269.901 267.116 269.922 267.076 269.939 267.036C269.955 266.996 270.006 266.886 270.035 266.811C270.065 266.737 270.069 266.722 270.082 266.677C270.094 266.632 270.136 266.512 270.162 266.427C270.187 266.342 270.162 266.347 270.195 266.302C270.229 266.257 270.254 266.053 270.275 265.928V265.848C270.275 265.743 270.309 265.633 270.321 265.528C270.334 265.423 270.321 265.418 270.321 265.363C270.321 265.309 270.321 265.199 270.321 265.119V264.939C270.321 264.859 270.321 264.779 270.321 264.699V264.255C270.321 264.205 270.321 264.15 270.321 264.095C270.321 263.651 270.279 263.201 270.241 262.772C270.542 262.876 270.848 262.954 271.158 263.007C271.447 263.061 271.74 263.086 272.033 263.082H272.075C272.214 263.082 272.352 263.082 272.495 263.042C272.617 263.019 272.738 262.989 272.857 262.952H272.912C273.022 262.913 273.129 262.863 273.231 262.802L273.282 262.767C273.369 262.709 273.452 262.642 273.53 262.567L273.568 262.532C273.647 262.445 273.717 262.348 273.778 262.243L273.816 262.168C273.878 262.048 273.928 261.918 273.963 261.783C274.203 260.82 273.656 259.731 274.531 258.847C275.372 262.048 276.213 265.254 276.352 268.564C276.398 269.772 276.352 271.061 276.949 272.059C277.337 272.604 277.759 273.115 278.21 273.587C279.497 275.24 279.526 277.731 279.438 279.968C279.4 280.872 279.358 281.776 279.304 282.68C278.609 294.74 276.544 306.633 273.164 318.036C272.835 319.249 272.404 320.42 271.877 321.531C271.024 323.104 269.957 324.497 268.719 325.655C266.966 327.423 265.088 329.008 263.105 330.394C262.093 331.029 261.136 331.784 260.25 332.646C260.216 332.531 260.178 332.421 260.153 332.301C260.107 332.071 260.044 331.802 259.855 331.717C259.711 331.678 259.56 331.707 259.434 331.797C257.462 332.825 255.49 333.854 253.593 335.057C252.636 335.575 251.792 336.349 251.129 337.319C250.523 338.318 250.343 339.816 250.969 340.814C251.52 341.688 252.508 341.978 253.421 342.172C254.59 342.417 255.763 342.592 256.936 342.722C256.333 343.141 255.806 343.698 255.385 344.359C254.779 345.358 254.598 346.856 255.225 347.855C255.776 348.728 256.764 349.018 257.676 349.213C265.132 350.776 272.777 349.712 280.346 349.447C282.807 349.352 285.321 349.332 287.651 348.384C288.11 348.223 288.539 347.956 288.912 347.6C289.972 346.491 289.867 344.544 289.682 342.891L288.912 336.141C288.799 336.141 288.69 336.186 288.58 336.216C289.225 329.874 290.381 323.621 292.033 317.541C294.598 308.079 298.416 298.757 298.366 288.856C298.366 288.616 298.366 288.357 298.366 288.137C298.294 285.036 297.827 281.971 297.525 278.885C297.049 273.722 297.104 268.514 297.134 263.326C297.097 261.292 297.216 259.258 297.491 257.25C297.491 257.18 297.516 257.115 297.529 257.045L304.514 256.825C305.288 256.872 306.06 256.701 306.768 256.326C307.102 256.152 307.371 255.836 307.522 255.441C307.672 255.045 307.694 254.598 307.583 254.184C310.561 255.787 314.543 253.605 315.422 249.89C315.483 249.629 315.532 249.364 315.569 249.096C315.567 249.076 315.567 249.056 315.569 249.036C315.598 248.786 315.62 248.537 315.628 248.292C315.628 248.252 315.628 248.207 315.628 248.167C315.671 246.452 315.448 244.743 314.968 243.124C313.538 238.316 311.267 233.937 309.131 229.508C308.029 227.216 306.961 224.894 305.922 222.563L306.835 223.956C307.155 224.524 307.576 225.003 308.067 225.359C309.77 226.402 311.553 224.3 313.286 223.332C315.586 222.043 318.277 222.802 320.817 223.017C323.357 223.232 326.418 222.453 327.327 219.657C327.621 218.515 327.677 217.305 327.491 216.131ZM283.702 141.09C283.702 142.159 283.761 143.242 283.833 144.331C282.979 142.674 281.993 141.119 280.889 139.687L283.702 141.09Z" fill="url(#paint1_linear_17_13)"/>
<path d="M228.761 174.139C229.227 173.408 229.812 172.795 230.481 172.337C230.311 173.236 229.989 174.085 229.535 174.833C228.804 176.017 228.034 176.831 227.819 176.636C227.605 176.441 228.021 175.323 228.761 174.139Z" fill="#99D55C"/>
<path opacity="0.1" d="M228.854 174.229C229.194 173.686 229.623 173.229 230.116 172.886C229.988 173.551 229.749 174.18 229.413 174.734C228.867 175.612 228.295 176.232 228.152 176.077C228.009 175.922 228.307 175.108 228.854 174.229Z" fill="black"/>
<path d="M227.74 173.146H228.16C228.187 173.146 228.213 173.152 228.237 173.164C228.262 173.176 228.284 173.194 228.303 173.216C228.322 173.238 228.336 173.265 228.347 173.294C228.357 173.323 228.362 173.354 228.362 173.385V179.043H227.563V173.385C227.563 173.327 227.58 173.27 227.613 173.226C227.645 173.182 227.691 173.153 227.74 173.146Z" fill="#F6987E"/>
<path d="M235.069 183.037C235.069 185.156 234.36 187.188 233.099 188.686C231.837 190.184 230.126 191.026 228.341 191.026C226.557 191.026 224.845 190.184 223.583 188.686C222.322 187.188 221.613 185.156 221.613 183.037C221.613 179.377 223.686 177.21 226.516 176.576C227.118 176.444 227.729 176.379 228.341 176.381C228.763 176.381 229.184 176.411 229.603 176.471C232.714 176.931 235.069 179.138 235.069 183.037Z" fill="#FC4A4A"/>
<path opacity="0.1" d="M229.602 176.471C229.481 176.746 228.82 176.971 228.021 176.971C227.5 177.016 226.978 176.886 226.516 176.596C227.118 176.464 227.729 176.399 228.341 176.401C228.762 176.394 229.184 176.417 229.602 176.471Z" fill="black"/>
<path opacity="0.1" d="M229.464 190.836C227.679 190.836 225.968 189.995 224.706 188.496C223.444 186.998 222.736 184.966 222.736 182.847C222.736 179.252 224.733 177.1 227.483 176.426C227.159 176.456 226.836 176.506 226.516 176.576C223.686 177.21 221.613 179.377 221.613 183.037C221.613 185.156 222.322 187.188 223.583 188.686C224.845 190.184 226.557 191.026 228.341 191.026C228.849 191.027 229.356 190.958 229.851 190.821C229.72 190.831 229.603 190.836 229.464 190.836Z" fill="black"/>
<path d="M259.123 338.707C260.052 339.706 261.474 339.681 262.735 339.571L268.484 339.072C273.051 338.672 277.773 338.223 281.801 335.641C282.228 335.41 282.606 335.069 282.907 334.643C283.228 333.99 283.395 333.247 283.391 332.491C283.935 325.095 285.174 317.795 287.083 310.726C289.606 301.314 293.391 292.037 293.34 282.185C293.34 281.946 293.34 281.686 293.34 281.471C293.269 278.385 292.811 275.335 292.529 272.264C292.062 267.126 292.108 261.948 292.142 256.785C292.106 254.761 292.224 252.737 292.495 250.739C292.76 249.116 293.757 247.488 293.147 246.06C291.965 243.289 287.68 242.27 285.376 242.17C282.272 242.041 279.22 243.004 276.221 243.963C275.309 244.258 274.354 244.572 273.664 245.336C272.739 246.365 272.474 247.977 272.441 249.48C272.281 256.146 275.515 262.348 275.771 269.003C275.818 270.202 275.771 271.5 276.36 272.499C276.748 273.042 277.17 273.551 277.622 274.021C278.883 275.664 278.921 278.141 278.833 280.368C278.795 281.266 278.753 282.165 278.702 283.064C278.015 295.059 275.974 306.89 272.634 318.24C272.312 319.452 271.89 320.623 271.373 321.736C270.529 323.297 269.475 324.684 268.252 325.84C266.52 327.596 264.665 329.173 262.706 330.553C261.398 331.472 260.002 332.351 259.106 333.809C258.21 335.267 258.013 337.479 259.123 338.707Z" fill="#FDA8A8"/>
<path opacity="0.1" d="M259.123 338.707C260.052 339.706 261.474 339.681 262.735 339.571L268.484 339.072C273.051 338.672 277.773 338.223 281.801 335.641C282.228 335.41 282.606 335.069 282.907 334.643C283.228 333.99 283.395 333.247 283.391 332.491C283.935 325.095 285.174 317.795 287.083 310.726C289.606 301.314 293.391 292.037 293.34 282.185C293.34 281.946 293.34 281.686 293.34 281.471C293.269 278.385 292.811 275.335 292.529 272.264C292.062 267.126 292.108 261.948 292.142 256.785C292.106 254.761 292.224 252.737 292.495 250.739C292.76 249.116 293.757 247.488 293.147 246.06C291.965 243.289 287.68 242.27 285.376 242.17C282.272 242.041 279.22 243.004 276.221 243.963C275.309 244.258 274.354 244.572 273.664 245.336C272.739 246.365 272.474 247.977 272.441 249.48C272.281 256.146 275.515 262.348 275.771 269.003C275.818 270.202 275.771 271.5 276.36 272.499C276.748 273.042 277.17 273.551 277.622 274.021C278.883 275.664 278.921 278.141 278.833 280.368C278.795 281.266 278.753 282.165 278.702 283.064C278.015 295.059 275.974 306.89 272.634 318.24C272.312 319.452 271.89 320.623 271.373 321.736C270.529 323.297 269.475 324.684 268.252 325.84C266.52 327.596 264.665 329.173 262.706 330.553C261.398 331.472 260.002 332.351 259.106 333.809C258.21 335.267 258.013 337.479 259.123 338.707Z" fill="black"/>
<path d="M259.123 338.707C260.052 339.706 261.474 339.681 262.735 339.571L268.484 339.072C273.051 338.672 277.773 338.223 281.801 335.641C282.228 335.41 282.606 335.069 282.907 334.643C283.228 333.99 283.395 333.247 283.391 332.491C283.935 325.095 285.174 317.795 287.083 310.726C289.606 301.314 293.391 292.037 293.34 282.185C288.48 282.823 283.592 283.11 278.702 283.044C278.015 295.039 275.974 306.871 272.634 318.221C272.312 319.432 271.89 320.603 271.373 321.716C270.529 323.278 269.475 324.664 268.252 325.82C266.52 327.576 264.665 329.153 262.706 330.534C261.398 331.452 260.002 332.331 259.106 333.789C258.21 335.247 258.013 337.479 259.123 338.707Z" fill="#EEEFF3"/>
<path opacity="0.1" d="M259.123 338.707C260.052 339.706 261.474 339.681 262.735 339.571L268.484 339.072C273.051 338.672 277.773 338.223 281.801 335.641C282.228 335.41 282.606 335.069 282.907 334.643C283.228 333.99 283.395 333.247 283.391 332.491C283.935 325.095 285.174 317.795 287.083 310.726C289.606 301.314 293.391 292.037 293.34 282.185C288.48 282.823 283.592 283.11 278.702 283.044C278.015 295.039 275.974 306.871 272.634 318.221C272.312 319.432 271.89 320.603 271.373 321.716C270.529 323.278 269.475 324.664 268.252 325.82C266.52 327.576 264.665 329.153 262.706 330.534C261.398 331.452 260.002 332.331 259.106 333.789C258.21 335.247 258.013 337.479 259.123 338.707Z" fill="black"/>
<path d="M271.823 336.6C273.204 336.012 274.531 335.26 275.784 334.353L282.121 330.109C282.694 329.669 283.332 329.362 284.001 329.205L284.758 335.921C284.947 337.569 285.048 339.506 284.001 340.61C283.627 340.964 283.198 341.229 282.739 341.388C280.439 342.332 277.958 342.352 275.523 342.442C268.046 342.727 260.494 343.765 253.126 342.207C252.226 342.018 251.251 341.708 250.708 340.859C250.09 339.861 250.267 338.413 250.864 337.399C251.518 336.436 252.352 335.665 253.299 335.147C255.174 333.949 257.121 332.93 259.068 331.907C259.188 331.822 259.331 331.794 259.468 331.827C259.657 331.902 259.716 332.176 259.766 332.406C260.107 334.044 261.217 335.337 262.483 336.111C262.5 336.111 269.022 337.659 271.823 336.6Z" fill="#BBBDC8"/>
<path opacity="0.1" d="M271.823 336.6C273.204 336.012 274.531 335.26 275.784 334.353L282.121 330.109C282.694 329.669 283.332 329.362 284.001 329.205L284.758 335.921C284.947 337.569 285.048 339.506 284.001 340.61C283.627 340.964 283.198 341.229 282.739 341.388C280.439 342.332 277.958 342.352 275.523 342.442C268.046 342.727 260.494 343.765 253.126 342.207C252.226 342.018 251.251 341.708 250.708 340.859C250.09 339.861 250.267 338.413 250.864 337.399C251.518 336.436 252.352 335.665 253.299 335.147C255.174 333.949 257.121 332.93 259.068 331.907C259.188 331.822 259.331 331.794 259.468 331.827C259.657 331.902 259.716 332.176 259.766 332.406C260.107 334.044 261.217 335.337 262.483 336.111C262.5 336.111 269.022 337.659 271.823 336.6Z" fill="black"/>
<path d="M263.328 345.698C264.257 346.696 265.679 346.671 266.94 346.561L272.689 346.062C277.256 345.663 281.978 345.213 286.007 342.632C286.433 342.4 286.811 342.059 287.113 341.633C287.433 340.98 287.6 340.237 287.596 339.481C288.14 332.086 289.379 324.785 291.288 317.716C293.811 308.304 297.596 299.027 297.546 289.176C297.546 288.936 297.546 288.676 297.546 288.462C297.474 285.376 297.016 282.325 296.734 279.254C296.267 274.117 296.313 268.939 296.347 263.776C296.311 261.752 296.429 259.728 296.7 257.729C296.965 256.106 297.962 254.479 297.352 253.051C296.17 250.279 291.885 249.261 289.581 249.161C286.478 249.031 283.425 249.995 280.426 250.953C279.514 251.248 278.559 251.563 277.87 252.327C276.944 253.355 276.679 254.968 276.646 256.471C276.486 263.137 279.72 269.338 279.976 275.994C280.023 277.192 279.976 278.49 280.565 279.489C280.953 280.033 281.375 280.542 281.827 281.012C283.088 282.655 283.126 285.131 283.038 287.358C283 288.257 282.958 289.156 282.907 290.054C282.22 302.05 280.179 313.881 276.839 325.231C276.517 326.443 276.095 327.613 275.578 328.726C274.734 330.288 273.68 331.674 272.457 332.83C270.725 334.587 268.87 336.164 266.911 337.544C265.603 338.463 264.207 339.341 263.311 340.799C262.416 342.257 262.218 344.469 263.328 345.698Z" fill="#FDA8A8"/>
<path d="M263.328 345.697C264.257 346.696 265.679 346.671 266.94 346.561L272.689 346.062C277.256 345.663 281.978 345.213 286.007 342.632C286.433 342.4 286.811 342.059 287.113 341.633C287.433 340.98 287.6 340.237 287.596 339.481C288.14 332.085 289.379 324.785 291.288 317.716C293.811 308.304 297.596 299.027 297.546 289.176C292.685 289.814 287.797 290.1 282.907 290.034C282.22 302.03 280.179 313.861 276.839 325.211C276.517 326.423 276.095 327.593 275.578 328.706C274.734 330.268 273.68 331.654 272.457 332.81C270.725 334.567 268.87 336.144 266.911 337.524C265.603 338.442 264.207 339.321 263.311 340.779C262.416 342.237 262.218 344.469 263.328 345.697Z" fill="#EEEFF3"/>
<path d="M276.028 343.59C277.409 343.003 278.736 342.25 279.989 341.343L286.326 337.099C286.899 336.659 287.537 336.352 288.206 336.196L288.963 342.911C289.152 344.559 289.253 346.496 288.206 347.6C287.832 347.954 287.404 348.219 286.944 348.379C284.644 349.322 282.163 349.342 279.728 349.432C272.252 349.717 264.699 350.755 257.332 349.198C256.432 349.008 255.456 348.698 254.914 347.849C254.296 346.851 254.472 345.403 255.069 344.389C255.724 343.426 256.557 342.655 257.504 342.137C259.38 340.939 261.327 339.92 263.274 338.897C263.394 338.812 263.536 338.784 263.673 338.817C263.862 338.892 263.921 339.166 263.972 339.396C264.312 341.034 265.422 342.327 266.688 343.101C266.705 343.101 273.227 344.649 276.028 343.59Z" fill="#BBBDC8"/>
<path d="M255.174 143.157C257.222 140.161 257.277 135.977 257.226 132.133C257.226 130.635 257.189 129.087 257.142 127.564V127.529C257.086 124.73 256.837 121.941 256.398 119.19C256.177 117.87 255.882 116.569 255.515 115.296C255.792 115.221 256.07 115.151 256.356 115.091C260.764 114.058 265.299 114.058 269.707 115.091C270.469 115.271 272.395 115.231 273.492 115.675C273.805 115.764 274.077 115.991 274.253 116.309C274.468 116.844 274.026 118.392 273.707 119.765C273.531 120.383 273.432 121.029 273.412 121.682C273.455 122.295 273.533 122.904 273.648 123.504C273.845 124.608 274.106 125.701 274.228 126.82C274.442 128.727 274.253 130.67 274.358 132.592C274.463 134.514 274.93 136.536 276.162 137.79C269.003 138.519 261.951 140.322 255.174 143.157Z" fill="#FDA8A8"/>
<path opacity="0.1" d="M275.325 123.285C274.766 123.34 274.211 123.405 273.643 123.48C268.042 124.19 262.514 125.561 257.142 127.574V127.539L256.398 119.2C256.398 118.701 256.398 118.202 256.398 117.678C256.398 116.824 256.377 115.96 256.36 115.101C260.768 114.068 265.304 114.068 269.712 115.101C270.473 115.281 272.399 115.241 273.496 115.685C273.496 116.499 273.496 117.313 273.521 118.127C273.549 118.681 273.612 119.232 273.711 119.775C273.912 121.123 274.479 122.355 275.325 123.285Z" fill="black"/>
<path d="M264.716 125.577C273.309 125.577 280.275 117.305 280.275 107.102C280.275 96.8989 273.309 88.6276 264.716 88.6276C256.123 88.6276 249.157 96.8989 249.157 107.102C249.157 117.305 256.123 125.577 264.716 125.577Z" fill="#FDA8A8"/>
<path d="M251.049 176.761C248.286 165.152 250.809 152.684 257.407 143.517C258.875 141.475 260.351 139.377 262.277 138.154C264.569 136.706 267.281 136.656 269.876 136.626C272.167 136.626 274.531 136.626 276.637 137.71C279.484 139.153 281.448 142.288 283.105 145.399C284.871 148.715 286.469 152.305 286.738 156.219C286.881 158.541 286.536 160.898 286.827 163.209C287.197 166.14 288.572 168.767 289.135 171.653C289.442 173.211 289.505 174.823 289.703 176.411C290.001 178.583 290.434 180.726 290.998 182.822C295.176 199.295 300.898 215.159 308.054 230.117C310.157 234.526 312.407 238.885 313.82 243.663C314.459 245.825 314.921 248.157 314.4 250.384C313.529 254.079 309.598 256.251 306.658 254.658C306.767 255.069 306.745 255.512 306.596 255.904C306.447 256.297 306.182 256.61 305.851 256.785C305.152 257.16 304.388 257.331 303.622 257.285L277.651 258.103C276.969 258.124 276.29 258.233 275.628 258.428C272.575 259.357 273.723 260.925 273.395 262.233C272.996 263.831 271.066 263.701 269.72 263.231C269.926 265.563 269.972 268.414 267.437 269.093C266.779 269.252 266.099 269.224 265.452 269.013C260.85 267.606 256.079 267.15 251.348 267.665C249.615 267.855 247.634 268.085 246.352 266.667C245.385 265.613 245.132 263.935 244.968 262.388C242.382 237.921 247.702 213.42 251.697 189.249C252.235 185.988 252.041 180.705 251.234 177.52L251.049 176.761Z" fill="#46455B"/>
<path d="M285.531 159.899C286.141 161.986 286.902 164.038 287.108 166.235C287.272 167.993 287.075 169.771 287.163 171.533C287.324 173.49 287.664 175.42 288.177 177.29C288.986 180.927 289.985 184.5 291.166 187.99C291.73 189.563 292.382 191.296 291.928 192.919C291.473 194.541 290.065 195.545 289.661 197.158C289.24 198.86 290.081 200.653 291.154 201.896C292.226 203.139 293.568 204.023 294.56 205.346C295.641 206.789 296.242 208.632 297.003 210.339C298.084 212.598 299.323 214.744 300.708 216.756L305.792 224.59C306.109 225.155 306.525 225.632 307.012 225.988C308.694 227.026 310.456 224.934 312.167 223.991C314.438 222.707 317.096 223.461 319.606 223.676C322.117 223.891 325.14 223.117 326.036 220.331C326.332 219.2 326.394 218.001 326.217 216.836C325.823 212.851 324.853 208.978 323.349 205.386C322.432 203.199 321.313 201.107 320.737 198.765C320.266 196.863 320.174 194.861 319.799 192.929C319.425 190.996 318.765 189.149 318.235 187.261C314.476 173.85 317.302 159.175 316.086 145.115C315.636 139.927 314.303 134.24 310.544 131.538C308.311 129.936 305.628 129.686 302.975 129.541L301.776 129.476L299.846 129.361C297.054 129.197 294.253 129.072 291.532 129.776C287.706 130.774 283.101 134.304 282.95 139.377C282.785 146.345 283.659 153.293 285.531 159.899Z" fill="#765E82"/>
<path opacity="0.1" d="M299.867 129.341C300.383 132.739 300.641 136.185 300.636 139.637C300.712 149.493 301.608 159.31 302.508 169.096L303.101 175.587C303.21 176.786 303.34 178.044 303.942 179.008C304.543 179.971 305.805 180.476 306.599 179.732C307.087 177.44 306.99 175.033 306.894 172.671C306.684 167.648 306.475 162.624 306.267 157.597C306.065 152.704 305.847 147.806 305.346 142.943C304.954 139.176 304.375 135.439 303.614 131.753C303.469 130.989 303.268 130.242 303.012 129.521L301.814 129.456L299.867 129.341Z" fill="black"/>
<path d="M272.39 133.566C269.813 133.126 267.113 132.901 264.665 133.965C262.327 134.989 260.46 137.091 258.778 139.303C257.631 140.728 256.683 142.361 255.969 144.141C254.535 148.055 255.094 152.569 255.969 156.714C258.353 168.128 263.089 179.138 270.687 186.672C273 188.904 275.463 190.908 278.051 192.664C281.415 195.006 284.888 197.158 288.61 198.511C289.648 198.89 290.754 199.21 291.818 198.94C292.882 198.671 293.887 197.647 293.921 196.354C287.823 192.284 282.357 187.027 276.928 181.794C275.44 180.431 274.046 178.928 272.76 177.3C270.834 174.729 269.476 171.623 267.609 168.992C265.927 166.63 263.824 164.638 262.563 161.936C261.771 160.091 261.241 158.104 260.994 156.054C260.372 151.875 260.254 147.436 261.65 143.527C263.046 139.617 266.247 136.407 269.821 136.476C271.654 136.511 273.4 137.375 275.09 138.219L285.729 143.552C285.599 143.482 286.339 141.29 286.305 140.985C286.204 140.032 286.061 140.017 285.464 139.293C284.447 138.084 282.865 137.235 281.574 136.531C278.649 135.025 275.556 134.027 272.39 133.566Z" fill="#765E82"/>
<path d="M251.213 103.607C254.248 102.806 257.057 101.086 259.367 98.6138L257.142 112.475C259.358 111.267 261.507 109.893 263.576 108.36C263.875 114.702 263.442 121.188 261.474 127.09C259.505 132.991 255.876 138.274 251.007 140.895C255.33 141.754 259.211 138.069 263.059 135.578C265.742 133.845 270.325 135.628 273.261 134.579C275.75 133.71 278.307 132.951 280.552 131.399C284.724 128.508 285.67 120.064 286.515 114.422C287.361 108.78 286.591 102.938 285.186 97.4454C284.719 95.5003 284.086 93.6166 283.298 91.8232C282.215 89.4682 280.732 87.4055 278.943 85.7656C277.155 84.1257 275.099 82.9441 272.906 82.2956C270.713 81.6471 268.43 81.5458 266.203 81.9979C263.975 82.4501 261.851 83.446 259.964 84.9227C256.087 87.9536 252.491 92.4124 249.531 96.6416C249.11 97.2257 247.374 99.3029 247.95 100.177C248.652 101.235 252.773 98.2194 253.471 97.8099C253.269 98.7137 252.016 103.372 251.213 103.607Z" fill="#3F3D56"/>
<g opacity="0.1">
<path d="M268.711 265.099C268.053 265.257 267.373 265.23 266.726 265.019C262.125 263.612 257.354 263.156 252.622 263.671C250.889 263.861 248.909 264.09 247.626 262.672C246.659 261.619 246.407 259.941 246.243 258.393C243.656 233.927 248.976 209.426 252.971 185.254C253.509 181.994 253.316 176.711 252.508 173.525L252.319 172.751C250.762 166.15 250.854 159.154 252.584 152.614C249.715 160.204 249.172 168.746 251.049 176.761L251.238 177.535C252.046 180.72 252.239 186.023 251.701 189.264C247.719 213.435 242.399 237.951 244.973 262.403C245.137 263.95 245.393 265.628 246.356 266.682C247.618 268.085 249.619 267.855 251.352 267.68C256.084 267.165 260.855 267.621 265.456 269.028C266.103 269.239 266.783 269.267 267.441 269.108C269.51 268.554 269.859 266.552 269.808 264.57C269.472 264.823 269.101 265.003 268.711 265.099Z" fill="black"/>
<path d="M307.928 250.664C308.037 251.074 308.015 251.518 307.866 251.91C307.717 252.302 307.452 252.616 307.121 252.791C306.422 253.165 305.658 253.337 304.892 253.29L278.921 254.109C278.239 254.129 277.56 254.238 276.898 254.434C273.845 255.362 274.993 256.93 274.665 258.238C274.266 259.836 272.336 259.706 270.99 259.237C271.116 260.66 271.179 262.273 270.637 263.471C271.818 263.681 273.088 263.496 273.404 262.233C273.719 260.97 272.584 259.357 275.637 258.428C276.299 258.233 276.977 258.124 277.659 258.103L303.614 257.285C304.379 257.331 305.144 257.16 305.842 256.785C306.173 256.61 306.439 256.297 306.588 255.904C306.736 255.512 306.759 255.069 306.65 254.658C309.593 256.251 313.521 254.079 314.392 250.384C314.523 249.824 314.596 249.247 314.61 248.667C313.038 250.903 310.191 251.902 307.928 250.664Z" fill="black"/>
</g>
<path d="M273.088 146.328C275.322 151.967 277.297 157.746 279.005 163.639C280.384 168.387 281.6 173.376 281.141 178.369C280.683 183.362 278.198 188.405 274.161 189.978C272.445 190.647 270.607 190.652 268.803 190.702C264.482 190.822 260.17 191.235 255.889 191.94C253.897 192.331 251.888 192.596 249.872 192.734C247.02 192.844 244.169 192.314 241.327 192.589C236.726 193.033 232.357 195.585 227.74 195.585C227.176 195.626 226.613 195.503 226.1 195.225C225.259 194.686 224.884 193.518 224.598 192.439C223.955 190.003 223.45 187.206 224.54 185.004C225.881 182.293 228.93 181.749 231.575 181.509C237.529 181.01 243.491 180.66 249.459 180.461C254.552 180.291 260.069 180.061 264.018 176.237C264.284 176.01 264.502 175.713 264.653 175.368C264.802 174.783 264.784 174.157 264.602 173.585C263.037 166.324 262.366 158.831 262.609 151.341C262.582 150.669 262.729 150.004 263.03 149.434C263.387 148.977 263.851 148.657 264.363 148.515C267.888 147.172 271.663 147.047 275.246 148.155" fill="#FDA8A8"/>
<path d="M262.504 151.336C261.894 151.585 261.362 152.051 260.982 152.669C261.15 150.587 260.923 148.485 260.956 146.388C260.99 144.291 261.318 142.104 262.432 140.476C263.85 138.399 266.259 137.655 268.513 137.585C271.785 137.48 275.17 138.609 277.567 141.255C279.11 142.97 280.111 145.261 280.405 147.746C280.481 148.43 280.733 150.997 280.132 151.436C279.606 151.825 277.609 150.482 276.965 150.268C272.188 148.6 267.07 148.979 262.504 151.336Z" fill="#1F4B4A"/>
<path opacity="0.1" d="M198.905 33.4538C200.531 33.4538 201.848 31.889 201.848 29.9587C201.848 28.0283 200.531 26.4635 198.905 26.4635C197.279 26.4635 195.961 28.0283 195.961 29.9587C195.961 31.889 197.279 33.4538 198.905 33.4538Z" fill="#765E82"/>
<path opacity="0.1" d="M218.669 100.861C220.295 100.861 221.613 99.2959 221.613 97.3655C221.613 95.4352 220.295 93.8704 218.669 93.8704C217.043 93.8704 215.726 95.4352 215.726 97.3655C215.726 99.2959 217.043 100.861 218.669 100.861Z" fill="#765E82"/>
<path opacity="0.1" d="M162.74 36.949C164.366 36.949 165.684 35.3841 165.684 33.4538C165.684 31.5235 164.366 29.9586 162.74 29.9586C161.115 29.9586 159.797 31.5235 159.797 33.4538C159.797 35.3841 161.115 36.949 162.74 36.949Z" fill="#765E82"/>
<path opacity="0.1" d="M72.3291 201.721C76.5095 201.721 79.8984 197.697 79.8984 192.734C79.8984 187.77 76.5095 183.746 72.3291 183.746C68.1487 183.746 64.7598 187.77 64.7598 192.734C64.7598 197.697 68.1487 201.721 72.3291 201.721Z" fill="#765E82"/>
<path opacity="0.1" d="M377.204 53.4263C378.83 53.4263 380.148 51.8614 380.148 49.9311C380.148 48.0008 378.83 46.4359 377.204 46.4359C375.579 46.4359 374.261 48.0008 374.261 49.9311C374.261 51.8614 375.579 53.4263 377.204 53.4263Z" fill="#765E82"/>
<path opacity="0.1" d="M380.568 108.85C385.91 108.85 390.24 103.708 390.24 97.3655C390.24 91.023 385.91 85.8813 380.568 85.8813C375.227 85.8813 370.896 91.023 370.896 97.3655C370.896 103.708 375.227 108.85 380.568 108.85Z" fill="#765E82"/>
<path opacity="0.1" d="M396.128 68.4055C397.753 68.4055 399.071 66.8407 399.071 64.9103C399.071 62.98 397.753 61.4152 396.128 61.4152C394.502 61.4152 393.184 62.98 393.184 64.9103C393.184 66.8407 394.502 68.4055 396.128 68.4055Z" fill="#765E82"/>
<path opacity="0.1" d="M370.055 132.317C371.681 132.317 372.999 130.752 372.999 128.822C372.999 126.892 371.681 125.327 370.055 125.327C368.43 125.327 367.112 126.892 367.112 128.822C367.112 130.752 368.43 132.317 370.055 132.317Z" fill="#765E82"/>
<path opacity="0.1" d="M193.018 61.4151C194.643 61.4151 195.961 59.8503 195.961 57.92C195.961 55.9896 194.643 54.4248 193.018 54.4248C191.392 54.4248 190.074 55.9896 190.074 57.92C190.074 59.8503 191.392 61.4151 193.018 61.4151Z" fill="#765E82"/>
<path opacity="0.1" d="M82.8421 238.171C84.4678 238.171 85.7857 236.606 85.7857 234.676C85.7857 232.746 84.4678 231.181 82.8421 231.181C81.2163 231.181 79.8984 232.746 79.8984 234.676C79.8984 236.606 81.2163 238.171 82.8421 238.171Z" fill="#765E82"/>
<path opacity="0.1" d="M78.2163 158.281C79.842 158.281 81.16 156.717 81.16 154.786C81.16 152.856 79.842 151.291 78.2163 151.291C76.5906 151.291 75.2727 152.856 75.2727 154.786C75.2727 156.717 76.5906 158.281 78.2163 158.281Z" fill="#765E82"/>
<path opacity="0.1" d="M239.695 29.9586C241.321 29.9586 242.639 28.3938 242.639 26.4634C242.639 24.5331 241.321 22.9683 239.695 22.9683C238.069 22.9683 236.751 24.5331 236.751 26.4634C236.751 28.3938 238.069 29.9586 239.695 29.9586Z" fill="#765E82"/>
<path opacity="0.1" d="M249.367 61.4151C250.993 61.4151 252.311 59.8503 252.311 57.92C252.311 55.9896 250.993 54.4248 249.367 54.4248C247.741 54.4248 246.423 55.9896 246.423 57.92C246.423 59.8503 247.741 61.4151 249.367 61.4151Z" fill="#765E82"/>
</g>
<defs>
<linearGradient id="paint0_linear_17_13" x1="161.714" y1="351.829" x2="161.714" y2="81.8869" gradientUnits="userSpaceOnUse">
<stop stop-color="#808080" stop-opacity="0.25"/>
<stop offset="0.54" stop-color="#808080" stop-opacity="0.12"/>
<stop offset="1" stop-color="#808080" stop-opacity="0.1"/>
</linearGradient>
<linearGradient id="paint1_linear_17_13" x1="274.598" y1="350.037" x2="274.598" y2="80.389" gradientUnits="userSpaceOnUse">
<stop stop-color="#808080" stop-opacity="0.25"/>
<stop offset="0.54" stop-color="#808080" stop-opacity="0.12"/>
<stop offset="1" stop-color="#808080" stop-opacity="0.1"/>
</linearGradient>
<clipPath id="clip0_17_13">
<rect width="455" height="362" fill="white"/>
</clipPath>
</defs>
</svg>
