<svg width="489" height="290" viewBox="0 0 489 290" fill="none" xmlns="http://www.w3.org/2000/svg">
<g clip-path="url(#clip0_17_130)">
<path d="M146.805 60.9394C146.846 60.9481 146.907 60.9611 146.981 60.9765C148.429 61.2772 157.185 62.9717 166.012 58.7536C169.752 56.9666 168.476 56.5212 176.805 50.3086C186.569 43.025 189.075 43.0759 189.802 39.6797C191.254 32.898 183.501 22.2371 178.369 22.939C177.018 23.1238 175.572 24.1342 173.321 23.4491C172.827 23.2986 170.662 22.6397 169.607 20.3923C168.666 18.3875 169.463 16.9412 169.085 15.297C168.091 10.981 159.808 8.82715 152.547 10.349C148.37 11.2243 145.121 13.6139 138.795 18.3575C127.783 26.6138 122.277 30.7419 121.04 37.0667C119.867 43.0615 122.682 45.6445 120.635 52.0617C118.728 58.0369 115.7 57.6378 114.659 62.4715C112.982 70.2498 119.205 78.7865 121.797 82.3426C124.639 86.2415 127.358 88.3814 130.966 91.2221C135.495 94.7878 137.76 96.5707 140.483 96.3893C145.419 96.0604 160.088 97.1799 160.28 92.0554C160.351 90.1349 178.142 91.7074 169.382 71.0311C168.307 68.495 147.258 71.2039 146.98 69.747" fill="#2F2E41"/>
<path d="M347.466 266.768L367.976 269.097L393.448 285.325L397.648 266.505L401.317 242.679L393.674 231.387L380.472 242.679L352.867 238.915L347.466 266.768Z" fill="#FFB6B6"/>
<path d="M178.836 188.478L163.233 284.836L276.653 244.185L349.866 269.78L360.668 240.421L279.654 197.512L213.042 199.017L178.836 188.478Z" fill="#2F2E41"/>
<path d="M395.749 241.659L398.149 243.918L383.246 279.303C383.246 279.303 393.313 286.671 396.314 286.671C399.314 286.671 409.551 213.806 408.351 203.045C407.151 192.283 399.35 195.739 399.35 195.739L382.509 240.367L395.749 241.659Z" fill="#2F2E41"/>
<path d="M63.6759 229.44C62.1028 229.227 61.4893 231.929 62.9103 232.801C64.9683 234.065 66.9042 235.657 67.9132 237.542C70.493 242.362 74.0575 239.576 74.5643 239.143C75.3975 240.883 75.8078 242.641 75.9846 244.205L74.7688 249.258C74.7159 249.596 74.7712 249.248 74.7688 249.258L73.8369 262.119C73.1984 265.243 73.6802 268.251 73.8369 269.134L72.9049 285.502L75.5106 285.528L75.7915 269.515L75.8458 269.495C75.8443 269.488 75.8246 269.4 75.7962 269.244L75.9123 262.627C76.1467 261.494 76.5179 260.303 77.084 259.121C77.5908 259.554 81.1552 262.34 83.735 257.52C84.744 255.635 86.6799 254.043 88.7379 252.779C90.159 251.907 89.5454 249.205 87.9723 249.418C86.6397 249.598 85.1859 249.868 83.6395 250.263C77.0827 251.937 76.9466 257.522 77.004 258.803L76.9595 258.768C76.5116 259.669 76.1793 260.577 75.9327 261.465L76.1512 249.005C76.2866 248.122 77.8017 246.724 77.5649 244.581L76.5515 226.182C76.9093 226.953 77.3058 227.453 77.6799 227.4C78.5746 227.272 79.0254 224.024 78.9122 221.66C80.0239 223.593 82.1326 225.838 82.9015 225.193C83.4833 224.705 83.1383 222.695 82.5031 220.867C83.8266 221.868 85.2924 222.525 85.7473 221.89C86.368 221.023 84.8807 218.066 83.509 216.415C85.3451 216.63 87.6802 216.263 87.8333 215.215C87.9595 214.351 86.5697 213.261 85.0822 212.56C86.5763 212.065 87.9734 211.204 87.9271 210.352C87.8611 209.139 84.891 208.405 82.9909 208.568C82.8815 208.577 82.7787 208.589 82.6808 208.604C84.3086 207.366 86.3112 204.812 85.8427 203.789C85.4941 203.027 83.872 203.322 82.3755 203.993C83.2611 202.405 83.8837 200.615 83.4095 200.002C82.734 199.13 80.0893 200.977 78.723 202.642C78.5958 202.797 78.4843 202.945 78.387 203.086C78.3919 202.965 78.3947 202.838 78.3947 202.703C78.3947 200.313 77.6087 196.646 76.6391 196.646C75.9585 196.646 75.3687 198.453 75.0774 200.357C74.4183 198.543 73.4569 196.878 72.7786 197.095C71.9678 197.354 71.8269 200.216 72.1055 202.484C70.6748 201.028 68.5784 199.711 67.9877 200.474C67.5135 201.087 68.1361 202.877 69.0217 204.465C67.5252 203.794 65.9032 203.499 65.5545 204.261C65.1752 205.089 66.4154 206.92 67.7652 208.245C65.9757 208.348 63.9013 209.026 63.8463 210.038C63.8 210.89 65.1972 211.751 66.6912 212.245C65.2037 212.946 63.814 214.036 63.9401 214.9C64.0932 215.948 66.4284 216.315 68.2644 216.1C66.8927 217.751 65.4054 220.709 66.0261 221.575C66.481 222.211 67.9468 221.553 69.2703 220.553C68.6351 222.38 68.2901 224.39 68.8719 224.878C69.6 225.489 71.5301 223.508 72.6769 221.655C72.5087 224.021 72.9019 227.349 73.8037 227.504C74.4972 227.622 75.3018 225.831 75.7926 223.935C75.9399 224.525 76.1166 225.101 76.3107 225.609L76.0104 242.727C75.7609 241.459 75.348 240.117 74.6887 238.79L74.6441 238.825C74.7016 237.544 74.5655 231.959 68.0086 230.285C66.4622 229.89 65.0084 229.62 63.6758 229.44L63.6759 229.44H63.6759ZM75.628 264.526L75.5789 267.327C75.534 266.541 75.529 265.585 75.628 264.526Z" fill="#F2F2F2"/>
<path d="M487.891 283.834H1.10908C0.493998 283.834 0 284.454 0 285.225C0 285.997 0.493963 286.617 1.10908 286.617H487.891C488.506 286.617 489 285.997 489 285.225C489 284.454 488.506 283.834 487.891 283.834Z" fill="#3F3D56"/>
<path d="M132.402 104.655L140.203 70.0266L159.407 70.7794L166.008 98.6327L132.402 104.655Z" fill="#FFB6B6"/>
<path d="M136.529 94.7553L136.529 94.7554C136.529 94.7554 130.828 92.8734 120.026 110.188C109.224 127.502 114.025 250.96 114.025 250.96L192.338 228.752L171.845 140.248L167.734 93.2498L136.529 94.7553V94.7554V94.7553Z" fill="#765E82"/>
<path d="M258.701 126.553L232.938 145.265L238.597 158.316L264.869 140.282C267.69 140.105 270.436 139.082 272.877 137.301C279.037 132.947 282.238 125.434 280.03 120.519C277.822 115.603 271.04 115.147 264.884 119.501C262.403 121.198 260.284 123.617 258.701 126.553H258.701Z" fill="#FFB6B6"/>
<path d="M135.237 129.462L188.893 191.111L262.782 146.267L253.513 123.157L200.742 149.4L150.145 98.3035L135.237 129.462Z" fill="#765E82"/>
<path d="M117.626 237.409L139.229 194.5C139.229 194.5 182.437 140.299 198.64 144.816C214.843 149.333 234.046 234.398 234.046 234.398L217.843 247.196L189.038 196.759C189.038 196.759 186.038 266.016 177.114 281.071C168.19 296.127 132.028 289.352 118.826 281.071C105.623 272.791 117.626 237.409 117.626 237.409V237.409Z" fill="#2F2E41"/>
<path d="M216.643 238.162L219.043 252.465L217.843 261.499L222.044 272.038L255.049 276.555L256.85 256.982L239.447 245.69L226.844 229.882L216.643 238.162Z" fill="#FFB6B6"/>
<path d="M252.649 269.027L250.849 272.038L216.284 259.543C216.284 259.543 217.843 278.813 217.843 282.577C217.843 286.341 274.853 286.341 283.432 284.836C292.01 283.33 289.256 273.544 289.256 273.544L253.68 252.419L252.649 269.027V269.027Z" fill="#2F2E41"/>
<path d="M213.244 136.39L242.471 139.592L259.662 133.007L269.396 118.094L277.355 83.8795L231.956 58.1613L231.126 57.6929L224.835 58.4521L213.505 134.626L213.244 136.39Z" fill="#FC4A4A"/>
<path opacity="0.2" d="M213.505 134.626L221.362 135.964L231.956 58.1613L231.126 57.6929L224.835 58.4521L213.505 134.626Z" fill="#241F20"/>
<path d="M216.448 141.687C215.307 141.573 214.268 140.84 213.597 139.676C212.927 138.512 212.7 137.044 212.973 135.648L214.453 128.099L214.588 128.122C214.669 128.135 222.74 129.485 232.038 129.976C244.325 130.625 253.164 129.486 257.598 126.682C268.519 119.772 274.836 82.4653 274.898 82.0892L274.927 81.915L277.302 82.3277C278.376 82.5148 279.319 83.223 279.957 84.3221C280.594 85.4185 280.841 86.7577 280.654 88.0927C279.191 98.5251 274.407 123.861 261.603 133.786C261.477 133.883 261.352 133.978 261.225 134.073C248.375 143.668 225.677 142.602 216.448 141.687Z" fill="#3F3D58"/>
<path d="M250.245 130.492C247.703 132.04 245.493 134.328 243.801 137.166L217.355 154.314L222.511 167.689L249.439 151.249C252.263 151.241 255.045 150.384 257.552 148.751C263.87 144.77 267.353 137.458 265.335 132.416C263.316 127.374 256.56 126.512 250.245 130.492L250.245 130.492V130.492Z" fill="#FFB6B6"/>
<path d="M120.367 132.679L171.615 197.47L247.127 157.102L238.748 133.463L185.039 156.516L136.444 102.448L120.367 132.679Z" fill="#765E82"/>
<path d="M150.81 83.7072C166.17 83.7072 178.621 68.0876 178.621 48.8197C178.621 29.5519 166.17 13.9323 150.81 13.9323C135.45 13.9323 122.999 29.5519 122.999 48.8197C122.999 68.0876 135.45 83.7072 150.81 83.7072Z" fill="#FFB6B6"/>
<path d="M141.852 51.0773C141.893 51.0861 141.954 51.099 142.028 51.1144C143.476 51.4151 152.232 53.1097 161.059 48.8915C164.799 47.1046 163.523 46.6592 171.851 40.4466C181.616 33.163 184.122 33.2139 184.849 29.8177C186.301 23.036 178.548 12.3751 173.416 13.077C172.065 13.2618 170.618 14.2722 168.368 13.5871C167.874 13.4365 165.709 12.7776 164.654 10.5302C163.713 8.5254 164.51 7.07917 164.131 5.43492C163.138 1.11898 154.855 -1.03491 147.593 0.486926C143.417 1.36224 140.168 3.75188 133.842 8.49543C122.83 16.7517 117.324 20.8799 116.087 27.2047C114.914 33.1994 117.729 35.7825 115.682 42.1997C113.775 48.1748 110.747 47.7758 109.705 52.6094C108.029 60.3877 114.252 68.9244 116.844 72.4806C119.686 76.3795 122.404 78.5193 126.013 81.3601C130.542 84.9258 132.807 86.7086 135.53 86.5272C140.466 86.1984 145.376 80.5864 145.568 75.4619C145.639 73.5414 145.001 72.9654 143.42 66.3633C142.762 63.6126 142.305 61.3419 142.027 59.885" fill="#2F2E41"/>
</g>
<defs>
<clipPath id="clip0_17_130">
<rect width="489" height="290" fill="white"/>
</clipPath>
</defs>
</svg>
