<svg id="visual" viewBox="0 0 1980 849" width="1980" height="849" xmlns="http://www.w3.org/2000/svg" xmlns:xlink="http://www.w3.org/1999/xlink" version="1.1"><rect x="0" y="0" width="1980" height="849" fill="#765E82"></rect><defs><linearGradient id="grad1_0" x1="57.1%" y1="0%" x2="100%" y2="100%"><stop offset="3.3568904593639566%" stop-color="#fafafa" stop-opacity="1"></stop><stop offset="96.64310954063605%" stop-color="#fafafa" stop-opacity="1"></stop></linearGradient></defs><defs><linearGradient id="grad1_1" x1="57.1%" y1="0%" x2="100%" y2="100%"><stop offset="3.3568904593639566%" stop-color="#fafafa" stop-opacity="1"></stop><stop offset="96.64310954063605%" stop-color="#b6a9bc" stop-opacity="1"></stop></linearGradient></defs><defs><linearGradient id="grad1_2" x1="57.1%" y1="0%" x2="100%" y2="100%"><stop offset="3.3568904593639566%" stop-color="#765e82" stop-opacity="1"></stop><stop offset="96.64310954063605%" stop-color="#b6a9bc" stop-opacity="1"></stop></linearGradient></defs><defs><linearGradient id="grad2_0" x1="0%" y1="0%" x2="42.9%" y2="100%"><stop offset="3.3568904593639566%" stop-color="#fafafa" stop-opacity="1"></stop><stop offset="96.64310954063605%" stop-color="#fafafa" stop-opacity="1"></stop></linearGradient></defs><defs><linearGradient id="grad2_1" x1="0%" y1="0%" x2="42.9%" y2="100%"><stop offset="3.3568904593639566%" stop-color="#b6a9bc" stop-opacity="1"></stop><stop offset="96.64310954063605%" stop-color="#fafafa" stop-opacity="1"></stop></linearGradient></defs><defs><linearGradient id="grad2_2" x1="0%" y1="0%" x2="42.9%" y2="100%"><stop offset="3.3568904593639566%" stop-color="#b6a9bc" stop-opacity="1"></stop><stop offset="96.64310954063605%" stop-color="#765e82" stop-opacity="1"></stop></linearGradient></defs><g transform="translate(1980, 0)"><path d="M0 509.4C-67.1 502.5 -134.1 495.7 -194.9 470.6C-255.8 445.6 -310.3 402.3 -352.1 352.1C-394 302 -423.1 245 -447.2 185.2C-471.2 125.4 -490.3 62.7 -509.4 0L0 0Z" fill="#96839f"></path><path d="M0 339.6C-44.7 335 -89.4 330.5 -130 313.7C-170.5 297 -206.9 268.2 -234.8 234.8C-262.6 201.3 -282 163.4 -298.1 123.5C-314.2 83.6 -326.9 41.8 -339.6 0L0 0Z" fill="#d8d1db"></path><path d="M0 169.8C-22.4 167.5 -44.7 165.2 -65 156.9C-85.3 148.5 -103.4 134.1 -117.4 117.4C-131.3 100.7 -141 81.7 -149.1 61.7C-157.1 41.8 -163.4 20.9 -169.8 0L0 0Z" fill="#fafafa"></path></g><g transform="translate(0, 849)"><path d="M0 -509.4C60.5 -488.3 121 -467.3 184.8 -446.2C248.7 -425.2 315.8 -404.2 360.2 -360.2C404.6 -316.2 426.1 -249.1 447.2 -185.2C468.2 -121.3 488.8 -60.7 509.4 0L0 0Z" fill="#96839f"></path><path d="M0 -339.6C40.3 -325.6 80.7 -311.5 123.2 -297.5C165.8 -283.5 210.6 -269.5 240.1 -240.1C269.7 -210.8 284.1 -166.1 298.1 -123.5C312.1 -80.9 325.9 -40.4 339.6 0L0 0Z" fill="#d8d1db"></path><path d="M0 -169.8C20.2 -162.8 40.3 -155.8 61.6 -148.7C82.9 -141.7 105.3 -134.7 120.1 -120.1C134.9 -105.4 142 -83 149.1 -61.7C156.1 -40.4 162.9 -20.2 169.8 0L0 0Z" fill="#fafafa"></path></g></svg>