<svg width="695" height="492" viewBox="0 0 695 492" fill="none" xmlns="http://www.w3.org/2000/svg">
<path d="M641.24 237.575H77.6714C70.1173 237.575 63.9717 230.931 63.9717 222.765V14.8085C63.9717 6.64307 70.1173 0 77.6714 0H641.24C648.794 0 654.939 6.64307 654.939 14.8085V222.765C654.939 230.931 648.794 237.575 641.24 237.575ZM77.6714 1.76551C71.0181 1.76551 65.605 7.61677 65.605 14.8085V222.765C65.605 229.957 71.0181 235.809 77.6714 235.809H641.24C647.893 235.809 653.306 229.957 653.306 222.765V14.8085C653.306 7.61677 647.893 1.76551 641.24 1.76551H77.6714V1.76551Z" fill="#3F3D56"/>
<path d="M695 486.006H0V487.492H695V486.006Z" fill="#E6E6E6"/>
<path d="M695 410.09H0V411.575H695V410.09Z" fill="#E6E6E6"/>
<path d="M316.731 245.222C317.23 252.002 320.871 257.219 324.862 256.875C328.853 256.531 331.683 250.757 331.183 243.975C331.018 241.263 330.254 238.633 328.956 236.305L326.506 207.609L314.072 209.139L317.808 237.266C316.866 239.787 316.497 242.515 316.731 245.222Z" fill="#A0616A"/>
<path d="M301.878 111.345C301.878 111.345 313.5 104.694 319.394 114.632C325.287 124.571 329.355 232.057 329.355 232.057L313.02 233.942L309.924 158.2L301.878 111.345V111.345Z" fill="#E6E6E6"/>
<path d="M277.755 404.482L287.218 404.481L291.72 365.026L277.753 365.027L277.755 404.482Z" fill="#A0616A"/>
<path d="M310.176 404.25C310.471 404.786 310.626 406.517 310.626 407.141C310.626 409.058 309.188 410.613 307.414 410.613H278.109C276.899 410.613 275.918 409.552 275.918 408.244V406.925C275.918 406.925 274.468 402.962 277.453 398.076C277.453 398.076 281.162 401.902 286.706 395.91L288.34 392.709L300.172 402.063L306.731 402.935C308.166 403.126 309.438 402.906 310.176 404.25H310.176H310.176Z" fill="#2F2E41"/>
<path d="M332.515 402.788L341.683 400.256L337.011 360.824L323.479 364.562L332.515 402.788Z" fill="#A0616A"/>
<path d="M363.875 393.89C364.283 394.33 364.83 395.966 364.973 396.571C365.412 398.428 364.374 400.319 362.656 400.793L334.262 408.634C333.09 408.957 331.896 408.193 331.597 406.925L331.295 405.647C331.295 405.647 328.983 402.195 330.756 396.663C330.756 396.663 335.226 399.377 339.225 392.088L340.076 388.55L353.681 394.447L360.236 393.538C361.67 393.339 362.852 392.785 363.874 393.89H363.875V393.89Z" fill="#2F2E41"/>
<path d="M269.926 102.863L269.478 99.3435L274.81 85.2654L289.462 83.5056L292.626 103.66L269.926 102.863Z" fill="#A0616A"/>
<path opacity="0.1" d="M269.926 102.863L269.478 99.3435L274.81 85.2654L289.462 83.5056L292.626 103.66L269.926 102.863Z" fill="black"/>
<path d="M252.832 202.29L246.32 221.647L251.204 232.206L275.624 385.305H291.859L288.648 249.804L326.092 385.305H342.161L329.239 293.798L319.58 209.329L313.722 205.417L285.392 188.212L252.832 202.29Z" fill="#2F2E41"/>
<path d="M294.346 215.488L284.578 217.248L271.554 183.812H300.858L294.346 215.488Z" fill="#E6E6E6"/>
<path d="M313.882 206.689L294.346 215.488L287.834 199.65L284.578 217.248L250.39 205.352L255.274 183.812L250.39 113.422L267.631 100.998L269.926 99.3435L291.09 101.103L292.946 102.194L305.742 109.902L308.998 167.974L313.882 206.689Z" fill="#2F2E41"/>
<path d="M292.946 102.194L283.764 144.218L267.631 100.998L269.926 99.3435L291.09 101.103L292.946 102.194Z" fill="#E6E6E6"/>
<path d="M277.252 99.3435L273.996 105.405L277.252 107.425L275.624 144.327L282.136 153.896L288.648 139.753L283.764 107.425L285.392 99.3435H277.252Z" fill="#2F2E41"/>
<path d="M282.136 95.824C290.678 95.824 297.602 88.3392 297.602 79.1062C297.602 69.8732 290.678 62.3884 282.136 62.3884C273.595 62.3884 266.67 69.8732 266.67 79.1062C266.67 88.3392 273.595 95.824 282.136 95.824Z" fill="#A0616A"/>
<path d="M272.252 80.5727L275.594 82.1491L277.052 72.6904C277.052 72.6904 282.886 69.5375 287.261 71.1139C291.637 72.6904 298.929 71.1139 298.929 71.1139C298.929 71.1139 298.929 55.3494 288.72 55.3494C278.511 55.3494 268.302 56.9258 268.302 61.6552C268.302 66.3846 263.927 71.1139 263.927 71.1139C263.927 71.1139 258.093 80.5727 263.927 86.8785C269.76 93.1843 272.677 93.1843 272.677 93.1843L272.252 80.5727Z" fill="#2F2E41"/>
<path d="M242.243 244.728C242.073 251.526 245.181 257.131 249.184 257.247C253.186 257.363 256.567 251.947 256.736 245.146C256.838 242.43 256.337 239.727 255.274 237.264L255.656 208.449L243.143 208.543L244.095 236.94C242.911 239.339 242.276 242.009 242.243 244.728V244.728Z" fill="#A0616A"/>
<path d="M257.724 109.869C257.724 109.869 247.142 106.35 242.258 116.908C237.374 127.467 243.886 234.812 243.886 234.812H260.314L255.954 159.143L257.724 109.869V109.869Z" fill="#E6E6E6"/>
<path d="M663.659 309.854L624.197 296.796C623.324 296.507 622.409 296.402 621.499 296.485L421.499 314.884C418.647 315.147 417.931 319.304 420.504 320.659L426.91 324.033H426.739V485.534H432.776V327.122L452.854 337.695C454.39 338.504 456.104 338.834 457.805 338.649L459.941 338.415V485.534H465.978V337.756L620.668 320.866V485.534H626.705V320.207L652.36 317.406V485.534H658.397V316.747L663.078 316.236C666.364 315.877 666.817 310.899 663.659 309.854H663.659Z" fill="#3F3D56"/>
<path d="M479.56 314.245C483.333 314.245 539.172 306.904 539.172 306.904L547.473 319.139L489.37 331.374L479.56 314.245V314.245Z" fill="white"/>
<path d="M540.844 479.262L531.143 479.243L526.592 438.785L540.911 438.813L540.844 479.262Z" fill="#A0616A"/>
<path d="M507.607 478.962C507.304 479.511 507.142 481.286 507.141 481.926C507.138 483.891 508.609 485.487 510.428 485.491L540.472 485.547C541.712 485.549 542.72 484.464 542.722 483.123L542.724 481.771C542.724 481.771 544.217 477.71 541.165 472.695C541.165 472.695 537.355 476.61 531.682 470.457L530.012 467.172L517.866 476.739L511.141 477.622C509.67 477.815 508.366 477.586 507.607 478.962H507.607L507.607 478.962Z" fill="#2F2E41"/>
<path d="M592.913 460.448L585.258 466.689L559.347 437.746L570.644 428.536L592.913 460.448Z" fill="#A0616A"/>
<path d="M566.559 481.644C566.624 482.272 567.475 483.775 567.827 484.279C568.909 485.83 570.95 486.139 572.385 484.969L596.087 465.641C597.066 464.843 597.261 463.338 596.523 462.28L595.778 461.213C595.778 461.213 594.713 457.051 589.542 455.068C589.542 455.068 588.701 460.609 580.835 459.419L577.706 457.908L573.416 473.277L568.604 478.309C567.551 479.409 566.398 480.07 566.559 481.644L566.559 481.644V481.644Z" fill="#2F2E41"/>
<path d="M572.638 251.355C572.638 261.026 565.385 268.865 556.439 268.865C547.493 268.865 540.24 261.026 540.24 251.355C540.24 241.685 547.493 233.845 556.439 233.845C565.385 233.845 572.638 241.685 572.638 251.355Z" fill="#A0616A"/>
<path d="M571.111 352.313C571.111 352.313 511.47 348.664 508.094 355.962C504.718 363.26 526.344 463.511 526.344 463.511L545.639 459.14L536.226 388.805C536.226 388.805 585.996 403.053 592.748 386.023C599.5 368.993 597.556 362.652 597.556 362.652L571.111 352.313V352.313Z" fill="#2F2E41"/>
<path d="M586.392 340.062C586.392 340.062 527.982 353.597 526.512 361.601C525.043 369.605 570.433 460.1 570.433 460.1L587.971 450.367L561.681 385.229C561.681 385.229 613.164 384.738 615.508 366.384C617.852 348.031 614.425 342.471 614.425 342.471L586.392 340.062V340.062Z" fill="#2F2E41"/>
<path d="M593.055 271.422H564.993L545.792 305.482C545.792 305.482 541.29 327.492 545.792 329.867C550.293 332.242 550.293 357.787 550.293 357.787L597.556 362.652C597.556 362.652 604.308 286.019 602.057 278.721C599.807 271.422 593.055 271.422 593.055 271.422V271.422Z" fill="#765E82"/>
<path d="M548.605 293.926L545.792 329.867L514.148 315.35L506.596 311.245C505.117 309.16 503.197 307.488 500.998 306.369C495.529 303.488 489.722 304.202 488.026 307.963C486.33 311.724 489.388 317.108 494.856 319.987C497.027 321.171 499.428 321.775 501.86 321.75L523.957 335.316L523.983 335.263L524.081 335.452L558.733 351.096L566.706 303.914L548.605 293.926H548.605Z" fill="#A0616A"/>
<path d="M545.229 253.785C545.229 253.785 528.35 256.217 535.102 240.404C535.102 240.404 534.072 231.832 539.088 231.252C544.104 230.673 550.856 220.942 550.856 220.942C550.856 220.942 566.336 212.427 574.35 220.942C582.365 229.457 605.996 279.329 605.996 279.329L590.242 297.575C590.242 297.575 580.771 270.661 569.752 273.778C558.733 276.896 548.605 286.192 548.605 286.192C548.605 286.192 537.423 280.142 542.452 274.87C547.48 269.598 545.229 253.785 545.229 253.785Z" fill="#2F2E41"/>
<path d="M567.736 280.545C567.736 280.545 559.858 269.598 554.232 278.113C548.605 286.627 544.104 297.575 544.104 297.575L566.61 306.09L567.736 280.545H567.736Z" fill="#765E82"/>
<path d="M653.189 483.113L627.04 393.275L627.044 393.274H627.105L626.999 393.127L626.997 393.124L625.134 386.725L625.135 386.724C627.972 384.082 629.904 380.305 630.289 375.958L618.336 304.897C619.159 295.566 612.541 287.409 603.871 287.075L576.902 287.001C569.235 286.708 562.595 292.695 561.478 300.9L560.882 305.256L552.619 366.015C552.318 368.201 552.438 370.354 552.914 372.369L546.968 373.209L545.164 373.47L538.033 374.473L538.011 374.481L537.12 374.604H536.154V400.705H536.215V484.131C536.215 484.669 536.622 485.11 537.12 485.11C537.626 485.11 538.033 484.669 538.033 484.131V400.705H548.613L559.169 484.033C559.237 484.522 559.622 484.881 560.075 484.881C560.112 484.881 560.158 484.881 560.195 484.873C560.693 484.8 561.041 484.302 560.973 483.764L550.454 400.705H601.215C606.255 400.705 610.925 398.976 614.728 396.016L634.854 483.88C634.959 484.325 635.329 484.62 635.735 484.62C635.809 484.62 635.884 484.611 635.959 484.59C636.446 484.456 636.74 483.921 636.616 483.396L616.295 394.681C616.566 394.438 616.836 394.178 617.091 393.91L625.17 393.397L651.455 483.703C651.577 484.122 651.935 484.391 652.322 484.391C652.412 484.391 652.504 484.376 652.595 484.345C653.073 484.182 653.34 483.63 653.189 483.113V483.113ZM623.407 388.119C623.475 388.078 623.535 388.03 623.596 387.989L623.596 387.988L623.79 388.655L623.407 388.119V388.119Z" fill="#E6E6E6"/>
<path d="M140.109 330.834L157.707 318.737L164.862 323.402L140.109 354.146V330.834Z" fill="#FFB6B6"/>
<path d="M116.044 284.011C116.044 284.011 104.356 286.983 109.856 304.078C115.357 321.172 133.234 356.847 138.734 354.617C144.235 352.387 144.922 330.091 144.922 330.091C144.922 330.091 144.235 330.834 141.484 327.861C138.734 324.888 138.734 326.246 138.734 322.966C138.734 319.685 136.485 317.254 136.485 317.254L133.921 311.51C133.921 311.51 133.921 284.754 123.608 283.267C113.294 281.781 116.044 284.011 116.044 284.011L116.044 284.011Z" fill="#E6E6E6"/>
<path d="M170.654 322.602C175.219 317.668 176.634 311.198 173.815 308.15C170.995 305.102 165.009 306.632 160.444 311.566C155.88 316.5 154.465 322.971 157.284 326.018C160.104 329.066 166.09 327.536 170.654 322.602Z" fill="#FFB6B6"/>
<path d="M70.5166 382.488L82.5247 403.973L152.503 399.497L133.87 373.537L70.5166 382.488Z" fill="#E6E6E6"/>
<path d="M91.4264 482.972C91.0188 482.972 90.6638 482.647 90.607 482.198L69.6962 317.117C69.6342 316.627 69.9512 316.176 70.4043 316.109C70.8572 316.038 71.2749 316.384 71.3372 316.874L92.2479 481.955C92.31 482.445 91.9929 482.897 91.5398 482.964C91.5016 482.969 91.4638 482.972 91.4264 482.972Z" fill="#E6E6E6"/>
<path d="M70.5166 483.182C70.0593 483.182 69.6885 482.781 69.6885 482.287V317.028C69.6885 316.533 70.0593 316.132 70.5166 316.132C70.974 316.132 71.3448 316.533 71.3448 317.028V482.287C71.3448 482.781 70.974 483.182 70.5166 483.182Z" fill="#E6E6E6"/>
<path d="M175.484 482.525C175.132 482.525 174.806 482.28 174.695 481.898L125.213 311.893C125.075 311.422 125.318 310.919 125.754 310.771C126.19 310.623 126.656 310.885 126.793 311.356L176.274 481.361C176.412 481.832 176.169 482.335 175.733 482.483C175.65 482.511 175.567 482.525 175.484 482.525V482.525Z" fill="#E6E6E6"/>
<path d="M160.37 482.734C160 482.734 159.664 482.465 159.568 482.06L125.2 332.019C125.087 331.54 125.355 331.052 125.798 330.93C126.243 330.809 126.693 331.098 126.805 331.577L161.173 481.618C161.286 482.097 161.018 482.585 160.575 482.707C160.506 482.726 160.438 482.734 160.37 482.734H160.37Z" fill="#E6E6E6"/>
<path d="M70.5166 319.66L127.866 318.707L138.425 383.831H71.3447L70.5166 319.66Z" fill="#E6E6E6"/>
<path d="M158.648 415.421L144.195 442.926L160.976 446.92L167.973 427.357L158.648 415.421Z" fill="#FFB6B6"/>
<path d="M149.386 437.733C149.386 437.733 148.825 433.248 145.523 434.671C142.221 436.095 132.692 441.385 132.692 441.385C132.692 441.385 157.546 485.037 162.263 483.004C166.98 480.971 161.333 468.631 161.333 468.631L162.579 446.819L149.386 437.733H149.386Z" fill="#2F2E41"/>
<path d="M94.7298 362.049C94.7298 362.049 89.573 387.691 105.387 396.609C121.201 405.528 175.176 383.603 175.176 383.603L150.423 423.693L167.613 431.169C167.613 431.169 206.804 375.427 204.054 366.509C201.304 357.59 182.739 356.847 182.739 356.847L140.797 359.076L129.796 355.36L94.7298 362.049H94.7298Z" fill="#2F2E41"/>
<path d="M137.266 427.628L114.545 447.563L128.831 457.883L141.933 442.413L137.266 427.628Z" fill="#FFB6B6"/>
<path d="M121.128 444.768C121.128 444.768 122.115 440.369 118.561 440.396C115.006 440.423 104.35 441.603 104.35 441.603C104.35 441.603 112.804 492.039 117.882 492C122.96 491.961 121.855 478.247 121.855 478.247L130.358 458.42L121.128 444.768V444.768Z" fill="#2F2E41"/>
<path d="M95.6966 352.774C95.6966 352.774 82.2616 374.629 93.9893 389.157C105.717 403.684 163.372 404.492 163.372 404.492L126.82 432.098L140.315 445.823C140.315 445.823 195.584 409.318 196.025 399.929C196.465 390.54 179.424 382.545 179.424 382.545L139.607 368.125L130.611 360.337L95.6966 352.774H95.6966Z" fill="#2F2E41"/>
<path d="M130.21 302.153C130.21 302.153 117.146 296.95 110.958 296.95C110.367 296.95 109.782 297.025 109.198 297.158C105.238 298.065 101.593 301.744 99.8471 303.751C99.1663 304.539 98.7745 305.066 98.7745 305.066C98.7745 305.066 98.8157 304.553 98.8982 303.654C99.3039 298.927 100.803 283.416 103.491 273.487C104.454 269.941 105.561 267.11 106.833 265.735C109.796 262.524 111.165 258.674 111.797 255.805C112.333 253.345 112.333 251.613 112.333 251.613L107.321 249.28L106.393 242.724C106.228 243.497 105.465 245.006 102.9 247.897C102.68 248.143 102.439 248.351 102.185 248.529C98.4856 251.041 90.943 246.671 86.8794 243.921C88.5708 237.566 91.6374 231.754 97.2068 230.803C110.271 228.573 110.271 220.398 118.522 229.317C119.202 230.052 119.89 230.759 120.577 231.442C123.218 236.898 124.18 244.211 124.524 249.295C124.772 252.855 124.71 255.33 124.71 255.33C124.71 255.33 128.148 277.626 133.648 282.086C139.149 286.545 130.21 302.153 130.21 302.153V302.153Z" fill="#2F2E41"/>
<path d="M104.77 266.478L95.4795 281.208L116.459 287.288V266.478H104.77Z" fill="#FFB6B6"/>
<path opacity="0.1" d="M104.77 266.478L95.4795 281.208L116.459 287.288V266.478H104.77Z" fill="black"/>
<path d="M117.763 280.666L97.8238 271.747C97.8238 271.747 71.0085 284.382 73.0712 308.909C75.1339 333.435 94.386 375.799 94.386 375.799L132.89 357.962L128.765 310.395L117.763 280.666V280.666Z" fill="#E6E6E6"/>
<path d="M109.214 273.054C118.93 273.054 126.806 264.541 126.806 254.039C126.806 243.537 118.93 235.023 109.214 235.023C99.4986 235.023 91.6226 243.537 91.6226 254.039C91.6226 264.541 99.4986 273.054 109.214 273.054Z" fill="#FFB6B6"/>
<path d="M132.96 247.154C129.522 250.87 126.772 254.586 126.772 254.586L125.397 248.641C125.397 248.641 125.081 248.893 124.524 249.295C122.344 250.9 116.493 254.936 111.797 255.805C109.707 256.192 107.85 255.946 106.64 254.586C104.075 251.695 103.312 250.186 103.147 249.413L102.219 255.969L97.2064 258.302C97.2064 258.302 97.2064 266.463 102.707 272.424C102.975 272.714 103.236 273.07 103.491 273.487C106.117 277.768 108.001 288.247 109.198 297.158C110.257 305.081 110.765 311.755 110.765 311.755C110.765 311.755 105.56 304.709 99.8467 303.751C99.5304 303.699 99.2141 303.661 98.8979 303.654C98.7947 303.639 98.6847 303.639 98.5816 303.639C92.3934 303.639 79.3295 308.842 79.3295 308.842C79.3295 308.842 70.3911 293.234 75.8917 288.775C81.3922 284.315 84.8301 262.019 84.8301 262.019C84.8301 262.019 84.6032 252.476 86.8791 243.921C88.5705 237.566 91.6371 231.754 97.2064 230.803C110.27 228.573 110.27 220.398 118.521 229.317C119.202 230.052 119.889 230.759 120.577 231.442C128.264 239.083 136.116 243.743 132.96 247.154V247.154Z" fill="#2F2E41"/>
<path d="M55.8052 346.922H49.272V486.397H55.8052V346.922Z" fill="#3F3D56"/>
<path d="M214.236 346.922H207.703V486.397H214.236V346.922Z" fill="#3F3D56"/>
<path d="M172.587 287.778H129.304V334.564H172.587V287.778Z" fill="#765E82"/>
<path d="M104.356 337.523L121.954 325.426L129.109 330.091L104.356 360.835V337.523Z" fill="#FFB6B6"/>
<path d="M80.2908 290.7C80.2908 290.7 68.6021 293.673 74.1027 310.767C79.6033 327.861 97.4802 363.536 102.981 361.306C108.481 359.076 109.169 336.78 109.169 336.78C109.169 336.78 108.481 337.523 105.731 334.55C102.981 331.577 102.981 332.935 102.981 329.655C102.981 326.374 100.731 323.943 100.731 323.943L98.1677 318.199C98.1677 318.199 98.1677 291.443 87.8541 289.956C77.5405 288.47 80.2908 290.7 80.2908 290.7H80.2908Z" fill="#E6E6E6"/>
<path d="M134.901 329.291C139.466 324.357 140.881 317.887 138.061 314.839C135.242 311.791 129.256 313.321 124.691 318.255C120.126 323.189 118.711 329.66 121.531 332.707C124.35 335.755 130.336 334.226 134.901 329.291Z" fill="#FFB6B6"/>
<path d="M227.303 341.626H29.6724V357.515H227.303V341.626Z" fill="#3F3D56"/>
<path d="M428.093 214.509H398.906C396.592 214.509 394.716 216.537 394.716 219.038V232.05C394.716 234.551 396.592 236.578 398.906 236.578H428.093C430.407 236.578 432.282 234.551 432.282 232.05V219.038C432.282 216.537 430.407 214.509 428.093 214.509Z" fill="#3F3D56"/>
<path d="M489.342 227.521H460.155C457.841 227.521 455.965 229.549 455.965 232.05V232.05C455.965 234.551 457.841 236.578 460.155 236.578H489.342C491.656 236.578 493.531 234.551 493.531 232.05C493.531 229.549 491.656 227.521 489.342 227.521Z" fill="#765E82"/>
</svg>
