<svg id="visual" viewBox="0 0 1980 849" width="1980" height="849" xmlns="http://www.w3.org/2000/svg" xmlns:xlink="http://www.w3.org/1999/xlink" version="1.1"><rect x="0" y="0" width="1980" height="849" fill="#fafafa"></rect><defs><linearGradient id="grad1_0" x1="57.1%" y1="100%" x2="100%" y2="0%"><stop offset="3.3568904593639566%" stop-color="#765e82" stop-opacity="1"></stop><stop offset="96.64310954063605%" stop-color="#765e82" stop-opacity="1"></stop></linearGradient></defs><defs><linearGradient id="grad1_1" x1="57.1%" y1="100%" x2="100%" y2="0%"><stop offset="3.3568904593639566%" stop-color="#765e82" stop-opacity="1"></stop><stop offset="96.64310954063605%" stop-color="#b6a9bc" stop-opacity="1"></stop></linearGradient></defs><defs><linearGradient id="grad1_2" x1="57.1%" y1="100%" x2="100%" y2="0%"><stop offset="3.3568904593639566%" stop-color="#fafafa" stop-opacity="1"></stop><stop offset="96.64310954063605%" stop-color="#b6a9bc" stop-opacity="1"></stop></linearGradient></defs><defs><linearGradient id="grad2_0" x1="0%" y1="100%" x2="42.9%" y2="0%"><stop offset="3.3568904593639566%" stop-color="#765e82" stop-opacity="1"></stop><stop offset="96.64310954063605%" stop-color="#765e82" stop-opacity="1"></stop></linearGradient></defs><defs><linearGradient id="grad2_1" x1="0%" y1="100%" x2="42.9%" y2="0%"><stop offset="3.3568904593639566%" stop-color="#b6a9bc" stop-opacity="1"></stop><stop offset="96.64310954063605%" stop-color="#765e82" stop-opacity="1"></stop></linearGradient></defs><defs><linearGradient id="grad2_2" x1="0%" y1="100%" x2="42.9%" y2="0%"><stop offset="3.3568904593639566%" stop-color="#b6a9bc" stop-opacity="1"></stop><stop offset="96.64310954063605%" stop-color="#fafafa" stop-opacity="1"></stop></linearGradient></defs><g transform="translate(1980, 849)"><path d="M-484 0C-481.1 -50.5 -478.2 -100.9 -467 -151.7C-455.8 -202.5 -436.3 -253.7 -405.3 -294.5C-374.4 -335.3 -332 -365.8 -289.8 -398.8C-247.6 -431.9 -205.7 -467.5 -157.4 -484.5C-109.2 -501.4 -54.6 -499.7 0 -498L0 0Z" fill="#d8d1db"></path><path d="M-322.7 0C-320.7 -33.6 -318.8 -67.3 -311.3 -101.2C-303.8 -135 -290.8 -169.1 -270.2 -196.3C-249.6 -223.5 -221.3 -243.9 -193.2 -265.9C-165.1 -287.9 -137.1 -311.7 -104.9 -323C-72.8 -334.3 -36.4 -333.1 0 -332L0 0Z" fill="#96839f"></path><path d="M-161.3 0C-160.4 -16.8 -159.4 -33.6 -155.7 -50.6C-151.9 -67.5 -145.4 -84.6 -135.1 -98.2C-124.8 -111.8 -110.7 -121.9 -96.6 -132.9C-82.5 -144 -68.6 -155.8 -52.5 -161.5C-36.4 -167.1 -18.2 -166.6 0 -166L0 0Z" fill="#765e82"></path></g><g transform="translate(0, 0)"><path d="M484 0C472.2 47.9 460.4 95.8 450.8 146.5C441.2 197.2 434 250.7 410.2 298C386.4 345.3 346.1 386.4 299.4 412.1C252.7 437.8 199.6 448.2 148.6 457.5C97.7 466.7 48.8 474.9 0 483L0 0Z" fill="#d8d1db"></path><path d="M322.7 0C314.8 31.9 306.9 63.8 300.5 97.6C294.2 131.5 289.3 167.1 273.4 198.7C257.6 230.2 230.7 257.6 199.6 274.7C168.5 291.9 133.1 298.8 99.1 305C65.1 311.1 32.6 316.6 0 322L0 0Z" fill="#96839f"></path><path d="M161.3 0C157.4 16 153.5 31.9 150.3 48.8C147.1 65.7 144.7 83.6 136.7 99.3C128.8 115.1 115.4 128.8 99.8 137.4C84.2 145.9 66.5 149.4 49.5 152.5C32.6 155.6 16.3 158.3 0 161L0 0Z" fill="#765e82"></path></g></svg>