<svg id="visual" viewBox="0 0 1980 849" width="1980" height="849" xmlns="http://www.w3.org/2000/svg" xmlns:xlink="http://www.w3.org/1999/xlink" version="1.1"><rect x="0" y="0" width="1980" height="849" fill="#ffffff"></rect><defs><linearGradient id="grad1_0" x1="57.1%" y1="100%" x2="100%" y2="0%"><stop offset="3.3568904593639566%" stop-color="#765e82" stop-opacity="1"></stop><stop offset="96.64310954063605%" stop-color="#765e82" stop-opacity="1"></stop></linearGradient></defs><defs><linearGradient id="grad1_1" x1="57.1%" y1="100%" x2="100%" y2="0%"><stop offset="3.3568904593639566%" stop-color="#765e82" stop-opacity="1"></stop><stop offset="96.64310954063605%" stop-color="#b9abbf" stop-opacity="1"></stop></linearGradient></defs><defs><linearGradient id="grad1_2" x1="57.1%" y1="100%" x2="100%" y2="0%"><stop offset="3.3568904593639566%" stop-color="#ffffff" stop-opacity="1"></stop><stop offset="96.64310954063605%" stop-color="#b9abbf" stop-opacity="1"></stop></linearGradient></defs><defs><linearGradient id="grad2_0" x1="0%" y1="100%" x2="42.9%" y2="0%"><stop offset="3.3568904593639566%" stop-color="#765e82" stop-opacity="1"></stop><stop offset="96.64310954063605%" stop-color="#765e82" stop-opacity="1"></stop></linearGradient></defs><defs><linearGradient id="grad2_1" x1="0%" y1="100%" x2="42.9%" y2="0%"><stop offset="3.3568904593639566%" stop-color="#b9abbf" stop-opacity="1"></stop><stop offset="96.64310954063605%" stop-color="#765e82" stop-opacity="1"></stop></linearGradient></defs><defs><linearGradient id="grad2_2" x1="0%" y1="100%" x2="42.9%" y2="0%"><stop offset="3.3568904593639566%" stop-color="#b9abbf" stop-opacity="1"></stop><stop offset="96.64310954063605%" stop-color="#ffffff" stop-opacity="1"></stop></linearGradient></defs><g transform="translate(1980, 849)"><path d="M-382 0C-372.8 -68.1 -363.6 -136.2 -330.9 -191C-298.2 -245.8 -242.1 -287.3 -183 -317C-123.9 -346.6 -62 -364.3 0 -382L0 0Z" fill="#dbd4de"></path><path d="M-254.7 0C-248.5 -45.4 -242.4 -90.8 -220.6 -127.3C-198.8 -163.9 -161.4 -191.6 -122 -211.3C-82.6 -231.1 -41.3 -242.9 0 -254.7L0 0Z" fill="#9784a0"></path><path d="M-127.3 0C-124.3 -22.7 -121.2 -45.4 -110.3 -63.7C-99.4 -81.9 -80.7 -95.8 -61 -105.7C-41.3 -115.5 -20.7 -121.4 0 -127.3L0 0Z" fill="#765e82"></path></g><g transform="translate(0, 0)"><path d="M382 0C372.5 67.5 362.9 135.1 330.9 191C298.8 247 244.4 291.4 185.5 321.3C126.6 351.2 63.3 366.6 0 382L0 0Z" fill="#dbd4de"></path><path d="M254.7 0C248.3 45 241.9 90 220.6 127.3C199.2 164.7 162.9 194.3 123.7 214.2C84.4 234.1 42.2 244.4 0 254.7L0 0Z" fill="#9784a0"></path><path d="M127.3 0C124.2 22.5 121 45 110.3 63.7C99.6 82.3 81.5 97.1 61.8 107.1C42.2 117.1 21.1 122.2 0 127.3L0 0Z" fill="#765e82"></path></g></svg>