<svg width="569" height="408" viewBox="0 0 569 408" fill="none" xmlns="http://www.w3.org/2000/svg">
<path opacity="0.1" d="M296.473 408C396.215 408 477.072 403.798 477.072 398.616C477.072 393.433 396.215 389.231 296.473 389.231C196.73 389.231 115.873 393.433 115.873 398.616C115.873 403.798 196.73 408 296.473 408Z" fill="#765E82"/>
<path d="M398.77 361.824L397.217 364.011L387.613 377.73L379.459 380.091L373.376 374.375L373.671 370.602L375.188 351.014C375.188 351.014 337.549 329.755 334.184 325.779C330.818 321.802 317.875 318.199 317.875 318.199C317.875 318.199 298.072 309.376 290.694 293.968C283.317 278.559 302.991 276.198 302.991 276.198L376.896 344.055L398.77 361.824Z" fill="#A0616A"/>
<path d="M407.832 369.777L384.404 390.778C384.404 390.778 370.943 393.263 358.906 391.523C351.213 390.41 352.693 386.359 354.718 383.57L354.754 383.52C355.967 381.926 357.739 380.806 359.745 380.369C369.706 378.063 373.144 371.139 373.144 371.139L380.392 377.103L392.947 363.057L402.23 367.242L407.832 369.777Z" fill="#575988"/>
<path opacity="0.1" d="M402.229 367.252L396.715 364.767L397.233 364.011L398.786 361.824L376.896 344.055L302.991 276.208C302.991 276.208 283.317 278.559 290.694 293.968C298.072 309.376 317.875 318.199 317.875 318.199C317.875 318.199 330.818 321.802 334.184 325.779C337.549 329.755 375.214 351.004 375.214 351.004L373.697 370.592L373.624 371.527L373.142 371.134C373.142 371.134 369.705 378.058 359.744 380.364C357.738 380.801 355.965 381.921 354.753 383.515L354.717 383.565C352.646 386.349 351.212 390.4 358.905 391.518C370.942 393.258 384.403 390.772 384.403 390.772L407.83 369.772L402.229 367.252Z" fill="black"/>
<path opacity="0.1" d="M7.13477 213.72C16.1225 250.6 35.1491 282.481 65.2134 297.944C127.708 330.063 268.64 313.497 373.816 294.465C426.965 284.883 475.208 258.405 510.776 219.296L7.13477 213.72Z" fill="#765E82"/>
<path opacity="0.1" d="M558.696 40.1215H500.986C499.69 40.0815 498.463 39.5594 497.561 38.6656C496.66 37.7719 496.155 36.5766 496.155 35.3325C496.155 34.0884 496.66 32.8931 497.561 31.9994C498.463 31.1056 499.69 30.5835 500.986 30.5435H510.962C509.64 30.5435 508.372 30.0392 507.437 29.1415C506.502 28.2439 505.977 27.0264 505.977 25.7569C505.977 24.4874 506.502 23.2699 507.437 22.3723C508.372 21.4746 509.64 20.9704 510.962 20.9704H503.838C502.543 20.9303 501.315 20.4082 500.414 19.5144C499.512 18.6207 499.008 17.4254 499.008 16.1813C499.008 14.9373 499.512 13.742 500.414 12.8482C501.315 11.9544 502.543 11.4323 503.838 11.3923H533.962C527.277 8.41003 519.464 6.28762 510.46 5.17427C428.328 -4.95058 399.004 1.74463 388.659 8.65356C375.897 17.153 361.659 23.4059 346.444 26.418C295.768 36.4533 200.998 48.5266 115.102 22.5509C72.4097 9.62777 40.6835 31.458 21.6621 67.9213H568.715C568 57.3245 565.862 47.5424 561.937 38.9733C561.036 39.7154 559.887 40.1227 558.696 40.1215Z" fill="#765E82"/>
<path opacity="0.1" d="M2.23649 136.737C0.01984 158.187 0.771908 179.825 4.47308 201.085L511.164 218.874C525.273 203.299 537.115 185.96 546.367 167.33L2.23649 136.737ZM202.639 182.629H192.662C193.331 182.609 193.997 182.717 194.621 182.949C195.245 183.18 195.814 183.53 196.295 183.976C196.775 184.423 197.158 184.958 197.418 185.549C197.679 186.141 197.814 186.776 197.814 187.419C197.814 188.061 197.679 188.696 197.418 189.288C197.158 189.879 196.775 190.414 196.295 190.861C195.814 191.308 195.245 191.657 194.621 191.888C193.997 192.12 193.331 192.228 192.662 192.208H134.951C133.656 192.167 132.428 191.646 131.526 190.752C130.625 189.858 130.121 188.663 130.121 187.419C130.121 186.175 130.625 184.979 131.526 184.085C132.428 183.191 133.656 182.67 134.951 182.629H144.928C143.606 182.629 142.337 182.125 141.402 181.228C140.467 180.33 139.942 179.113 139.942 177.843C139.942 176.573 140.467 175.356 141.402 174.458C142.337 173.561 143.606 173.057 144.928 173.057H137.804C136.508 173.016 135.28 172.494 134.379 171.601C133.477 170.707 132.974 169.511 132.974 168.267C132.974 167.023 133.477 165.828 134.379 164.934C135.28 164.04 136.508 163.518 137.804 163.478H195.515C196.81 163.518 198.038 164.04 198.94 164.934C199.841 165.828 200.345 167.023 200.345 168.267C200.345 169.511 199.841 170.707 198.94 171.601C198.038 172.494 196.81 173.016 195.515 173.057H202.639C203.961 173.057 205.229 173.561 206.164 174.458C207.099 175.356 207.625 176.573 207.625 177.843C207.625 179.113 207.099 180.33 206.164 181.228C205.229 182.125 203.961 182.629 202.639 182.629Z" fill="#765E82"/>
<path opacity="0.1" d="M568.74 68.2393L15.5567 81.1625C8.82622 97.7689 4.38927 116.523 2.31836 136.002H559.047C562.682 124.57 565.369 112.882 567.088 101.045C568.745 89.6074 569.408 78.543 568.74 68.2393ZM114.624 110.558H104.648C105.316 110.537 105.982 110.646 106.606 110.877C107.23 111.108 107.799 111.458 108.28 111.904C108.761 112.352 109.143 112.886 109.404 113.478C109.665 114.069 109.799 114.704 109.799 115.347C109.799 115.989 109.665 116.625 109.404 117.216C109.143 117.808 108.761 118.342 108.28 118.789C107.799 119.236 107.23 119.585 106.606 119.817C105.982 120.048 105.316 120.156 104.648 120.136H46.9362C45.6411 120.096 44.4129 119.574 43.5114 118.68C42.61 117.786 42.106 116.591 42.106 115.347C42.106 114.103 42.61 112.908 43.5114 112.014C44.4129 111.12 45.6411 110.598 46.9362 110.558H56.9127C55.5903 110.558 54.3223 110.054 53.3872 109.156C52.4524 108.258 51.9271 107.041 51.9271 105.771C51.9271 104.502 52.4524 103.285 53.3872 102.387C54.3223 101.489 55.5903 100.985 56.9127 100.985H49.7889C48.4937 100.945 47.2656 100.422 46.3641 99.5291C45.4627 98.6353 44.9587 97.4397 44.9587 96.1959C44.9587 94.9516 45.4627 93.7566 46.3641 92.8627C47.2656 91.9689 48.4937 91.4469 49.7889 91.4067H107.5C108.795 91.4469 110.024 91.9689 110.925 92.8627C111.826 93.7566 112.33 94.9516 112.33 96.1959C112.33 97.4397 111.826 98.6353 110.925 99.5291C110.024 100.422 108.795 100.945 107.5 100.985H114.624C115.946 100.985 117.214 101.489 118.15 102.387C119.085 103.285 119.61 104.502 119.61 105.771C119.61 107.041 119.085 108.258 118.15 109.156C117.214 110.054 115.946 110.558 114.624 110.558Z" fill="#765E82"/>
<g opacity="0.1">
<path d="M413.789 245.351C413.789 245.351 428.389 210.807 455.653 197.993C467.125 192.689 476.494 183.955 482.352 173.101C485.092 167.929 487.333 162.526 489.046 156.962" stroke="#535461" stroke-width="2" stroke-miterlimit="10"/>
<path d="M506.178 148.791C503.336 152.22 488.627 157.24 488.627 157.24C488.627 157.24 490.398 142.354 493.24 138.925C493.889 138.035 494.72 137.283 495.682 136.715C496.644 136.146 497.718 135.772 498.836 135.616C499.955 135.46 501.095 135.526 502.186 135.809C503.277 136.092 504.296 136.586 505.181 137.262C506.066 137.937 506.797 138.779 507.33 139.736C507.863 140.693 508.186 141.744 508.28 142.826C508.374 143.907 508.237 144.996 507.876 146.024C507.515 147.052 506.939 147.999 506.183 148.806L506.178 148.791Z" fill="#765E82"/>
<path d="M501.131 175.954C496.803 177.351 481.623 173.877 481.623 173.877C481.623 173.877 491.537 162.305 495.866 160.909C496.914 160.496 498.04 160.295 499.173 160.316C500.305 160.338 501.421 160.583 502.452 161.035C503.482 161.487 504.405 162.137 505.163 162.946C505.921 163.755 506.499 164.703 506.859 165.734C507.22 166.766 507.357 167.857 507.261 168.94C507.165 170.025 506.839 171.078 506.302 172.036C505.765 172.994 505.029 173.836 504.14 174.51C503.25 175.184 502.226 175.675 501.131 175.954Z" fill="#765E82"/>
<path d="M473.765 208.068C469.297 207.173 458.016 196.82 458.016 196.82C458.016 196.82 472.662 191.636 477.13 192.526C479.164 193.06 480.909 194.318 482.009 196.043C483.11 197.77 483.484 199.834 483.055 201.815C482.626 203.797 481.426 205.547 479.7 206.708C477.974 207.87 475.851 208.357 473.765 208.068Z" fill="#765E82"/>
<path d="M447.36 227.885C442.798 227.736 429.855 219.356 429.855 219.356C429.855 219.356 443.378 211.871 447.939 212.025C449.073 211.991 450.202 212.18 451.256 212.582C452.31 212.984 453.267 213.59 454.067 214.361C454.867 215.132 455.494 216.053 455.909 217.067C456.323 218.08 456.517 219.165 456.477 220.253C456.437 221.34 456.165 222.409 455.677 223.392C455.19 224.376 454.497 225.252 453.643 225.967C452.788 226.683 451.79 227.222 450.708 227.553C449.628 227.882 448.488 227.996 447.36 227.885Z" fill="#765E82"/>
<path d="M467.489 164.169C468.068 168.518 477.957 180.11 477.957 180.11C477.957 180.11 484.47 166.49 483.885 162.146C483.48 160.165 482.306 158.407 480.6 157.227C478.895 156.046 476.786 155.532 474.7 155.79C472.615 156.047 470.71 157.056 469.37 158.612C468.031 160.168 467.359 162.155 467.489 164.169Z" fill="#765E82"/>
<path d="M436.912 187.724C438.822 191.7 451.874 199.927 451.874 199.927C451.874 199.927 453.836 185.065 451.926 181.084C450.922 179.311 449.253 177.971 447.258 177.336C445.264 176.7 443.092 176.816 441.183 177.66C439.274 178.505 437.771 180.014 436.977 181.883C436.185 183.751 436.161 185.839 436.912 187.724Z" fill="#765E82"/>
<path d="M410.466 214.535C411.652 218.77 423.063 228.989 423.063 228.989C423.063 228.989 427.619 214.659 426.438 210.424C425.768 208.505 424.36 206.903 422.503 205.946C420.644 204.988 418.476 204.747 416.439 205.271C414.403 205.795 412.651 207.045 411.541 208.767C410.431 210.488 410.047 212.551 410.466 214.535Z" fill="#765E82"/>
<path opacity="0.25" d="M506.178 148.791C503.336 152.22 488.627 157.24 488.627 157.24C488.627 157.24 490.398 142.354 493.24 138.925C493.889 138.035 494.72 137.283 495.682 136.715C496.644 136.146 497.718 135.772 498.836 135.616C499.955 135.46 501.095 135.526 502.186 135.809C503.277 136.092 504.296 136.586 505.181 137.262C506.066 137.937 506.797 138.779 507.33 139.736C507.863 140.693 508.186 141.744 508.28 142.826C508.374 143.907 508.237 144.996 507.876 146.024C507.515 147.052 506.939 147.999 506.183 148.806L506.178 148.791Z" fill="black"/>
<path opacity="0.25" d="M501.131 175.954C496.803 177.351 481.623 173.877 481.623 173.877C481.623 173.877 491.537 162.305 495.866 160.909C496.914 160.496 498.04 160.295 499.173 160.316C500.305 160.338 501.421 160.583 502.452 161.035C503.482 161.487 504.405 162.137 505.163 162.946C505.921 163.755 506.499 164.703 506.859 165.734C507.22 166.766 507.357 167.857 507.261 168.94C507.165 170.025 506.839 171.078 506.302 172.036C505.765 172.994 505.029 173.836 504.14 174.51C503.25 175.184 502.226 175.675 501.131 175.954Z" fill="black"/>
<path opacity="0.25" d="M473.765 208.068C469.297 207.173 458.016 196.82 458.016 196.82C458.016 196.82 472.662 191.636 477.13 192.526C479.164 193.06 480.909 194.318 482.009 196.043C483.11 197.77 483.484 199.834 483.055 201.815C482.626 203.797 481.426 205.547 479.7 206.708C477.974 207.87 475.851 208.357 473.765 208.068Z" fill="black"/>
<path opacity="0.25" d="M447.36 227.885C442.798 227.736 429.855 219.356 429.855 219.356C429.855 219.356 443.378 211.871 447.939 212.025C449.073 211.991 450.202 212.18 451.256 212.582C452.31 212.984 453.267 213.59 454.067 214.361C454.867 215.132 455.494 216.053 455.909 217.067C456.323 218.08 456.517 219.165 456.477 220.253C456.437 221.34 456.165 222.409 455.677 223.392C455.19 224.376 454.497 225.252 453.643 225.967C452.788 226.683 451.79 227.222 450.708 227.553C449.628 227.882 448.488 227.996 447.36 227.885Z" fill="black"/>
<path opacity="0.25" d="M467.489 164.169C468.068 168.518 477.957 180.11 477.957 180.11C477.957 180.11 484.47 166.49 483.885 162.146C483.48 160.165 482.306 158.407 480.6 157.227C478.895 156.046 476.786 155.532 474.7 155.79C472.615 156.047 470.71 157.056 469.37 158.612C468.031 160.168 467.359 162.155 467.489 164.169Z" fill="black"/>
<path opacity="0.25" d="M436.912 187.724C438.822 191.7 451.874 199.927 451.874 199.927C451.874 199.927 453.836 185.065 451.926 181.084C450.922 179.311 449.253 177.971 447.258 177.336C445.264 176.7 443.092 176.816 441.183 177.66C439.274 178.505 437.771 180.014 436.977 181.883C436.185 183.751 436.161 185.839 436.912 187.724Z" fill="black"/>
<path opacity="0.25" d="M410.466 214.535C411.652 218.77 423.063 228.989 423.063 228.989C423.063 228.989 427.619 214.659 426.438 210.424C425.768 208.505 424.36 206.903 422.503 205.946C420.644 204.988 418.476 204.747 416.439 205.271C414.403 205.795 412.651 207.045 411.541 208.767C410.431 210.488 410.047 212.551 410.466 214.535Z" fill="black"/>
</g>
<g opacity="0.1">
<path d="M390.545 190.085C390.545 190.085 392.388 152.846 413.682 132.075C422.672 123.419 428.494 112.198 430.275 100.095C431.069 94.338 431.311 88.5233 431 82.7233" stroke="#535461" stroke-width="2" stroke-miterlimit="10"/>
<path d="M444.351 69.5518C442.856 73.6969 430.71 83.1012 430.71 83.1012C430.71 83.1012 427.241 68.4931 428.732 64.3526C429.549 62.4916 431.073 60.999 432.995 60.1774C434.916 59.3558 437.091 59.2668 439.078 59.9282C441.066 60.59 442.716 61.9524 443.695 63.7396C444.675 65.5267 444.91 67.6044 444.351 69.5518Z" fill="#765E82"/>
<path d="M448.974 96.7896C445.35 99.4838 429.85 101.045 429.85 101.045C429.85 101.045 435.208 86.9681 438.806 84.2739C440.546 83.1363 442.671 82.677 444.75 82.9893C446.83 83.3017 448.708 84.3624 450.002 85.9552C451.296 87.5485 451.911 89.5555 451.719 91.5675C451.529 93.58 450.547 95.4471 448.974 96.7896Z" fill="#765E82"/>
<path d="M434.251 135.798C429.726 136.379 415.504 130.201 415.504 130.201C415.504 130.201 427.531 120.648 432.071 120.066C434.17 119.929 436.246 120.562 437.875 121.84C439.505 123.117 440.568 124.943 440.847 126.944C441.127 128.947 440.602 130.976 439.38 132.62C438.157 134.265 436.329 135.401 434.267 135.798H434.251Z" fill="#765E82"/>
<path d="M416.183 162.902C411.829 164.214 396.727 160.417 396.727 160.417C396.727 160.417 406.895 149.054 411.254 147.747C412.313 147.35 413.445 147.166 414.581 147.208C415.716 147.248 416.83 147.513 417.855 147.986C418.879 148.458 419.791 149.128 420.534 149.953C421.277 150.778 421.836 151.741 422.175 152.783C422.514 153.824 422.626 154.921 422.504 156.006C422.382 157.091 422.03 158.14 421.468 159.088C420.906 160.036 420.147 160.863 419.237 161.518C418.328 162.172 417.288 162.64 416.183 162.892V162.902Z" fill="#765E82"/>
<path d="M413.164 96.3821C415.235 100.299 428.551 108.087 428.551 108.087C428.551 108.087 429.985 93.1761 427.935 89.2543C426.87 87.514 425.154 86.2279 423.137 85.6566C421.12 85.0853 418.952 85.272 417.073 86.1785C415.195 87.0851 413.745 88.6443 413.019 90.5388C412.293 92.4339 412.345 94.5227 413.164 96.3821Z" fill="#765E82"/>
<path d="M392.454 128.342C395.633 131.488 410.782 135.092 410.782 135.092C410.782 135.092 407.505 120.439 404.326 117.293C402.767 115.932 400.727 115.192 398.62 115.224C396.514 115.257 394.499 116.058 392.986 117.466C391.474 118.874 390.577 120.783 390.478 122.803C390.379 124.824 391.086 126.805 392.454 128.342Z" fill="#765E82"/>
<path d="M376.768 162.052C379.356 165.67 393.646 171.679 393.646 171.679C393.646 171.679 392.988 156.709 390.415 153.09C389.113 151.514 387.238 150.469 385.166 150.167C383.095 149.865 380.981 150.327 379.251 151.462C377.521 152.596 376.303 154.318 375.842 156.28C375.381 158.242 375.711 160.299 376.768 162.037V162.052Z" fill="#765E82"/>
</g>
<path opacity="0.1" d="M224.146 42.4974C224.146 42.4974 211.808 41.7866 213.273 50.0873C213.198 50.5085 213.264 50.9415 213.461 51.3246C213.658 51.7076 213.976 52.021 214.371 52.2194C214.371 52.2194 214.371 51.6033 215.634 51.8119C216.076 51.8857 216.527 51.9076 216.975 51.8765C217.581 51.8363 218.157 51.6079 218.616 51.2254C218.616 51.2254 222.085 49.8487 223.431 44.4061C223.431 44.4061 224.43 43.2181 224.389 42.9149L222.318 43.7698C222.318 43.7698 223.027 45.2113 222.468 46.4092C222.468 46.4092 222.401 43.8195 222.002 43.8792C221.919 43.8792 220.92 44.3762 220.92 44.3762C220.92 44.3762 222.147 46.8913 221.22 48.7154C221.22 48.7154 221.572 45.6189 220.537 44.5601L219.072 45.3803C219.072 45.3803 220.5 47.9748 219.533 50.0923C219.533 50.0923 219.781 46.8466 218.766 45.5791L217.436 46.5732C217.436 46.5732 218.782 49.133 217.953 50.8876C217.953 50.8876 217.85 47.105 217.141 46.8217C216.638 47.2302 216.19 47.6958 215.805 48.2084C215.805 48.2084 216.721 50.0674 216.152 51.0468C216.152 51.0468 215.805 48.5265 215.515 48.5166C215.515 48.5166 214.355 50.1867 214.236 51.3302C214.292 50.269 214.637 49.2408 215.235 48.3476C214.567 48.4692 213.95 48.7749 213.46 49.2274C213.46 49.2274 213.641 48.0494 215.53 47.945C215.53 47.945 216.488 46.6776 216.742 46.603C216.742 46.603 214.873 46.4489 213.744 46.936C213.744 46.936 214.739 45.8227 217.084 46.3247L218.399 45.3008C218.399 45.3008 215.939 44.9777 214.893 45.3306C214.893 45.3306 216.095 44.3365 218.751 45.0671L220.18 44.247C219.081 44.0134 217.954 43.9198 216.83 43.9686C216.83 43.9686 218.15 43.2877 220.599 44.0233L221.634 43.5859C221.634 43.5859 220.081 43.2976 219.647 43.2479C219.212 43.1982 219.175 43.0839 219.175 43.0839C220.148 42.9282 221.146 43.0349 222.059 43.3921C222.059 43.3921 224.187 42.6316 224.146 42.4974Z" fill="#765E82"/>
<path opacity="0.1" d="M191.747 82.8921C191.747 82.8921 187.532 94.0511 196.235 95.0701C196.635 95.2578 197.087 95.3199 197.526 95.2466C197.965 95.1734 198.368 94.9688 198.679 94.6621C198.679 94.6621 198.068 94.4683 198.633 93.3852C198.825 92.997 198.967 92.588 199.057 92.1673C199.19 91.5985 199.126 91.0033 198.876 90.4722C198.876 90.4722 198.488 86.8887 193.435 84.105C193.435 84.105 192.528 82.8474 192.213 82.798L192.477 84.955C192.477 84.955 194.118 84.7114 195.158 85.5665C195.158 85.5665 192.57 84.8955 192.497 85.2781C192.497 85.3574 192.689 86.4161 192.689 86.4161C192.689 86.4161 195.547 86.004 197.11 87.3705C197.11 87.3705 194.118 86.1729 192.767 86.819L193.171 88.4047C193.171 88.4047 196.168 87.8227 198.006 89.3189C198.006 89.3189 194.832 88.1661 193.279 88.7425L193.895 90.2336C193.895 90.2336 196.831 89.7366 198.353 90.9743C198.353 90.9743 194.547 89.9803 194.061 90.5714C194.326 91.1514 194.665 91.6972 195.07 92.1968C195.07 92.1968 197.183 91.8788 198.001 92.6938C198.001 92.6938 195.386 92.3016 195.293 92.5646C195.293 92.5646 196.629 94.1055 197.737 94.5532C196.698 94.2017 195.773 93.5948 195.055 92.7935C194.992 93.435 195.123 94.0806 195.433 94.6524C195.433 94.6524 194.309 94.1554 194.739 92.3957C194.739 92.3957 193.745 91.1534 193.74 90.9046C193.74 90.9046 193.062 92.5844 193.222 93.7627C193.222 93.7627 192.394 92.53 193.564 90.5119L192.912 89.0208C192.912 89.0208 191.876 91.1931 191.949 92.2517C191.949 92.2517 191.307 90.87 192.777 88.6281L192.363 87.0825C191.822 88.0217 191.41 89.0244 191.136 90.0647C191.136 90.0647 190.83 88.653 192.264 86.615L192.114 85.5467C192.114 85.5467 191.389 86.8785 191.213 87.2815C191.037 87.6839 190.913 87.6691 190.913 87.6691C191.036 86.729 191.426 85.8397 192.042 85.099C192.042 85.099 191.892 82.8972 191.747 82.8921Z" fill="#765E82"/>
<path opacity="0.1" d="M273.567 73.4934C273.567 73.4934 269.348 84.6468 278.055 85.6657C278.454 85.854 278.905 85.9165 279.343 85.8443C279.781 85.7721 280.184 85.5686 280.494 85.2633C280.494 85.2633 279.888 85.0695 280.448 83.9808C280.646 83.5937 280.796 83.1847 280.893 82.7629C281.026 82.1952 280.961 81.6015 280.707 81.0729C280.707 81.0729 280.318 77.4895 275.265 74.7011C275.265 74.7011 274.364 73.4435 274.048 73.3937L274.307 75.5558C274.307 75.5558 275.954 75.3075 276.989 76.1622C276.989 76.1622 274.401 75.4912 274.333 75.8788C274.333 75.9536 274.525 77.0174 274.525 77.0174C274.525 77.0174 277.382 76.5997 278.941 77.9717C278.941 77.9717 275.954 76.7686 274.597 77.4198L275.001 79.0004C275.001 79.0004 277.999 78.4189 279.842 79.9151C279.842 79.9151 276.668 78.7618 275.115 79.3433L275.731 80.8344C275.731 80.8344 278.666 80.3373 280.189 81.5751C280.189 81.5751 276.384 80.581 275.897 81.1676C276.162 81.7465 276.499 82.2919 276.901 82.793C276.901 82.793 279.019 82.475 279.837 83.29C279.837 83.29 277.217 82.8972 277.129 83.1557C277.129 83.1557 278.465 84.6966 279.573 85.1438C278.532 84.7902 277.606 84.1823 276.886 83.3795C276.817 84.0292 276.948 84.6844 277.263 85.2633C277.263 85.2633 276.135 84.7663 276.565 83.0015C276.565 83.0015 275.576 81.7638 275.571 81.5105C275.571 81.5105 274.887 83.1857 275.053 84.3685C275.053 84.3685 274.224 83.1307 275.4 81.1177L274.742 79.6266C274.742 79.6266 273.707 81.7989 273.784 82.8627C273.784 82.8627 273.142 81.4759 274.613 79.2339L274.199 77.6884C273.657 78.627 273.244 79.6297 272.971 80.6705C272.971 80.6705 272.661 79.2639 274.095 77.2209L273.945 76.1571C273.945 76.1571 273.22 77.4895 273.049 77.8873C272.878 78.2846 272.749 78.2795 272.749 78.2795C272.868 77.3389 273.259 76.4491 273.878 75.7099C273.878 75.7099 273.707 73.4934 273.567 73.4934Z" fill="#765E82"/>
<path opacity="0.1" d="M139.875 59.5161C139.875 59.5161 135.656 70.675 144.364 71.6889C144.763 71.8787 145.214 71.9423 145.652 71.8695C146.09 71.7973 146.493 71.5928 146.803 71.286C146.803 71.286 146.197 71.0922 146.756 70.0086C146.953 69.621 147.102 69.2119 147.201 68.7912C147.332 68.2215 147.267 67.6267 147.015 67.0961C147.015 67.0961 146.627 63.5127 141.574 60.7238C141.574 60.7238 140.673 59.4713 140.357 59.422L140.616 61.579C140.616 61.579 142.257 61.3353 143.297 62.1905C143.297 62.1905 140.709 61.5144 140.642 61.902C140.642 61.9814 140.833 63.0401 140.833 63.0401C140.833 63.0401 143.691 62.628 145.249 63.9944C145.249 63.9944 142.257 62.7918 140.906 63.443L141.31 65.0287C141.31 65.0287 144.307 64.4467 146.145 65.9429C146.145 65.9429 142.976 64.7901 141.424 65.3665L142.04 66.8576C142.04 66.8576 144.975 66.3605 146.497 67.5983C146.497 67.5983 142.687 66.6042 142.205 67.1908C142.47 67.7712 142.808 68.3186 143.209 68.8207C143.209 68.8207 145.327 68.4977 146.14 69.3178C146.14 69.3178 143.525 68.9255 143.432 69.1885C143.432 69.1885 144.773 70.7244 145.881 71.1772C144.839 70.8256 143.913 70.2167 143.194 69.4124C143.126 70.0625 143.257 70.7173 143.572 71.2962C143.572 71.2962 142.444 70.7992 142.873 69.0395C142.873 69.0395 141.879 67.7972 141.879 67.5484C141.879 67.5484 141.196 69.2287 141.361 70.4064C141.361 70.4064 140.533 69.1738 141.703 67.1557L141.051 65.6646C141.051 65.6646 140.015 67.8419 140.088 68.9006C140.088 68.9006 139.446 67.5189 140.916 65.2769L140.507 63.7263C139.965 64.6649 139.553 65.6676 139.28 66.7085C139.28 66.7085 138.969 65.3019 140.404 63.2588L140.253 62.1951C140.253 62.1951 139.529 63.5274 139.358 63.9298C139.187 64.3327 139.057 64.3175 139.057 64.3175C139.176 63.3779 139.566 62.4881 140.181 61.7479C140.181 61.7479 140.036 59.5212 139.875 59.5161Z" fill="#765E82"/>
<path opacity="0.1" d="M269.494 135.206C269.494 135.206 272.75 146.638 280.475 142.662C280.914 142.595 281.32 142.397 281.634 142.095C281.948 141.793 282.155 141.404 282.225 140.982C282.225 140.982 281.614 141.156 281.417 139.958C281.347 139.533 281.223 139.117 281.05 138.721C280.816 138.184 280.407 137.734 279.885 137.438C279.885 137.438 277.415 134.729 271.601 135.246C271.601 135.246 270.11 134.719 269.82 134.854L271.332 136.474C271.332 136.474 272.523 135.365 273.884 135.48C273.884 135.48 271.352 136.37 271.544 136.713C271.58 136.782 272.383 137.538 272.383 137.538C272.383 137.538 274.454 135.619 276.566 135.873C276.566 135.873 273.403 136.548 272.683 137.826L273.967 138.9C273.967 138.9 276.069 136.762 278.466 136.966C278.466 136.966 275.184 137.781 274.262 139.113L275.671 140.003C275.671 140.003 277.741 137.96 279.755 138.139C279.755 138.139 276.064 139.451 276.007 140.182C276.573 140.509 277.178 140.77 277.809 140.957C277.809 140.957 279.362 139.526 280.491 139.729C280.491 139.729 278.119 140.853 278.202 141.121C278.202 141.121 280.216 141.618 281.386 141.38C280.326 141.668 279.204 141.683 278.135 141.424C278.468 141.993 278.966 142.456 279.569 142.757C279.569 142.757 278.347 142.97 277.643 141.295C277.643 141.295 276.09 140.833 275.93 140.624C275.93 140.624 276.38 142.369 277.224 143.244C277.224 143.244 275.805 142.697 275.552 140.4L274.128 139.551C274.128 139.551 274.594 141.891 275.282 142.727C275.282 142.727 273.926 141.951 273.781 139.307L272.512 138.273C272.639 139.346 272.908 140.398 273.315 141.405C273.315 141.405 272.217 140.41 272.165 137.96L271.399 137.174C271.399 137.174 271.606 138.666 271.71 139.088C271.813 139.511 271.71 139.585 271.71 139.585C271.242 138.751 271.025 137.808 271.083 136.862C271.083 136.862 269.613 135.127 269.494 135.206Z" fill="#765E82"/>
<path d="M423.203 199.693C424.332 200.946 425.578 202.097 426.925 203.133L437.011 211.384C438.807 212.85 440.635 214.366 442.913 215.057C444.261 215.464 445.688 215.568 447.085 215.362C448.481 215.156 449.81 214.645 450.968 213.869L450.797 213.814L450.968 213.705C449.265 213.178 447.52 212.631 446.117 211.572C445.539 211.157 445.054 210.635 444.687 210.038C444.321 209.441 444.082 208.78 443.985 208.093C443.985 208.024 443.985 207.959 443.985 207.889C443.988 207.701 444.007 207.513 444.042 207.328C446.215 207.15 448.304 206.443 450.114 205.275L449.939 205.215L450.114 205.111C444.74 203.456 441.018 198.615 439.33 193.49C437.642 188.365 437.637 182.908 437.456 177.545C437.275 172.182 436.861 166.67 434.448 161.818C433.542 159.999 432.377 158.269 431.937 156.301C431.816 155.717 431.758 155.122 431.766 154.527C431.802 152.613 432.382 150.689 432.916 148.82C434.101 144.647 435.048 140.414 435.752 136.141C436.03 134.622 436.184 133.085 436.213 131.543C436.262 130.039 436.011 128.539 435.473 127.125C433.102 121.21 424.86 118.421 423.601 112.213C423.454 111.377 423.392 110.53 423.415 109.683C423.415 109.216 423.415 108.754 423.415 108.291C423.415 107.829 423.415 107.297 423.373 106.84C423.016 102.471 420.2 98.6785 417.482 95.1347C414.21 90.87 410.751 86.4365 405.724 84.165C401.821 82.3906 396.602 81.804 391.948 82.2013C389.859 80.4716 387.569 78.9785 385.124 77.753C381.567 75.8539 377.876 73.9853 373.936 73.5677C368.94 73.0406 364.001 74.8802 358.989 75.188C352.176 75.6107 345.487 73.1999 338.673 72.7028C331.86 72.2058 324.016 74.4076 320.972 80.9936C320.258 82.5925 319.825 84.2937 319.688 86.0285C319.657 86.3617 319.636 86.6898 319.621 87.0225V87.0576C319.57 88.4022 319.61 89.7488 319.74 91.0888V91.2429C319.74 91.511 319.791 91.7796 319.823 92.0477C319.823 92.1276 319.822 92.2019 319.848 92.2818C319.848 92.53 319.905 92.7788 319.936 93.027L319.967 93.2606C320.009 93.5739 320.055 93.8868 320.097 94.2002C320.176 94.8447 320.32 95.4806 320.527 96.0987C320.654 96.4559 320.839 96.7916 321.076 97.0928C321.816 97.9973 322.929 98.2659 324.079 98.4348L324.985 98.5595C324.892 98.738 324.793 98.9171 324.705 99.1008C322.651 103.259 321.589 107.805 321.598 112.407C321.598 128.044 333.656 141.007 349.411 143.363L350.358 144.496C356.167 151.484 363.457 160.814 366.926 167.529C362.919 172.306 358.228 180.776 356.892 194.981L354.909 199.425C350.752 205.166 349.68 213.447 350.752 221.151C349.582 225.316 348.246 230.55 347.319 234.879C340.428 233.413 316.908 229.784 311.348 226.26L295.039 218.884C295.039 218.884 273.812 204.649 262.391 209.401C258.026 204.251 251.441 198.858 248.604 196.82C243.737 193.316 231.633 179.627 231.633 179.627L212.668 155.461C212.617 152.663 212.306 150.272 211.508 149.243C209.272 146.37 197.432 139.993 195.065 141.37C192.7 142.747 190.722 138.387 190.722 138.387L190.541 138.293C190.095 138.044 188.832 137.359 187.077 136.454C186.985 134.437 187.037 132.415 187.233 130.405C187.269 130.067 187.315 129.729 187.367 129.411C193.653 129.193 199.693 127.01 204.568 123.193C209.443 119.376 212.885 114.135 214.372 108.267C214.455 107.953 214.512 107.63 214.579 107.312C215.428 107.501 216.312 107.478 217.149 107.245C217.986 107.012 218.746 106.577 219.357 105.98C221.014 104.27 221.087 101.641 220.559 99.3745C220.031 97.1081 219.005 94.9358 218.746 92.6196C218.42 89.4634 219.58 86.1577 218.513 83.1755C217.618 80.6309 215.257 78.7816 212.741 77.5739C210.225 76.3662 207.47 75.6601 204.898 74.5617C202.443 73.5178 200.16 72.1163 197.613 71.2911C194.31 70.2228 190.758 70.1831 187.258 70.2625C185.063 69.4124 182.827 68.6025 180.476 68.3486C177.887 68.0653 175.04 68.5476 173.067 70.203C171.514 71.5251 170.251 73.6471 168.144 73.7167C167.108 73.7518 166.176 73.2594 165.255 72.8372C162.64 71.634 159.332 70.9533 156.971 72.5487C155.076 73.821 154.383 76.1622 154.057 78.3441C153.73 80.5266 153.673 82.8179 152.576 84.7714C151.897 85.974 150.867 86.9533 150.013 88.0466C147.851 90.8227 146.831 94.2668 147.15 97.7191V97.8188C147.026 97.3217 146.907 96.8593 146.819 96.3724C146.819 96.7403 146.819 97.103 146.87 97.4708C147.095 99.176 147.482 100.858 148.025 102.496L150.168 109.703C151.255 113.361 152.369 117.074 154.44 120.33C155.247 121.612 156.223 122.79 157.344 123.834C159.109 125.613 161.367 126.87 163.852 127.457C164.724 127.645 165.623 127.697 166.513 127.611C166.513 127.716 166.487 127.815 166.466 127.92C166.275 127.885 166.078 127.845 165.897 127.821C165.056 127.652 164.185 127.674 163.355 127.885C159.265 129.282 158.022 133.531 157.66 135.202C157.577 135.629 157.551 135.887 157.551 135.887C157.551 135.887 157.618 136.136 157.696 136.558L157.66 136.702C157.577 137.125 157.551 137.389 157.551 137.389C157.551 137.389 157.618 137.637 157.696 138.069L156.629 138.094L138.794 140.331C134.719 140.063 130.842 139.998 128.765 140.475C128.59 140.512 128.417 140.561 128.248 140.619C125.659 141.479 113.798 149.338 103.154 156.569C103.154 156.371 103.154 156.177 103.122 155.988L100.093 158.056C100.093 158.25 100.093 158.453 100.093 158.657C99.3375 159.154 98.5868 159.681 97.8624 160.183C94.6056 162.42 91.6496 164.438 89.4491 165.983C86.767 167.832 85.1054 169.001 85.1054 169.001C85.1054 169.001 84.1217 169.309 83.4693 170.765C82.6305 172.629 82.3405 176.377 85.3695 183.753C90.7642 196.88 91.9447 205.757 91.9447 205.757C90.481 205.904 89.0442 206.238 87.6731 206.751C85.8044 207.467 83.8524 208.68 83.0395 210.727C82.5176 212.157 82.5052 213.714 83.0033 215.151C85.499 223.651 126.808 271.914 126.808 271.914L127.326 271.958C129.445 272.138 131.575 272.138 133.694 271.958C135.625 271.765 137.432 271.323 138.26 270.388C138.26 270.388 147.419 281.676 160.869 273.987C160.776 284.226 160.507 291.736 162.2 295.519C164.836 301.393 164.836 314.769 164.836 314.769L167.341 314.854C167.207 315.351 167.056 315.848 166.896 316.345C165.742 320.008 164.038 324.437 162.236 325.496C159.203 327.285 160.642 358.042 160.766 360.696C160.766 360.801 160.766 360.855 160.766 360.855L160.59 373.281V374.275C160.214 373.79 159.876 373.278 159.581 372.745C159.581 372.745 154.704 377.218 154.616 386.662C154.528 396.106 154.703 396.424 154.703 396.424C154.703 396.424 174.377 395.693 178.068 396.995C181.76 398.298 212.632 395.862 212.632 395.862C212.632 395.862 213.776 393.009 210.484 390.817C215.734 390.454 221.46 389.49 224.814 387.154C232.192 382.039 209.93 378.053 208.376 377.243C206.823 376.432 199.13 369.917 195.951 367.476C194.99 366.802 193.854 366.396 192.669 366.303L193.067 355.164C197.805 350.04 202.935 321.782 202.935 321.782C204.613 320.44 205.343 317.175 205.643 315.182C206.256 314.987 206.792 314.615 207.178 314.118C207.564 313.622 207.782 313.023 207.802 312.403C213.222 312.577 220.041 312.537 221.351 311.29C223.587 309.162 223.323 301.91 223.323 301.91L220.165 225.147L219.958 224.854C220.48 221.34 220.491 217.773 219.989 214.256C227.082 216.2 232.601 217.522 232.601 217.522C232.601 217.522 243.277 219.411 250.768 221.002C249.542 222.252 248.616 223.745 248.055 225.375C241.325 243.766 279.497 243.006 279.497 243.006L297.519 251.008L339.942 264.319C326.31 260.457 310.737 255.914 300.139 252.798C299.095 252.491 298.033 252.244 296.96 252.057C287.237 250.367 277.136 253.767 270.944 261.267C270.871 261.362 270.804 261.446 270.726 261.536C269.244 263.387 268.418 265.647 268.369 267.982C268.321 270.317 269.053 272.606 270.457 274.513C272.078 276.716 274.247 279.643 276.789 283.048C271.41 284.608 262.51 288.958 267.921 300.141C275.417 315.644 295.541 324.496 295.541 324.496C295.541 324.496 308.697 328.125 312.109 332.126C313.067 333.25 316.768 335.74 321.609 338.742C324.715 341.898 327.148 343.961 328.593 344.418C334.361 346.242 345.59 354.995 353.49 361.561L352.305 377.248L352.227 378.192L351.741 377.795C351.741 377.795 348.246 384.753 338.119 387.084C336.088 387.523 334.289 388.648 333.051 390.256L333.014 390.3L332.714 390.717L332.486 390.554C330.416 393.352 329.453 397.428 337.27 398.551C349.504 400.301 363.157 397.801 363.157 397.801L375.354 386.975C376.709 388.07 378.301 388.863 380.014 389.296C389.131 391.284 414.738 400.798 414.738 400.798C414.738 398.129 437.368 363.793 437.368 363.793C467.914 308.283 434.696 266.799 431.026 262.48L430.7 262.102L430.415 257.49L430.353 256.431C430.353 256.431 446.837 249.432 440.521 246.102C434.204 242.772 430.684 226.762 424.735 220.097C420.076 214.898 420.345 202.829 419.853 192.545C420.387 195.085 421.534 197.468 423.203 199.504C423.239 199.549 423.28 199.584 423.317 199.629L422.876 199.261C422.985 199.42 423.089 199.559 423.203 199.693ZM220.082 195.428C222.205 197.621 225.912 200.424 228.366 202.203C225.425 200.827 223.137 199.663 221.372 198.724C220.957 197.621 220.522 196.517 220.082 195.428ZM157.287 143.413C156.78 144.872 155.856 146.165 154.621 147.146L153.585 142.856C154.941 143.065 156.205 143.258 157.287 143.413ZM364.213 261.267C364.622 260.422 365.046 259.592 365.476 258.782C367.292 258.215 368.893 257.146 370.079 255.71C370.981 258.717 371.649 261.784 372.077 264.886C372.077 265.03 372.077 265.109 372.077 265.109C372.055 266.36 371.858 267.602 371.492 268.802C371.015 270.254 370.146 271.621 368.567 271.784C367.909 271.849 364.674 271.099 359.833 269.831C358.43 269.464 356.887 269.051 355.24 268.603C357.824 268.44 361.417 267.043 364.213 261.267ZM404.725 156.391C403.757 154.9 401.738 153.945 399.268 153.384C398.818 153.095 398.119 152.638 397.228 152.017C392.88 148.96 384.197 142.076 380.216 133.283C381.325 132.986 382.409 132.605 383.457 132.145C385.083 131.429 386.619 130.537 388.033 129.486C388.51 129.127 388.976 128.755 389.421 128.367C390.562 127.379 391.602 126.289 392.528 125.112C392.895 124.614 393.252 124.142 393.563 123.62C394.071 122.855 394.53 122.062 394.94 121.244C395.883 119.336 396.61 117.337 397.109 115.28C397.311 114.455 397.487 113.615 397.627 112.77C397.767 111.925 397.902 111.075 398 110.22C398.321 107.203 398.444 104.17 398.368 101.139C398.368 100.995 398.368 100.846 398.368 100.702C398.368 100.647 398.368 100.592 398.368 100.542C398.353 97.4693 398.006 94.4062 397.332 91.4017C397.565 91.4861 397.798 91.5706 398.021 91.6703C398.394 91.8463 398.752 92.0544 399.087 92.2914C399.004 92.177 398.911 92.063 398.823 91.9485C400.324 92.8831 401.443 94.3391 402.447 95.7905C407.048 102.677 409.986 110.464 411.047 118.582C412.108 126.7 411.264 134.943 408.577 142.707C407.821 144.839 406.915 146.961 406.713 149.203C405.983 157.211 413.961 163.32 416.928 170.845C418.414 174.617 418.647 178.797 418.843 182.933C416.607 172.46 408.432 162.151 404.741 156.411L404.725 156.391Z" fill="url(#paint0_linear_172_227)"/>
<path d="M206.822 314.729C206.822 314.729 206.434 320.942 203.975 322.93C203.975 322.93 198.927 351.014 194.267 356.108L193.491 358.966L174.076 356.854L177.959 332.002L181.583 309.138L206.822 314.729Z" fill="#A1616A"/>
<path opacity="0.03" d="M206.822 314.729C206.822 314.729 206.434 320.942 203.975 322.93C203.975 322.93 198.927 351.014 194.267 356.108L193.491 358.966L174.076 356.854L177.959 332.002L181.583 309.138L206.822 314.729Z" fill="black"/>
<path d="M185.901 356.456L194.267 356.104L193.822 368.748L187.418 372.869L175.883 370.443L180.092 353.544L185.901 356.456Z" fill="#575988"/>
<path opacity="0.03" d="M185.901 356.456L194.267 356.104L193.822 368.748L187.418 372.869L175.883 370.443L180.092 353.544L185.901 356.456Z" fill="black"/>
<path d="M187.417 367.779C187.417 367.779 193.987 365.92 197.104 368.346C200.221 370.771 207.8 377.238 209.317 378.048C210.834 378.858 232.708 382.819 225.486 387.909C218.263 392.999 199.718 391.548 199.718 391.548C199.718 391.548 187.588 388.148 187.251 387.989C186.915 387.83 179.486 384.351 179.253 384.107C179.02 383.863 181.355 367.705 181.355 367.705L187.417 367.779Z" fill="#5D618C"/>
<path opacity="0.03" d="M187.417 367.779C187.417 367.779 193.987 365.92 197.104 368.346C200.221 370.771 207.8 377.238 209.317 378.048C210.834 378.858 232.708 382.819 225.486 387.909C218.263 392.999 199.718 391.548 199.718 391.548C199.718 391.548 187.588 388.148 187.251 387.989C186.915 387.83 179.486 384.351 179.253 384.107C179.02 383.863 181.355 367.705 181.355 367.705L187.417 367.779Z" fill="black"/>
<path d="M168.381 199.788L167.993 222.89L167.112 272.172L166.595 272.605C151.192 285.404 140.32 271.859 140.32 271.859C139.502 272.789 137.732 273.231 135.826 273.42C133.742 273.599 131.646 273.599 129.562 273.42L129.044 273.375C129.044 273.375 88.3919 225.375 85.933 216.926C85.4453 215.497 85.4577 213.953 85.9693 212.532C86.7718 210.514 88.6922 209.311 90.5303 208.6C91.8786 208.089 93.2927 207.754 94.7342 207.606C94.7342 207.606 93.5692 198.784 88.2625 185.736C85.2806 178.405 85.5706 174.682 86.3938 172.813C87.0359 171.367 88.0036 171.058 88.0036 171.058C88.0036 171.058 89.6398 169.9 92.2752 168.076C94.4649 166.54 97.3489 164.532 100.559 162.31L103.536 160.263C114.517 152.697 127.75 143.791 130.458 142.866C130.626 142.807 130.799 142.758 130.975 142.722C136.531 141.435 155.174 144.108 155.174 144.108L168.381 199.788Z" fill="#765E82"/>
<path opacity="0.1" d="M168.381 199.788L167.992 222.89C149.577 217.676 132.456 183.126 130.198 180.403C128.267 178.037 130.25 151.688 130.98 142.732C136.536 141.444 155.179 144.119 155.179 144.119L168.381 199.788Z" fill="black"/>
<path d="M379.744 154.795C379.744 154.795 365.377 161.878 363.565 189.712C363.565 189.712 361.235 203.878 359.941 206.364C358.646 208.849 352.433 232.334 353.21 235.192C353.21 235.192 351.916 238.05 347.127 236.807C342.338 235.565 316.451 231.713 310.627 227.985L294.577 220.654C294.577 220.654 263.255 199.405 256.654 217.671C250.053 235.937 287.588 235.202 287.588 235.202L305.32 243.155L359.035 260.169C359.035 260.169 366.153 263.275 370.942 253.334C374.007 247.072 377.645 241.084 381.815 235.44C381.815 235.44 392.687 206.115 392.557 201.145C392.428 196.174 404.206 184.369 404.206 184.369C404.206 184.369 406.536 153.055 387.38 153.677L379.744 154.795Z" fill="#A0616A"/>
<path opacity="0.03" d="M379.744 154.795C379.744 154.795 365.377 161.878 363.565 189.712C363.565 189.712 361.235 203.878 359.941 206.364C358.646 208.849 352.433 232.334 353.21 235.192C353.21 235.192 351.916 238.05 347.127 236.807C342.338 235.565 316.451 231.713 310.627 227.985L294.577 220.654C294.577 220.654 263.255 199.405 256.654 217.671C250.053 235.937 287.588 235.202 287.588 235.202L305.32 243.155L359.035 260.169C359.035 260.169 366.153 263.275 370.942 253.334C374.007 247.072 377.645 241.084 381.815 235.44C381.815 235.44 392.687 206.115 392.557 201.145C392.428 196.174 404.206 184.369 404.206 184.369C404.206 184.369 406.536 153.055 387.38 153.677L379.744 154.795Z" fill="black"/>
<path d="M227.789 178.971C228.566 179.841 232.191 181.635 232.191 181.635C232.191 181.635 244.098 195.24 248.887 198.719C253.676 202.198 269.337 215.494 266.169 220.529C263 225.564 259.438 224.441 259.438 224.441L231.414 205.802C231.414 205.802 221.577 199.032 219.573 195.801C217.57 192.57 215.105 185.806 215.105 185.806L227.789 178.971Z" fill="#A1616A"/>
<path opacity="0.03" d="M227.789 178.971C228.566 179.841 232.191 181.635 232.191 181.635C232.191 181.635 244.098 195.24 248.887 198.719C253.676 202.198 269.337 215.494 266.169 220.529C263 225.564 259.438 224.441 259.438 224.441L231.414 205.802C231.414 205.802 221.577 199.032 219.573 195.801C217.57 192.57 215.105 185.806 215.105 185.806L227.789 178.971Z" fill="black"/>
<path d="M212.068 155.734L232.192 181.64L214.071 188.415L206.564 166.729L212.068 155.734Z" fill="#DCE6F2"/>
<path opacity="0.03" d="M212.068 155.734L232.192 181.64L214.071 188.415L206.564 166.729L212.068 155.734Z" fill="black"/>
<path d="M217.307 221.782L220.93 226.876L224.037 303.173C224.037 303.173 224.296 310.38 222.095 312.493C219.895 314.605 201.904 313.238 201.904 313.238C201.904 313.238 202.552 235.451 202.81 233.959C203.069 232.468 217.307 221.782 217.307 221.782Z" fill="#575988"/>
<path opacity="0.1" d="M217.307 221.782L220.93 226.876L224.037 303.173C224.037 303.173 224.296 310.38 222.095 312.493C219.895 314.605 201.904 313.238 201.904 313.238C201.904 313.238 202.552 235.451 202.81 233.959C203.069 232.468 217.307 221.782 217.307 221.782Z" fill="black"/>
<path d="M193.071 318.229C191.892 321.011 190.508 323.708 188.929 326.301C188.929 326.301 185.564 344.736 184.13 346.436C183.094 347.679 182.618 356.953 182.447 361.79C182.385 363.539 182.359 364.707 182.359 364.707L162.572 373.764L162.484 361.795C162.484 361.795 162.484 361.74 162.484 361.636C162.359 358.996 160.93 328.428 163.928 326.649C165.688 325.6 167.366 321.181 168.5 317.558C169.364 314.759 169.908 312.418 169.908 312.418C169.908 312.418 191.891 311.046 193.723 313.308C194.396 314.113 193.93 316.071 193.071 318.229Z" fill="#A1616A"/>
<path opacity="0.1" d="M193.071 318.229C184.156 318.05 172.984 317.687 168.469 317.533C169.333 314.734 169.877 312.393 169.877 312.393C169.877 312.393 191.86 311.021 193.693 313.283C194.397 314.113 193.931 316.071 193.071 318.229Z" fill="black"/>
<path d="M167.086 205.131C167.086 205.131 161.003 236.196 162.168 256.202C163.332 276.208 161.262 290.985 163.85 296.836C166.439 302.686 166.439 315.972 166.439 315.972C166.439 315.972 201.645 317.214 205.268 316.717C208.892 316.22 208.763 313.611 208.763 313.611C208.763 313.611 206.304 292.974 208.633 286.512C210.963 280.05 210.575 260.293 210.575 260.293L220.412 228.482C220.412 228.482 223.389 214.192 217.176 208.352C210.963 202.511 167.086 205.131 167.086 205.131Z" fill="#575988"/>
<path d="M375.991 369.28L374.438 371.467L364.834 385.186L356.68 387.547L350.596 381.831L350.891 378.058L352.408 358.469C352.408 358.469 314.769 337.211 311.404 333.234C308.039 329.258 295.096 325.654 295.096 325.654C295.096 325.654 275.292 316.832 267.915 301.423C260.537 286.015 280.211 283.654 280.211 283.654L354.117 351.511L375.991 369.28Z" fill="#A0616A"/>
<path opacity="0.1" d="M374.463 371.462L364.859 385.18L356.704 387.541L350.621 381.825L350.916 378.053L357.611 383.565L370.166 369.524L374.463 371.462Z" fill="black"/>
<path d="M385.05 377.233L361.623 398.233C361.623 398.233 348.162 400.718 336.125 398.979C328.432 397.865 329.912 393.814 331.936 391.026L331.973 390.976C333.185 389.382 334.958 388.262 336.964 387.825C346.925 385.519 350.363 378.595 350.363 378.595L357.61 384.559L370.165 370.513L379.449 374.698L385.05 377.233Z" fill="#575988"/>
<path d="M385.05 377.471L361.623 398.482C361.623 398.482 348.161 400.967 336.124 399.227C328.431 398.114 329.394 394.063 331.418 391.275C333.746 393.046 336.54 394.163 339.49 394.5C346.091 395.122 356.057 394.5 356.057 394.5L379.448 374.951L385.05 377.471Z" fill="white"/>
<path d="M191.636 125.767C189.731 126.682 188.856 129.505 188.504 132.726C187.908 138.223 188.871 144.844 188.871 144.844C188.871 144.844 162.985 138.049 165.75 136.722C167.339 135.962 168.183 130.425 168.613 125.867C168.934 122.497 169.027 119.659 169.027 119.659C169.027 119.659 196.814 123.282 191.636 125.767Z" fill="#A1616A"/>
<path d="M397.693 155.923C397.693 155.923 366.282 184.419 367.318 176.138C367.463 174.985 367.048 173.389 366.23 171.505C363.326 164.786 355.296 154.353 349.016 146.723C344.408 141.126 340.732 137.036 340.732 137.036C340.732 137.036 379.743 105.558 376.637 123.451C375.989 127.532 376.581 131.704 378.34 135.47C382.228 144.257 390.843 151.172 395.145 154.223C396.699 155.322 397.693 155.923 397.693 155.923Z" fill="#A0616A"/>
<path opacity="0.1" d="M372.324 128.914C371.76 129.585 369.668 131.941 369.046 132.562C363.144 138.462 362.357 146.977 353.168 146.977C351.783 146.977 350.399 146.893 349.026 146.723C344.418 141.126 340.742 137.036 340.742 137.036C340.742 137.036 379.743 105.558 376.636 123.451C375.901 127.696 370.683 125.196 372.324 128.914Z" fill="black"/>
<path d="M385.609 114.833C385.61 120.994 383.708 127.017 380.143 132.14C376.578 137.264 371.511 141.257 365.582 143.615C359.653 145.973 353.129 146.591 346.834 145.389C340.54 144.187 334.758 141.22 330.22 136.864C325.682 132.507 322.592 126.956 321.34 120.913C320.088 114.87 320.731 108.607 323.188 102.915C325.644 97.2225 329.804 92.3576 335.14 88.9353C340.477 85.5126 346.75 83.6868 353.168 83.6878C357.433 83.672 361.659 84.4667 365.602 86.0264C369.546 87.5857 373.128 89.8795 376.144 92.7747C379.16 95.6699 381.549 99.1094 383.173 102.895C384.798 106.681 385.626 110.738 385.609 114.833Z" fill="#A0616A"/>
<path opacity="0.1" d="M397.695 155.923C397.695 155.923 366.284 184.419 367.32 176.138C367.464 174.985 367.051 173.389 366.232 171.505L370.773 161.227C376.336 156.548 383.47 153.954 390.866 153.92C392.211 153.919 393.555 154.007 394.889 154.184L395.148 154.223C396.7 155.322 397.695 155.923 397.695 155.923Z" fill="black"/>
<path d="M434.623 364.682C434.623 364.682 412.36 398.81 412.36 401.464C412.36 401.464 387.163 392.02 378.19 390.032C369.218 388.044 360.758 369.986 360.758 369.986C360.758 369.986 336.943 348.444 327.624 345.462C319.718 342.932 281.727 291.482 270.41 275.96C269.024 274.061 268.304 271.787 268.352 269.468C268.401 267.15 269.216 264.906 270.679 263.061L270.891 262.798C273.886 259.18 277.853 256.416 282.363 254.803C286.874 253.189 291.757 252.788 296.488 253.643C297.537 253.828 298.575 254.074 299.594 254.378C315.892 259.214 344.119 267.525 358.356 271.278C363.119 272.535 366.303 273.266 366.95 273.221C368.504 273.067 369.358 271.73 369.829 270.264C370.189 269.071 370.382 267.837 370.404 266.595C370.404 266.595 370.404 266.516 370.404 266.372C369.967 263.212 369.282 260.088 368.354 257.027C366.691 251.56 363.813 245.143 359.035 242.076C355.068 239.536 351.916 233.935 350.264 227.423C348.043 218.63 348.556 208.167 353.51 201.318L358.299 190.473L366.308 172.331L370.772 162.221C376.335 157.542 383.469 154.948 390.864 154.914C392.21 154.913 393.554 155.001 394.887 155.178C398.32 155.635 401.286 156.624 402.524 158.573C406.318 164.537 414.949 175.472 416.673 186.407C418.397 197.342 416.332 215.236 422.198 221.867C428.063 228.497 431.516 244.398 437.729 247.712C443.942 251.028 427.722 257.982 427.722 257.982L427.784 259.031L428.063 263.618C428.063 263.618 428.177 263.742 428.384 263.991C431.998 268.285 464.651 309.515 434.623 364.682Z" fill="#575988"/>
<path d="M428.411 263.991C421.608 265.358 406.729 268.335 400.091 269.642L398.927 269.871C398.538 269.945 398.103 270.015 397.632 270.08C390.964 270.959 376.499 270.527 369.877 270.268C370.236 269.075 370.429 267.842 370.452 266.6C370.452 266.6 370.452 266.521 370.452 266.377C375.489 266.064 387.428 265.149 397.658 263.131C398.492 262.967 399.315 262.793 400.117 262.634C401.277 262.376 402.406 262.102 403.483 261.814C412.657 259.329 422.344 259.001 427.816 259.05L428.096 263.638C428.096 263.638 428.178 263.742 428.411 263.991Z" fill="#765E82"/>
<path d="M400.065 262.614V269.642L398.9 269.871C398.512 269.945 398.077 270.015 397.605 270.08V263.151C398.439 262.967 399.262 262.793 400.065 262.614Z" fill="#575988"/>
<path opacity="0.1" d="M406.407 276.074C406.407 276.074 392.558 306.518 384.145 309.501C375.732 312.483 354.764 323.045 354.764 323.045C354.764 323.045 366.801 333.234 379.356 322.051C391.911 310.868 410.032 281.044 406.407 276.074Z" fill="black"/>
<path opacity="0.1" d="M421.549 271.983C421.549 271.983 422.844 283.54 421.032 285.652C419.22 287.765 421.549 271.983 421.549 271.983Z" fill="black"/>
<path opacity="0.1" d="M429.058 279.553C429.058 279.553 436.047 349.885 401.359 350.258C401.359 350.268 433.847 319.317 429.058 279.553Z" fill="black"/>
<path opacity="0.1" d="M437.858 296.453C437.858 296.453 447.824 333.359 434.752 337.583C434.752 337.594 441.611 318.457 437.858 296.453Z" fill="black"/>
<path opacity="0.1" d="M375.86 287.009C375.214 287.009 348.939 291.358 354.634 294.837C360.329 298.317 375.86 287.009 375.86 287.009Z" fill="black"/>
<path opacity="0.1" d="M393.98 237.19C393.98 237.19 415.467 255.457 411.324 257.445L393.98 237.19Z" fill="black"/>
<path opacity="0.1" d="M392.168 243.031C392.168 243.031 404.594 257.693 403.17 258.563L392.168 243.031Z" fill="black"/>
<path opacity="0.1" d="M418.703 240.784C418.703 240.784 424.398 247.618 423.492 249.109L418.703 240.784Z" fill="black"/>
<path opacity="0.1" d="M424.398 237.19C424.398 237.19 432.552 243.269 430.74 245.64L424.398 237.19Z" fill="black"/>
<path d="M379.097 163.13C379.097 163.13 405.63 165.118 404.465 185.622C403.3 206.125 383.497 211.344 383.497 211.344L357.74 204.261C357.74 204.261 369.26 164.497 379.097 163.13Z" fill="#A0616A"/>
<path opacity="0.1" d="M299.615 254.378C315.913 259.214 344.14 267.525 358.377 271.278C357.444 271.734 356.422 271.999 355.376 272.054C354.331 272.11 353.284 271.955 352.305 271.601L298.59 254.587L296.488 253.642C297.545 253.827 298.589 254.073 299.615 254.378Z" fill="black"/>
<path opacity="0.1" d="M390.511 203.699C387.99 206.93 385.769 210.409 385.852 212.586C385.893 214.152 384.816 218.144 383.377 222.87C379.67 234.742 374.636 246.194 368.363 257.027C366.701 251.56 363.823 245.143 359.044 242.076C355.078 239.536 351.925 233.935 350.273 227.423C351.532 222.712 352.728 218.75 353.22 217.805C354.514 215.32 356.844 201.154 356.844 201.154C357.063 197.565 357.552 193.995 358.309 190.473C360.188 181.859 363.383 176.059 366.318 172.331C369.859 167.798 373.048 166.237 373.048 166.237L380.685 165.118C389.486 164.835 393.732 171.262 395.777 178.305C398.283 187.058 396.186 196.422 390.511 203.699Z" fill="black"/>
<path d="M371.46 164.239C371.46 164.239 357.094 171.322 355.281 199.156C355.281 199.156 352.952 213.322 351.657 215.808C350.363 218.293 344.15 241.778 344.927 244.636C344.927 244.636 343.632 247.494 338.844 246.251C334.055 245.009 308.168 241.156 302.343 237.429L286.294 230.097C286.294 230.097 254.972 208.849 248.371 227.115C241.769 245.381 279.305 244.646 279.305 244.646L297.037 252.599L350.751 269.613C350.751 269.613 357.87 272.719 362.659 262.778C363.855 260.293 365.134 257.932 366.381 255.785C372.843 244.735 378.018 233.038 381.815 220.902C383.28 216.175 384.331 212.184 384.29 210.618C384.233 208.441 386.459 204.957 388.949 201.731C394.644 194.454 396.715 185.09 394.178 176.332C392.134 169.289 387.867 162.862 379.087 163.15L371.46 164.239Z" fill="#A0616A"/>
<path opacity="0.1" d="M191.637 125.767C189.731 126.682 188.856 129.505 188.504 132.726C188.168 132.726 187.831 132.726 187.494 132.726C180.534 132.739 173.813 130.29 168.613 125.847C168.934 122.477 169.027 119.639 169.027 119.639C169.027 119.639 196.814 123.282 191.637 125.767Z" fill="black"/>
<path d="M215.97 104.395C215.97 109.801 214.3 115.087 211.171 119.583C208.042 124.078 203.595 127.582 198.392 129.651C193.188 131.72 187.463 132.262 181.939 131.207C176.416 130.152 171.342 127.548 167.36 123.725C163.378 119.902 160.665 115.031 159.567 109.728C158.468 104.425 159.032 98.9283 161.187 93.9331C163.342 88.9374 166.992 84.6681 171.675 81.6641C176.358 78.6605 181.863 77.057 187.494 77.057C195.042 77.0728 202.275 79.9578 207.612 85.0812C212.948 90.2046 215.954 97.1487 215.97 104.395Z" fill="#A1616A"/>
<path opacity="0.1" d="M225.589 211.458C225.589 211.458 210.704 217.174 206.045 219.163C201.385 221.151 174.722 216.553 174.722 216.553C174.722 216.553 160.873 209.843 162.038 203.133C163.203 196.423 150.906 174.438 150.906 174.438C150.906 174.438 150.519 154.929 155.955 151.201C161.391 147.474 159.32 139.645 159.32 139.645C159.32 139.645 159.346 139.386 159.428 138.964C159.765 137.304 160.982 133.079 165.015 131.692C165.831 131.481 166.688 131.459 167.515 131.628C171.383 132.189 177.736 134.953 182.99 137.503C187.339 139.615 190.937 141.579 191.76 142.036L191.937 142.13C191.937 142.13 193.878 146.48 196.208 145.113C198.538 143.746 210.187 150.083 212.387 152.941C214.587 155.799 213.034 169.219 212.646 172.574C212.258 175.929 214.846 185.87 217.694 191.576C220.541 197.282 225.589 211.458 225.589 211.458Z" fill="black"/>
<path d="M225.589 209.967C225.589 209.967 210.704 215.683 206.045 217.671C201.385 219.66 174.722 215.062 174.722 215.062C174.722 215.062 160.873 208.352 162.038 201.642C163.203 194.931 150.906 172.947 150.906 172.947C150.906 172.947 150.519 153.438 155.955 149.71C161.391 145.982 159.32 138.154 159.32 138.154C159.32 138.154 159.346 137.895 159.428 137.473C159.765 135.813 160.982 131.588 165.015 130.201C165.831 129.99 166.688 129.968 167.515 130.137C171.383 130.698 177.736 133.462 182.99 136.012C187.339 138.124 190.937 140.087 191.76 140.545L191.937 140.639C191.937 140.639 193.878 144.988 196.208 143.622C198.538 142.255 210.187 148.592 212.387 151.45C214.587 154.308 213.034 167.728 212.646 171.083C212.258 174.438 214.846 184.379 217.694 190.085C220.541 195.791 225.589 209.967 225.589 209.967Z" fill="#DCE6F2"/>
<path d="M177.4 190.88C177.4 190.88 164.628 210.763 162.557 211.841L163.333 218.799C163.333 218.799 181.542 215.151 182.666 210.265C183.789 205.379 183.183 190.632 183.183 190.632L177.4 190.88Z" fill="#575988"/>
<path opacity="0.2" d="M177.4 190.88C177.4 190.88 164.628 210.763 162.557 211.841L163.333 218.799C163.333 218.799 181.542 215.151 182.666 210.265C183.789 205.379 183.183 190.632 183.183 190.632L177.4 190.88Z" fill="black"/>
<path opacity="0.1" d="M195.371 165.551C195.371 165.551 197.634 173.941 201.196 176.799C204.758 179.657 195.371 165.551 195.371 165.551Z" fill="black"/>
<path d="M173.17 187.669C173.496 188.231 184.431 202.521 195.95 207.8C207.469 213.079 233.164 219.296 233.164 219.296C233.164 219.296 254.002 223.024 257.56 224.451C261.116 225.877 265.651 219.481 243.322 210.35C220.992 201.219 216.659 197.178 216.659 197.178C216.659 197.178 197.244 188.097 194.138 183.623C191.031 179.15 173.17 187.669 173.17 187.669Z" fill="#A1616A"/>
<path opacity="0.1" d="M181.324 257.187C181.713 256.938 191.031 247.37 192.196 251.47C193.361 255.571 181.324 257.187 181.324 257.187Z" fill="black"/>
<path opacity="0.1" d="M186.759 238.298C186.63 238.671 185.335 249.234 181.582 250.476L186.759 238.298Z" fill="black"/>
<path opacity="0.1" d="M190.642 241.167C190.642 241.167 187.277 252.474 183.006 253.21L190.642 241.167Z" fill="black"/>
<path opacity="0.1" d="M173.559 275.08C173.559 275.08 179.254 275.204 180.03 271.725L173.559 275.08Z" fill="black"/>
<path opacity="0.1" d="M181.324 297.706C182.1 297.83 194.267 305.286 191.161 306.777C188.054 308.268 181.324 297.706 181.324 297.706Z" fill="black"/>
<path opacity="0.1" d="M182.426 360.641V361.79C182.364 363.539 182.338 364.707 182.338 364.707L162.551 373.764L162.463 361.795C162.463 361.795 162.463 361.74 162.463 361.636V360.826L170.384 361.069L182.426 360.641Z" fill="black"/>
<path d="M186.129 378.043L169.624 384.107L162.215 379.902L162.293 374.146L162.463 361.79L170.385 362.033L182.427 361.63V370.284L186.129 378.043Z" fill="#575988"/>
<path opacity="0.1" d="M186.113 378.048L169.608 384.112L162.199 379.907L162.277 374.151C163.352 375.504 164.725 376.611 166.299 377.393C167.873 378.175 169.608 378.613 171.378 378.674C171.378 378.674 177.187 371.715 180.724 369.698C180.975 369.553 181.254 369.459 181.544 369.422C181.834 369.384 182.129 369.404 182.411 369.479V370.289L186.113 378.048Z" fill="black"/>
<path d="M171.395 379.663C171.395 379.663 164.664 379.748 161.289 373.599C161.289 373.599 156.49 378.048 156.402 387.428C156.314 396.806 156.49 397.13 156.49 397.13C156.49 397.13 175.858 396.404 179.481 397.696C183.106 398.988 213.507 396.563 213.507 396.563C213.507 396.563 215.526 391.468 206.347 389.689C197.167 387.909 189.588 378.53 189.334 378.127C189.081 377.725 184.281 368.684 180.745 370.672C177.209 372.66 171.395 379.663 171.395 379.663Z" fill="#5D618C"/>
<path opacity="0.1" d="M189.246 74.1939L187.314 73.9406L188.521 73.9106L189.246 74.1939Z" fill="black"/>
<path opacity="0.1" d="M215.97 104.395C215.971 106.515 215.716 108.628 215.209 110.692C214.777 110.585 214.364 110.417 213.982 110.195C213.428 109.852 212.874 109.38 212.222 109.435C211.839 109.492 211.481 109.651 211.186 109.892C208.121 112.044 205.844 115.583 202.116 116.269C202.489 115.221 202.54 114.092 202.261 113.018C201.47 113.782 200.5 114.351 199.433 114.68C198.365 115.009 197.231 115.087 196.125 114.907C196.395 114.286 196.426 113.594 196.213 112.953C193.589 114.365 190.856 115.583 188.039 116.597C187.94 116.1 187.847 115.643 187.749 115.165C183.783 117.024 184.093 123.332 180.128 125.191C177.767 126.299 174.433 125.504 172.802 127.502C172.74 127.582 172.683 127.661 172.626 127.746C168.388 125.257 164.903 121.747 162.515 117.566C160.127 113.383 158.921 108.674 159.015 103.906C159.109 99.1379 160.501 94.4764 163.053 90.3847C165.604 86.2925 169.226 82.9125 173.559 80.58C177.891 78.248 182.784 77.0443 187.752 77.0891C192.719 77.1339 197.588 78.425 201.874 80.8354C206.161 83.2452 209.717 86.6898 212.187 90.8273C214.658 94.9643 215.959 99.6502 215.96 104.419L215.97 104.395Z" fill="black"/>
<path d="M189.245 73.1948C186.853 72.2455 184.425 71.2911 181.852 71.0078C179.279 70.7244 176.504 71.2067 174.562 72.8519C173.009 74.1644 171.792 76.2716 169.722 76.3311C168.712 76.3662 167.78 75.8788 166.874 75.4566C164.286 74.2636 161.05 73.5875 158.715 75.1681C156.851 76.4359 156.152 78.7618 155.846 80.9341C155.541 83.1058 155.468 85.4073 154.391 87.3211C153.724 88.5141 152.709 89.4883 151.87 90.5765C149.739 93.3425 148.736 96.7621 149.054 100.189C149.27 101.884 149.648 103.556 150.182 105.185L152.295 112.347C153.366 115.985 154.459 119.674 156.499 122.909C158.539 126.145 161.676 128.929 165.507 129.764C167.816 130.261 170.612 129.853 171.906 127.95C172.238 127.453 172.45 126.921 172.812 126.458C174.417 124.47 177.777 125.261 180.138 124.152C184.104 122.293 183.793 115.985 187.759 114.127L188.054 115.553C190.868 114.538 193.599 113.322 196.224 111.915C196.435 112.555 196.406 113.246 196.141 113.868C197.246 114.045 198.379 113.966 199.445 113.638C200.511 113.309 201.48 112.74 202.271 111.979C202.55 113.054 202.5 114.183 202.126 115.23C205.854 114.539 208.132 111 211.197 108.848C211.493 108.61 211.851 108.454 212.232 108.396C212.89 108.341 213.439 108.813 213.993 109.151C214.952 109.71 216.081 109.941 217.194 109.804C218.308 109.668 219.34 109.173 220.123 108.401C221.753 106.701 221.825 104.086 221.303 101.83C220.78 99.5734 219.75 97.4209 219.527 95.1194C219.201 91.9831 220.34 88.7079 219.294 85.7253C218.409 83.1954 216.089 81.3614 213.599 80.1588C211.109 78.9556 208.422 78.2551 205.88 77.1761C203.467 76.1373 201.22 74.7459 198.715 73.9258C195.09 72.7374 191.15 72.8321 187.325 72.9313" fill="#3F3D58"/>
<path d="M189.737 165.78C189.737 165.78 193.879 139.024 158.414 140.346L140.553 142.627C140.553 142.627 157.591 145.57 161.692 146.002L162.127 146.062C165.922 146.728 179.041 145.898 189.737 165.78Z" fill="#765E82"/>
<path opacity="0.1" d="M167.086 272.48V272.172C181.629 260.099 167.086 272.48 167.086 272.48Z" fill="black"/>
<path d="M135.801 273.42C133.716 273.599 131.62 273.599 129.536 273.42L85.9688 212.542C86.7713 210.524 88.6922 209.321 90.5304 208.61L135.801 273.42Z" fill="#575988"/>
<path d="M107.549 208.237L105.478 210.598C105.478 210.598 89.7699 185.547 86.3945 172.823C87.0366 171.376 88.0043 171.068 88.0043 171.068C88.0043 171.068 89.6405 169.91 92.276 168.086C93.2545 174.07 96.5937 188.704 107.549 208.237Z" fill="#575988"/>
<path d="M119.067 200.523L114.925 202.76C103.618 190.055 102.655 168.712 102.759 160.208L105.741 158.15C106.144 169.318 119.067 200.523 119.067 200.523Z" fill="#575988"/>
<path opacity="0.1" d="M129.939 198.297C129.81 199.912 125.021 216.314 132.01 219.048C138.999 221.782 129.939 198.297 129.939 198.297Z" fill="black"/>
<path opacity="0.1" d="M144.953 226.504C145.212 227.374 147.542 255.705 152.59 253.469C157.638 251.232 154.92 218.924 154.92 218.924L144.953 226.504Z" fill="black"/>
<path opacity="0.1" d="M385.609 114.833C385.62 122.878 382.375 130.612 376.559 136.404C374.191 136.886 371.748 136.927 369.363 136.523C368.144 136.375 366.985 135.929 365.998 135.226C365.047 134.384 364.303 133.35 363.818 132.199C361.928 128.298 360.96 123.789 358.309 120.449C355.658 117.109 350.279 115.643 347.722 119.067C346.329 120.926 346.096 123.784 344.237 125.072C342.006 126.622 339.06 124.798 337.326 122.586C332.2 116.125 333.955 103.42 324.181 101.636L323.787 101.571C326.922 95.1545 332.241 89.9564 338.868 86.8338C345.496 83.7112 353.034 82.852 360.238 84.3975C367.442 85.943 373.883 89.8007 378.495 95.3341C383.108 100.867 385.617 107.745 385.609 114.833Z" fill="black"/>
<path d="M324.699 101.174C323.115 100.88 321.277 100.92 320.216 99.608C319.589 98.8327 319.408 97.7587 319.258 96.7403C318.621 92.3362 318.275 87.6091 320.102 83.6181C323.1 77.0718 330.814 74.8848 337.518 75.3722C344.223 75.859 350.803 78.2597 357.508 77.8573C362.437 77.549 367.298 75.7201 372.211 76.2421C376.099 76.6592 379.724 78.5135 383.218 80.407C386.49 82.1764 389.835 84.08 392.154 87.1523C395.561 91.6504 396.203 97.8635 396.296 103.694C396.41 110.538 395.908 117.646 392.915 123.67C388.577 132.413 378.9 137.617 369.881 136.051C368.662 135.903 367.504 135.457 366.516 134.754C365.569 133.91 364.826 132.877 364.342 131.727C362.447 127.82 361.479 123.317 358.828 119.972C356.177 116.627 350.798 115.17 348.24 118.595C346.848 120.449 346.615 123.312 344.756 124.599C342.525 126.145 339.579 124.321 337.844 122.114C332.719 115.648 334.474 102.953 324.699 101.174Z" fill="#3F3D58"/>
<path d="M403.486 86.7244C408.42 88.9862 411.842 93.3898 415.057 97.6295C417.733 101.154 420.503 104.922 420.856 109.266C420.995 111.045 420.721 112.854 421.073 114.604C422.31 120.782 430.392 123.551 432.753 129.436C433.851 132.209 433.504 135.296 433.022 138.229C432.33 142.47 431.398 146.673 430.231 150.819C429.532 153.304 428.74 155.889 429.274 158.413C429.683 160.372 430.827 162.091 431.738 163.881C434.114 168.707 434.523 174.18 434.704 179.513C434.886 184.846 434.881 190.274 436.543 195.364C438.205 200.454 441.87 205.265 447.156 206.91C445.38 208.072 443.322 208.774 441.181 208.948C440.865 210.613 441.854 212.308 443.252 213.362C444.65 214.416 446.359 214.963 448.026 215.484C446.888 216.255 445.58 216.762 444.204 216.965C442.827 217.169 441.421 217.064 440.094 216.657C437.884 215.961 436.056 214.47 434.29 213.009L424.366 204.812C423.039 203.782 421.814 202.638 420.705 201.393C414.285 193.733 418.116 182.128 414.534 172.927C411.614 165.447 403.765 159.373 404.485 151.415C404.682 149.188 405.572 147.081 406.317 144.953C408.962 137.236 409.792 129.051 408.749 120.988C407.707 112.924 404.816 105.184 400.286 98.3203C399.152 96.6309 397.837 94.9307 395.947 94.0608C393.074 92.7437 388.968 93.3104 387.338 90.6808C386.473 89.2945 386.302 86.8536 386.225 85.2979C391.495 84.1401 398.557 84.4631 403.486 86.7244Z" fill="#3F3D58"/>
<path opacity="0.1" d="M151.359 170.879C153.782 155.59 173.688 150.068 184.256 161.754C187.31 165.143 190.018 168.857 191.55 172.569C196.727 185.12 197.116 186.238 197.116 186.238C197.116 186.238 165.146 192.203 165.405 196.676L150.908 174.433C150.908 174.433 151.017 173.041 151.359 170.879Z" fill="black"/>
<path d="M151.359 169.388C153.782 154.099 173.688 148.577 184.256 160.263C187.31 163.652 190.018 167.365 191.55 171.078C196.727 183.628 197.116 184.747 197.116 184.747C197.116 184.747 165.146 190.712 165.405 195.185L150.908 172.942C150.908 172.942 151.017 171.55 151.359 169.388Z" fill="#DCE6F2"/>
<path opacity="0.1" d="M160.355 149.77C160.744 150.391 176.017 168.285 184.042 170.834C192.067 173.384 160.355 149.77 160.355 149.77Z" fill="black"/>
<path opacity="0.1" d="M94.7344 207.616C94.7344 207.616 135.117 253.344 140.294 271.859L94.7344 207.616Z" fill="black"/>
<path opacity="0.1" d="M96.2871 165.367C96.2871 165.367 105.089 209.107 122.174 227.498C139.259 245.889 156.862 277.202 156.862 277.202" stroke="black" stroke-width="2" stroke-miterlimit="10"/>
<g opacity="0.1">
<path d="M221.065 101.73C221.1 103.184 220.577 104.6 219.595 105.707C218.812 106.479 217.78 106.974 216.666 107.111C215.553 107.247 214.424 107.017 213.465 106.457C212.911 106.119 212.362 105.647 211.704 105.701C211.323 105.76 210.965 105.916 210.669 106.154C207.754 108.202 205.549 111.503 202.127 112.412C202.248 113.29 202.156 114.183 201.857 115.021C205.585 114.331 207.863 110.791 210.928 108.639C211.224 108.401 211.582 108.245 211.963 108.187C212.621 108.132 213.17 108.604 213.724 108.943C214.683 109.502 215.812 109.732 216.925 109.596C218.038 109.459 219.071 108.964 219.854 108.192C221.453 106.502 221.552 103.957 221.065 101.73Z" fill="black"/>
<path d="M219 92.4059C219.041 92.8134 219.113 93.2158 219.196 93.6187C219.196 91.1336 219.812 88.5487 219.196 86.1628C219.207 88.1911 218.782 90.3379 219 92.4059Z" fill="black"/>
<path d="M201.754 109.266C200.963 110.027 199.993 110.595 198.927 110.924C197.861 111.252 196.728 111.331 195.624 111.155C195.889 110.532 195.918 109.842 195.707 109.201C193.082 110.608 190.351 111.824 187.537 112.839L187.242 111.413C183.276 113.272 183.587 119.579 179.621 121.438C177.26 122.547 173.926 121.746 172.295 123.745C171.933 124.197 171.72 124.739 171.389 125.236C170.094 127.139 167.299 127.552 164.99 127.05C161.148 126.215 158.016 123.431 155.981 120.196C153.947 116.96 152.849 113.272 151.777 109.633L149.665 102.471C149.318 101.278 148.966 100.085 148.738 98.8672C148.738 99.2351 148.738 99.5978 148.795 99.961C149.012 101.656 149.389 103.328 149.924 104.956L152.036 112.119C153.108 115.757 154.2 119.445 156.24 122.681C158.28 125.917 161.418 128.7 165.249 129.535C167.558 130.032 170.353 129.624 171.648 127.721C171.979 127.224 172.191 126.692 172.554 126.23C174.159 124.242 177.519 125.032 179.879 123.924C183.846 122.065 183.535 115.757 187.501 113.898L187.796 115.325C190.605 114.309 193.33 113.092 195.95 111.686C196.161 112.327 196.132 113.018 195.867 113.64C196.917 113.807 197.994 113.742 199.014 113.451C200.035 113.16 200.974 112.65 201.759 111.959C201.98 111.074 201.978 110.15 201.754 109.266Z" fill="black"/>
</g>
<path opacity="0.1" d="M191.761 142.036C188.975 143.577 182.504 147.006 181.194 146.42C179.796 145.798 164.544 140.674 159.449 138.964C159.786 137.304 161.003 133.079 165.036 131.692C165.853 131.481 166.709 131.459 167.536 131.628L183.006 137.503C187.34 139.615 190.938 141.579 191.761 142.036Z" fill="black"/>
<path d="M191.761 140.545C188.975 142.085 182.504 145.515 181.194 144.929C179.796 144.307 164.544 139.183 159.449 137.473C159.786 135.813 161.003 131.588 165.036 130.201C165.853 129.99 166.709 129.968 167.536 130.137L183.006 136.012C187.34 138.124 190.938 140.087 191.761 140.545Z" fill="#DCE6F2"/>
<path opacity="0.1" d="M396.311 103.102C396.161 108.704 395.369 114.306 392.941 119.202C388.602 127.945 378.926 133.148 369.907 131.583C368.688 131.434 367.529 130.988 366.541 130.286C365.594 129.442 364.852 128.409 364.367 127.259C362.472 123.352 361.504 118.849 358.853 115.504C356.202 112.158 350.823 110.702 348.266 114.127C346.873 115.981 346.64 118.843 344.781 120.131C342.55 121.677 339.604 119.853 337.87 117.646C332.744 111.184 334.499 98.4745 324.725 96.6955C323.14 96.4019 321.302 96.4416 320.241 95.1296C319.615 94.3543 319.434 93.2804 319.284 92.2614C319.107 91.0639 318.957 89.8409 318.869 88.6133C318.689 91.3269 318.828 94.0511 319.284 96.7352C319.434 97.7541 319.615 98.8276 320.241 99.6029C321.302 100.915 323.14 100.875 324.725 101.169C334.499 102.948 332.744 115.643 337.87 122.119C339.599 124.301 342.53 126.125 344.781 124.604C346.64 123.317 346.852 120.454 348.266 118.6C350.823 115.176 356.202 116.637 358.853 119.977C361.504 123.317 362.477 127.825 364.367 131.732C364.852 132.882 365.594 133.916 366.541 134.759C367.529 135.462 368.688 135.908 369.907 136.056C378.926 137.622 388.602 132.418 392.941 123.675C395.933 117.65 396.435 110.543 396.321 103.699C396.311 103.48 396.311 103.281 396.311 103.102Z" fill="black"/>
<g opacity="0.1">
<path d="M430.166 126.96C431.264 129.734 430.917 132.821 430.435 135.753C429.743 139.992 428.811 144.191 427.645 148.333C426.946 150.819 426.153 153.403 426.687 155.928C427.096 157.886 428.24 159.606 429.151 161.396C431.528 166.222 431.936 171.695 432.118 177.028C432.299 182.361 432.294 187.789 433.956 192.879C435.033 196.347 437.09 199.462 439.899 201.875C438.415 199.966 437.28 197.828 436.545 195.553C434.882 190.463 434.882 185.035 434.706 179.702C434.53 174.369 434.116 168.896 431.74 164.075C430.85 162.271 429.669 160.551 429.275 158.607C428.758 156.082 429.534 153.492 430.233 151.007C431.401 146.854 432.333 142.643 433.024 138.392C433.505 135.46 433.852 132.368 432.754 129.595C431.869 127.373 430.166 125.618 428.318 123.913C429.092 124.833 429.715 125.86 430.166 126.96Z" fill="black"/>
<path d="M447.158 207.109C445.774 206.67 444.473 206.019 443.306 205.18C441.841 205.912 440.24 206.358 438.594 206.493C438.278 208.158 439.267 209.853 440.665 210.906C440.943 211.121 441.237 211.315 441.546 211.488C441.185 210.759 441.064 209.943 441.199 209.147C443.333 208.966 445.384 208.265 447.158 207.109Z" fill="black"/>
<path d="M393.344 91.6153C391.372 90.7108 388.819 90.691 386.883 89.9207C386.993 90.2662 387.14 90.5994 387.323 90.9148C388.954 93.5388 393.059 92.9726 395.933 94.2943C396.296 94.4693 396.642 94.6738 396.969 94.9058C396.07 93.5317 394.823 92.3998 393.344 91.6153Z" fill="black"/>
<path d="M443.75 213.944C441.766 214.755 439.545 214.856 437.49 214.227C435.28 213.531 433.452 212.04 431.687 210.578L421.762 202.382C421.291 201.995 420.825 201.602 420.369 201.204C420.473 201.338 420.576 201.478 420.69 201.611C421.798 202.857 423.023 204.002 424.351 205.031L434.276 213.232C436.041 214.689 437.868 216.185 440.079 216.881C441.406 217.286 442.813 217.391 444.189 217.187C445.566 216.982 446.874 216.475 448.011 215.703C446.513 215.308 445.078 214.716 443.75 213.944Z" fill="black"/>
<path d="M412.47 95.1495C415.146 98.6734 417.916 102.441 418.268 106.785C418.408 108.565 418.134 110.374 418.486 112.124C419.045 114.922 421.017 117.024 423.223 119.028C422.157 117.8 421.42 116.341 421.074 114.778C420.722 113.023 420.997 111.214 420.857 109.435C420.505 105.091 417.751 101.323 415.058 97.8035C413.112 95.2339 411.082 92.6094 408.695 90.4325C410.026 91.9434 411.263 93.5541 412.47 95.1495Z" fill="black"/>
</g>
<path opacity="0.1" d="M389.756 84.8457C389.756 84.8457 386.65 89.8159 395.451 93.9565L395.969 92.6292L389.756 84.8457Z" fill="black"/>
<path d="M389.239 84.8457C389.239 84.8457 386.133 89.8159 394.934 93.9565L395.452 92.6292L389.239 84.8457Z" fill="#575988"/>
<path d="M511.791 366.169C511.791 366.169 514.638 369.743 510.481 375.115C506.324 380.488 502.896 385.056 504.268 388.422C504.268 388.422 510.543 378.406 515.658 378.267C520.774 378.127 517.408 372.193 511.791 366.169Z" fill="#765E82"/>
<path opacity="0.1" d="M511.79 366.169C512.038 366.513 512.235 366.89 512.375 367.287C517.355 372.908 520.007 378.152 515.217 378.282C510.759 378.406 505.411 386.061 504.127 387.994C504.168 388.143 504.22 388.287 504.277 388.436C504.277 388.436 510.552 378.421 515.667 378.282C520.783 378.142 517.407 372.193 511.79 366.169Z" fill="black"/>
<path d="M517.081 370.721C517.081 371.979 516.931 372.998 516.75 372.998C516.569 372.998 516.424 372.004 516.424 370.721C516.424 369.439 516.605 370.055 516.786 370.055C516.967 370.055 517.081 369.464 517.081 370.721Z" fill="#FFD037"/>
<path d="M518.893 372.223C517.743 372.824 516.739 373.187 516.656 373.033C516.573 372.879 517.427 372.267 518.577 371.666C519.727 371.064 519.276 371.502 519.364 371.666C519.452 371.83 520.048 371.621 518.893 372.223Z" fill="#FFD037"/>
<path d="M496.75 366.169C496.75 366.169 493.902 369.743 498.06 375.115C502.217 380.488 505.644 385.056 504.273 388.422C504.273 388.422 498.003 378.406 492.883 378.267C487.762 378.127 491.153 372.193 496.75 366.169Z" fill="#765E82"/>
<path opacity="0.1" d="M496.749 366.169C496.501 366.513 496.304 366.89 496.164 367.287C491.184 372.908 488.533 378.152 493.322 378.282C497.78 378.406 503.128 386.061 504.412 387.994C504.369 388.144 504.318 388.292 504.257 388.436C504.257 388.436 497.987 378.421 492.867 378.282C487.746 378.142 491.153 372.193 496.749 366.169Z" fill="black"/>
<path d="M491.48 370.721C491.48 371.979 491.631 372.998 491.812 372.998C491.993 372.998 492.138 372.004 492.138 370.721C492.138 369.439 491.957 370.055 491.776 370.055C491.594 370.055 491.48 369.464 491.48 370.721Z" fill="#FFD037"/>
<path d="M489.667 372.223C490.817 372.824 491.816 373.187 491.904 373.033C491.992 372.879 491.133 372.267 489.983 371.666C488.834 371.064 489.284 371.502 489.196 371.666C489.108 371.83 488.518 371.621 489.667 372.223Z" fill="#FFD037"/>
<path d="M492.385 387.969C492.385 387.969 500.337 387.73 502.739 386.095C505.142 384.46 514.973 382.496 515.569 385.101C516.164 387.706 527.519 398.168 518.541 398.238C509.563 398.308 497.681 396.896 495.289 395.499C492.897 394.103 492.385 387.969 492.385 387.969Z" fill="#A8A8A8"/>
<path opacity="0.2" d="M518.696 397.353C509.718 397.423 497.836 396.011 495.445 394.614C493.622 393.546 492.897 389.723 492.654 387.964H492.385C492.385 387.964 492.903 394.122 495.284 395.524C497.666 396.926 509.558 398.333 518.536 398.263C521.125 398.263 522.021 397.358 521.974 396.046C521.601 396.856 520.623 397.353 518.696 397.353Z" fill="black"/>
<path d="M136.976 379.206C137.926 378.464 138.62 377.462 138.964 376.333C139.218 375.19 138.71 373.818 137.576 373.4C136.303 372.933 134.941 373.783 133.911 374.638C132.881 375.493 131.695 376.473 130.344 376.288C131.039 375.685 131.559 374.917 131.853 374.063C132.146 373.208 132.205 372.295 132.021 371.412C131.962 371.046 131.801 370.703 131.555 370.418C130.851 369.693 129.567 370.006 128.718 370.577C126.026 372.392 125.275 375.906 125.265 379.062C124.991 377.924 125.218 376.736 125.213 375.583C125.208 374.43 124.872 373.097 123.846 372.491C123.213 372.155 122.499 371.983 121.775 371.994C120.564 371.949 119.218 372.069 118.39 372.919C117.354 373.972 117.628 375.747 118.524 376.895C119.419 378.043 120.776 378.789 122.024 379.589C123.028 380.162 123.885 380.945 124.53 381.88C124.605 382.012 124.668 382.15 124.716 382.293H132.27C133.977 381.473 135.56 380.435 136.976 379.206Z" fill="#765E82"/>
<path d="M76.6965 387.044C76.6965 387.044 69.4487 363.336 78.0582 345.879C81.7293 338.581 82.8373 330.338 81.2167 322.384C80.4121 318.614 79.2512 314.922 77.7476 311.354" stroke="#535461" stroke-width="2" stroke-miterlimit="10"/>
<path d="M83.1276 300.325C83.1276 303.228 77.6448 311.658 77.6448 311.658C77.6448 311.658 72.1621 303.208 72.1621 300.325C72.1621 298.929 72.7394 297.59 73.7677 296.603C74.796 295.616 76.1904 295.061 77.6448 295.061C79.0987 295.061 80.4931 295.616 81.5214 296.603C82.5497 297.59 83.1276 298.929 83.1276 300.325Z" fill="#765E82"/>
<path d="M92.1872 316.419C90.5406 318.86 81.1699 323.075 81.1699 323.075C81.1699 323.075 81.3356 313.134 82.9821 310.703C83.7862 309.564 85.0237 308.773 86.4285 308.499C87.8332 308.226 89.2938 308.491 90.4971 309.238C91.701 309.985 92.5517 311.155 92.8675 312.498C93.1834 313.84 92.939 315.248 92.1872 316.419Z" fill="#765E82"/>
<path d="M91.788 343.931C89.0852 345.238 78.7773 344.334 78.7773 344.334C78.7773 344.334 84.1513 335.844 86.8536 334.531C87.4982 334.204 88.2045 334.003 88.9309 333.941C89.6574 333.878 90.3895 333.956 91.0844 334.168C91.7792 334.381 92.4228 334.724 92.9779 335.179C93.5329 335.633 93.9875 336.189 94.3158 336.815C94.6441 337.44 94.8393 338.122 94.8895 338.82C94.9397 339.519 94.8444 340.22 94.6089 340.882C94.3738 341.545 94.0025 342.156 93.5184 342.68C93.0338 343.203 92.4456 343.629 91.788 343.931Z" fill="#765E82"/>
<path d="M86.6053 364.678C84.1718 366.407 73.8535 367.163 73.8535 367.163C73.8535 367.163 77.6535 357.923 80.0663 356.193C80.6405 355.741 81.3048 355.406 82.0183 355.208C82.7318 355.009 83.4795 354.952 84.2168 355.04C84.9536 355.128 85.6645 355.358 86.306 355.718C86.9475 356.077 87.5062 356.558 87.9479 357.131C88.3901 357.704 88.7064 358.357 88.8773 359.051C89.0482 359.745 89.0709 360.465 88.9436 361.167C88.8157 361.87 88.5407 362.54 88.1353 363.138C87.7299 363.735 87.2023 364.247 86.5846 364.643L86.6053 364.678Z" fill="#765E82"/>
<path d="M69.6602 323.637C71.8292 325.664 81.946 327.762 81.946 327.762C81.946 327.762 79.4659 318.114 77.286 316.087C76.7745 315.584 76.163 315.186 75.4883 314.913C74.8137 314.642 74.0888 314.502 73.3571 314.504C72.625 314.505 71.9012 314.647 71.227 314.922C70.5534 315.196 69.944 315.597 69.434 316.101C68.924 316.604 68.5247 317.202 68.2586 317.856C67.993 318.511 67.8667 319.21 67.8869 319.912C67.907 320.615 68.0733 321.306 68.3761 321.946C68.6785 322.585 69.1119 323.16 69.6499 323.637H69.6602Z" fill="#765E82"/>
<path d="M63.9285 347.977C66.6308 349.284 76.9387 348.384 76.9387 348.384C76.9387 348.384 71.5699 339.89 68.8624 338.583C68.2199 338.272 67.5198 338.085 66.8022 338.034C66.0846 337.982 65.3633 338.067 64.6803 338.283C63.9969 338.5 63.3642 338.843 62.8195 339.294C62.2742 339.745 61.8269 340.294 61.5028 340.911C61.1786 341.528 60.9845 342.2 60.9311 342.889C60.8778 343.578 60.9658 344.27 61.1916 344.926C61.4168 345.582 61.7741 346.19 62.2437 346.713C62.7133 347.236 63.286 347.666 63.9285 347.977Z" fill="#765E82"/>
<path d="M61.7248 372.372C64.1579 374.096 74.4761 374.857 74.4761 374.857C74.4761 374.857 70.6761 365.612 68.2633 363.882C67.0926 363.132 65.6661 362.844 64.2795 363.076C62.8934 363.308 61.6529 364.042 60.8151 365.128C59.9773 366.214 59.6066 367.568 59.7801 368.909C59.953 370.25 60.6567 371.475 61.7455 372.332L61.7248 372.372Z" fill="#765E82"/>
<path d="M83.1276 300.325C83.1276 303.228 77.6448 311.658 77.6448 311.658C77.6448 311.658 72.1621 303.208 72.1621 300.325C72.1621 298.929 72.7394 297.59 73.7677 296.603C74.796 295.616 76.1904 295.061 77.6448 295.061C79.0987 295.061 80.4931 295.616 81.5214 296.603C82.5497 297.59 83.1276 298.929 83.1276 300.325Z" fill="#765E82"/>
<path d="M92.1872 316.419C90.5406 318.86 81.1699 323.075 81.1699 323.075C81.1699 323.075 81.3356 313.134 82.9821 310.703C83.7862 309.564 85.0237 308.773 86.4285 308.499C87.8332 308.226 89.2938 308.491 90.4971 309.238C91.701 309.985 92.5517 311.155 92.8675 312.498C93.1834 313.84 92.939 315.248 92.1872 316.419Z" fill="#765E82"/>
<path d="M91.788 343.931C89.0852 345.238 78.7773 344.334 78.7773 344.334C78.7773 344.334 84.1513 335.844 86.8536 334.531C87.4982 334.204 88.2045 334.003 88.9309 333.941C89.6574 333.878 90.3895 333.956 91.0844 334.168C91.7792 334.381 92.4228 334.724 92.9779 335.179C93.5329 335.633 93.9875 336.189 94.3158 336.815C94.6441 337.44 94.8393 338.122 94.8895 338.82C94.9397 339.519 94.8444 340.22 94.6089 340.882C94.3738 341.545 94.0025 342.156 93.5184 342.68C93.0338 343.203 92.4456 343.629 91.788 343.931Z" fill="#765E82"/>
<path d="M86.6053 364.678C84.1718 366.407 73.8535 367.163 73.8535 367.163C73.8535 367.163 77.6535 357.923 80.0663 356.193C80.6405 355.741 81.3048 355.406 82.0183 355.208C82.7318 355.009 83.4795 354.952 84.2168 355.04C84.9536 355.128 85.6645 355.358 86.306 355.718C86.9475 356.077 87.5062 356.558 87.9479 357.131C88.3901 357.704 88.7064 358.357 88.8773 359.051C89.0482 359.745 89.0709 360.465 88.9436 361.167C88.8157 361.87 88.5407 362.54 88.1353 363.138C87.7299 363.735 87.2023 364.247 86.5846 364.643L86.6053 364.678Z" fill="#765E82"/>
<path d="M69.6602 323.637C71.8292 325.664 81.946 327.762 81.946 327.762C81.946 327.762 79.4659 318.114 77.286 316.087C76.7745 315.584 76.163 315.186 75.4883 314.913C74.8137 314.642 74.0888 314.502 73.3571 314.504C72.625 314.505 71.9012 314.647 71.227 314.922C70.5534 315.196 69.944 315.597 69.434 316.101C68.924 316.604 68.5247 317.202 68.2586 317.856C67.993 318.511 67.8667 319.21 67.8869 319.912C67.907 320.615 68.0733 321.306 68.3761 321.946C68.6785 322.585 69.1119 323.16 69.6499 323.637H69.6602Z" fill="#765E82"/>
<path d="M63.9285 347.977C66.6308 349.284 76.9387 348.384 76.9387 348.384C76.9387 348.384 71.5699 339.89 68.8624 338.583C68.2199 338.272 67.5198 338.085 66.8022 338.034C66.0846 337.982 65.3633 338.067 64.6803 338.283C63.9969 338.5 63.3642 338.843 62.8195 339.294C62.2742 339.745 61.8269 340.294 61.5028 340.911C61.1786 341.528 60.9845 342.2 60.9311 342.889C60.8778 343.578 60.9658 344.27 61.1916 344.926C61.4168 345.582 61.7741 346.19 62.2437 346.713C62.7133 347.236 63.286 347.666 63.9285 347.977Z" fill="#765E82"/>
<path d="M61.7248 372.372C64.1579 374.096 74.4761 374.857 74.4761 374.857C74.4761 374.857 70.6761 365.612 68.2633 363.882C67.0926 363.132 65.6661 362.844 64.2795 363.076C62.8934 363.308 61.6529 364.042 60.8151 365.128C59.9773 366.214 59.6066 367.568 59.7801 368.909C59.953 370.25 60.6567 371.475 61.7455 372.332L61.7248 372.372Z" fill="#765E82"/>
<path d="M59.502 385.553C59.502 385.553 68.3606 383.863 70.7211 381.612C73.0822 379.36 83.7163 375.418 84.8968 378.232C86.0773 381.045 100.843 390.618 90.8041 392.308C80.7655 393.998 67.1801 394.56 64.2236 393.432C61.2676 392.303 59.502 385.553 59.502 385.553Z" fill="#A8A8A8"/>
<path opacity="0.2" d="M90.8041 391.259C80.7603 392.949 67.1801 393.511 64.2236 392.388C61.9769 391.528 60.4132 387.417 59.7971 385.494L59.502 385.553C59.502 385.553 61.2727 392.308 64.2236 393.432C67.1749 394.555 80.7603 393.998 90.8041 392.308C93.6979 391.811 94.5264 390.673 94.2157 389.226C93.9568 390.171 92.9575 390.891 90.8041 391.259Z" fill="black"/>
<defs>
<linearGradient id="paint0_linear_172_227" x1="266.797" y1="400.798" x2="266.797" y2="68.2347" gradientUnits="userSpaceOnUse">
<stop stop-color="#808080" stop-opacity="0.25"/>
<stop offset="0.54" stop-color="#808080" stop-opacity="0.12"/>
<stop offset="1" stop-color="#808080" stop-opacity="0.1"/>
</linearGradient>
</defs>
</svg>
